NotoSansThaana-Light.ufo
<glyph name="exclam" format="2">
  <advance width="402.0"/>
  <unicode hex="0021"/>
  <outline>
    <contour>
      <point x="188.5" y="217.5" type="curve" smooth="yes"/>
      <point x="204.5" y="217.5"/>
      <point x="218.5" y="225.5"/>
      <point x="224.0" y="248.0" type="curve" smooth="yes"/>
      <point x="237.0" y="299.5"/>
      <point x="247.5" y="342.0"/>
      <point x="292.0" y="479.0" type="curve" smooth="yes"/>
      <point x="327.0" y="586.0"/>
      <point x="352.0" y="644.0"/>
      <point x="360.5" y="664.5" type="curve" smooth="yes"/>
      <point x="370.5" y="689.0"/>
      <point x="374.5" y="702.0"/>
      <point x="374.5" y="712.0" type="curve" smooth="yes"/>
      <point x="374.5" y="724.0"/>
      <point x="369.0" y="728.5"/>
      <point x="357.5" y="728.5" type="curve" smooth="yes"/>
      <point x="343.5" y="728.5"/>
      <point x="331.0" y="715.5"/>
      <point x="313.5" y="681.5" type="curve" smooth="yes"/>
      <point x="296.0" y="648.0"/>
      <point x="263.5" y="569.0"/>
      <point x="226.0" y="466.0" type="curve" smooth="yes"/>
      <point x="189.5" y="365.5"/>
      <point x="158.5" y="265.5"/>
      <point x="158.5" y="245.0" type="curve" smooth="yes"/>
      <point x="158.5" y="223.0"/>
      <point x="171.0" y="217.5"/>
    </contour>
    <contour>
      <point x="154.0" y="-7.0" type="curve" smooth="yes"/>
      <point x="191.5" y="-7.0"/>
      <point x="222.0" y="23.0"/>
      <point x="222.0" y="54.5" type="curve" smooth="yes"/>
      <point x="222.0" y="79.0"/>
      <point x="204.0" y="100.0"/>
      <point x="172.0" y="100.0" type="curve" smooth="yes"/>
      <point x="134.0" y="100.0"/>
      <point x="104.0" y="68.5"/>
      <point x="104.0" y="36.5" type="curve" smooth="yes"/>
      <point x="104.0" y="11.0"/>
      <point x="123.0" y="-7.0"/>
    </contour>
  </outline>
</glyph>
<glyph name="parenleft" format="2">
  <advance width="488.0"/>
  <unicode hex="0028"/>
  <outline>
    <contour>
      <point x="249.0" y="-234.5" type="curve" smooth="yes"/>
      <point x="269.5" y="-234.5"/>
      <point x="280.5" y="-219.0"/>
      <point x="280.5" y="-206.0" type="curve" smooth="yes"/>
      <point x="280.5" y="-196.0"/>
      <point x="273.0" y="-183.5"/>
      <point x="254.0" y="-163.0" type="curve" smooth="yes"/>
      <point x="202.5" y="-109.0"/>
      <point x="156.5" y="-23.0"/>
      <point x="156.5" y="91.0" type="curve" smooth="yes"/>
      <point x="156.5" y="328.0"/>
      <point x="302.5" y="579.5"/>
      <point x="520.5" y="663.5" type="curve" smooth="yes"/>
      <point x="556.5" y="677.5"/>
      <point x="565.5" y="684.0"/>
      <point x="565.5" y="697.5" type="curve" smooth="yes"/>
      <point x="565.5" y="708.0"/>
      <point x="556.5" y="717.0"/>
      <point x="541.5" y="717.0" type="curve" smooth="yes"/>
      <point x="509.5" y="717.0"/>
      <point x="462.0" y="696.0"/>
      <point x="430.0" y="675.5" type="curve" smooth="yes"/>
      <point x="226.0" y="565.0"/>
      <point x="95.5" y="318.0"/>
      <point x="95.5" y="91.0" type="curve" smooth="yes"/>
      <point x="95.5" y="-35.5"/>
      <point x="144.0" y="-142.0"/>
      <point x="195.0" y="-198.5" type="curve" smooth="yes"/>
      <point x="218.5" y="-224.0"/>
      <point x="234.5" y="-234.5"/>
    </contour>
  </outline>
</glyph>
<glyph name="parenright" format="2">
  <advance width="488.0"/>
  <unicode hex="0029"/>
  <outline>
    <contour>
      <point x="-29.0" y="-234.5" type="curve" smooth="yes"/>
      <point x="-9.5" y="-234.5"/>
      <point x="19.5" y="-226.5"/>
      <point x="41.0" y="-216.5" type="curve" smooth="yes"/>
      <point x="268.0" y="-113.0"/>
      <point x="417.0" y="148.5"/>
      <point x="417.0" y="392.0" type="curve" smooth="yes"/>
      <point x="417.0" y="518.5"/>
      <point x="368.0" y="625.5"/>
      <point x="317.5" y="681.0" type="curve" smooth="yes"/>
      <point x="294.0" y="707.0"/>
      <point x="278.0" y="717.5"/>
      <point x="263.5" y="717.5" type="curve" smooth="yes"/>
      <point x="243.0" y="717.5"/>
      <point x="232.0" y="702.0"/>
      <point x="232.0" y="689.0" type="curve" smooth="yes"/>
      <point x="232.0" y="679.0"/>
      <point x="239.0" y="666.0"/>
      <point x="258.5" y="646.0" type="curve" smooth="yes"/>
      <point x="311.0" y="592.5"/>
      <point x="356.0" y="506.0"/>
      <point x="356.0" y="392.0" type="curve" smooth="yes"/>
      <point x="356.0" y="154.5"/>
      <point x="209.5" y="-97.0"/>
      <point x="-8.0" y="-181.0" type="curve" smooth="yes"/>
      <point x="-44.5" y="-195.0"/>
      <point x="-53.0" y="-202.0"/>
      <point x="-53.0" y="-215.0" type="curve" smooth="yes"/>
      <point x="-53.0" y="-225.5"/>
      <point x="-44.0" y="-234.5"/>
    </contour>
  </outline>
</glyph>
<glyph name="comma" format="2">
  <advance width="364.0"/>
  <unicode hex="002C"/>
  <outline>
    <contour>
      <point x="117.5" y="-120.5" type="curve" smooth="yes"/>
      <point x="130.0" y="-120.5"/>
      <point x="142.0" y="-109.5"/>
      <point x="156.0" y="-93.0" type="curve" smooth="yes"/>
      <point x="177.5" y="-72.0"/>
      <point x="230.0" y="2.0"/>
      <point x="230.0" y="43.0" type="curve" smooth="yes"/>
      <point x="230.0" y="78.5"/>
      <point x="208.5" y="94.5"/>
      <point x="180.0" y="94.5" type="curve" smooth="yes"/>
      <point x="145.0" y="94.5"/>
      <point x="117.0" y="67.0"/>
      <point x="117.0" y="36.5" type="curve" smooth="yes"/>
      <point x="117.0" y="13.5"/>
      <point x="136.5" y="-5.0"/>
      <point x="164.5" y="-8.5" type="curve"/>
      <point x="152.0" y="-43.0"/>
      <point x="129.0" y="-70.5"/>
      <point x="114.0" y="-86.0" type="curve" smooth="yes"/>
      <point x="106.0" y="-95.0"/>
      <point x="102.0" y="-99.5"/>
      <point x="102.0" y="-107.0" type="curve" smooth="yes"/>
      <point x="102.0" y="-111.0"/>
      <point x="105.0" y="-120.5"/>
    </contour>
  </outline>
</glyph>
<glyph name="period" format="2">
  <advance width="364.0"/>
  <unicode hex="002E"/>
  <outline>
    <contour>
      <point x="151.5" y="-7.0" type="curve" smooth="yes"/>
      <point x="189.0" y="-7.0"/>
      <point x="219.5" y="23.0"/>
      <point x="219.5" y="54.5" type="curve" smooth="yes"/>
      <point x="219.5" y="79.0"/>
      <point x="201.5" y="100.0"/>
      <point x="169.5" y="100.0" type="curve" smooth="yes"/>
      <point x="131.5" y="100.0"/>
      <point x="101.5" y="68.5"/>
      <point x="101.5" y="36.5" type="curve" smooth="yes"/>
      <point x="101.5" y="11.0"/>
      <point x="120.5" y="-7.0"/>
    </contour>
  </outline>
</glyph>
<glyph name="colon" format="2">
  <advance width="364.0"/>
  <unicode hex="003A"/>
  <outline>
    <contour>
      <point x="182.5" y="248.5" type="curve" smooth="yes"/>
      <point x="220.5" y="248.5"/>
      <point x="251.5" y="279.0"/>
      <point x="251.5" y="311.0" type="curve" smooth="yes"/>
      <point x="251.5" y="335.5"/>
      <point x="232.0" y="355.5"/>
      <point x="201.0" y="355.5" type="curve" smooth="yes"/>
      <point x="163.0" y="355.5"/>
      <point x="133.5" y="324.5"/>
      <point x="133.5" y="293.0" type="curve" smooth="yes"/>
      <point x="133.5" y="267.5"/>
      <point x="151.0" y="248.5"/>
    </contour>
    <contour>
      <point x="151.5" y="-7.0" type="curve" smooth="yes"/>
      <point x="189.0" y="-7.0"/>
      <point x="219.5" y="23.0"/>
      <point x="219.5" y="54.5" type="curve" smooth="yes"/>
      <point x="219.5" y="79.0"/>
      <point x="201.5" y="100.0"/>
      <point x="169.5" y="100.0" type="curve" smooth="yes"/>
      <point x="131.5" y="100.0"/>
      <point x="101.5" y="68.5"/>
      <point x="101.5" y="36.5" type="curve" smooth="yes"/>
      <point x="101.5" y="11.0"/>
      <point x="120.5" y="-7.0"/>
    </contour>
  </outline>
</glyph>
<glyph name="semicolon" format="2">
  <advance width="364.0"/>
  <unicode hex="003B"/>
  <outline>
    <contour>
      <point x="105.0" y="-120.5" type="curve" smooth="yes"/>
      <point x="117.0" y="-120.5"/>
      <point x="130.0" y="-109.0"/>
      <point x="143.5" y="-93.0" type="curve" smooth="yes"/>
      <point x="164.0" y="-73.0"/>
      <point x="217.5" y="2.0"/>
      <point x="217.5" y="43.0" type="curve" smooth="yes"/>
      <point x="217.5" y="78.5"/>
      <point x="196.0" y="94.5"/>
      <point x="167.5" y="94.5" type="curve" smooth="yes"/>
      <point x="133.5" y="94.5"/>
      <point x="105.0" y="67.0"/>
      <point x="105.0" y="36.5" type="curve" smooth="yes"/>
      <point x="105.0" y="13.5"/>
      <point x="124.0" y="-5.0"/>
      <point x="152.0" y="-8.5" type="curve"/>
      <point x="139.5" y="-42.5"/>
      <point x="117.5" y="-70.0"/>
      <point x="102.0" y="-86.0" type="curve" smooth="yes"/>
      <point x="93.5" y="-95.5"/>
      <point x="89.5" y="-99.5"/>
      <point x="89.5" y="-107.0" type="curve" smooth="yes"/>
      <point x="89.5" y="-110.5"/>
      <point x="92.5" y="-120.5"/>
    </contour>
    <contour>
      <point x="182.5" y="248.5" type="curve" smooth="yes"/>
      <point x="220.5" y="248.5"/>
      <point x="251.5" y="279.0"/>
      <point x="251.5" y="311.0" type="curve" smooth="yes"/>
      <point x="251.5" y="335.5"/>
      <point x="232.0" y="355.5"/>
      <point x="201.0" y="355.5" type="curve" smooth="yes"/>
      <point x="163.0" y="355.5"/>
      <point x="133.5" y="324.5"/>
      <point x="133.5" y="293.0" type="curve" smooth="yes"/>
      <point x="133.5" y="267.5"/>
      <point x="151.0" y="248.5"/>
    </contour>
  </outline>
</glyph>
<glyph name="uni060C" format="2">
  <advance width="324.0"/>
  <unicode hex="060C"/>
  <outline>
    <contour>
      <point x="141.0" y="-9.5" type="curve" smooth="yes"/>
      <point x="175.0" y="-9.5"/>
      <point x="204.0" y="18.5"/>
      <point x="204.0" y="48.5" type="curve" smooth="yes"/>
      <point x="204.0" y="71.5"/>
      <point x="184.5" y="90.5"/>
      <point x="156.5" y="94.0" type="curve"/>
      <point x="169.0" y="128.5"/>
      <point x="192.0" y="156.0"/>
      <point x="207.0" y="171.5" type="curve" smooth="yes"/>
      <point x="215.0" y="180.5"/>
      <point x="219.0" y="185.0"/>
      <point x="219.0" y="192.5" type="curve" smooth="yes"/>
      <point x="219.0" y="196.0"/>
      <point x="216.0" y="206.0"/>
      <point x="203.5" y="206.0" type="curve" smooth="yes"/>
      <point x="193.0" y="206.0"/>
      <point x="179.5" y="195.0"/>
      <point x="165.0" y="178.0" type="curve" smooth="yes"/>
      <point x="145.0" y="158.5"/>
      <point x="91.0" y="83.5"/>
      <point x="91.0" y="42.0" type="curve" smooth="yes"/>
      <point x="91.0" y="6.5"/>
      <point x="112.0" y="-9.5"/>
    </contour>
  </outline>
</glyph>
<glyph name="uni061B" format="2">
  <advance width="364.0"/>
  <unicode hex="061B"/>
  <outline>
    <contour>
      <point x="185.0" y="252.0" type="curve" smooth="yes"/>
      <point x="219.5" y="252.0"/>
      <point x="248.0" y="280.0"/>
      <point x="248.0" y="310.0" type="curve" smooth="yes"/>
      <point x="248.0" y="333.0"/>
      <point x="228.5" y="352.0"/>
      <point x="200.5" y="355.5" type="curve"/>
      <point x="213.0" y="390.0"/>
      <point x="236.0" y="417.5"/>
      <point x="251.0" y="432.5" type="curve" smooth="yes"/>
      <point x="259.5" y="442.0"/>
      <point x="263.0" y="446.5"/>
      <point x="263.0" y="454.0" type="curve" smooth="yes"/>
      <point x="263.0" y="457.5"/>
      <point x="260.0" y="467.5"/>
      <point x="247.5" y="467.5" type="curve" smooth="yes"/>
      <point x="237.0" y="467.5"/>
      <point x="223.0" y="456.0"/>
      <point x="209.0" y="439.5" type="curve" smooth="yes"/>
      <point x="189.0" y="420.0"/>
      <point x="135.0" y="345.0"/>
      <point x="135.0" y="303.5" type="curve" smooth="yes"/>
      <point x="135.0" y="268.0"/>
      <point x="156.5" y="252.0"/>
    </contour>
    <contour>
      <point x="151.5" y="-7.0" type="curve" smooth="yes"/>
      <point x="189.0" y="-7.0"/>
      <point x="219.5" y="23.0"/>
      <point x="219.5" y="54.5" type="curve" smooth="yes"/>
      <point x="219.5" y="79.0"/>
      <point x="201.5" y="100.0"/>
      <point x="169.5" y="100.0" type="curve" smooth="yes"/>
      <point x="131.5" y="100.0"/>
      <point x="101.5" y="68.5"/>
      <point x="101.5" y="36.5" type="curve" smooth="yes"/>
      <point x="101.5" y="11.0"/>
      <point x="120.5" y="-7.0"/>
    </contour>
  </outline>
</glyph>
<glyph name="uni061F" format="2">
  <advance width="479.0"/>
  <unicode hex="061F"/>
  <outline>
    <contour>
      <point x="217.0" y="209.5" type="curve" smooth="yes"/>
      <point x="229.5" y="209.5"/>
      <point x="244.0" y="223.5"/>
      <point x="255.5" y="241.0" type="curve" smooth="yes"/>
      <point x="269.0" y="261.0"/>
      <point x="276.5" y="284.5"/>
      <point x="276.5" y="317.5" type="curve" smooth="yes"/>
      <point x="276.5" y="356.0"/>
      <point x="255.0" y="392.5"/>
      <point x="233.0" y="426.0" type="curve" smooth="yes"/>
      <point x="212.0" y="458.5"/>
      <point x="190.0" y="491.0"/>
      <point x="190.0" y="534.0" type="curve" smooth="yes"/>
      <point x="190.0" y="615.0"/>
      <point x="263.0" y="662.5"/>
      <point x="343.5" y="662.5" type="curve" smooth="yes"/>
      <point x="380.0" y="662.5"/>
      <point x="410.0" y="642.5"/>
      <point x="430.0" y="629.0" type="curve" smooth="yes"/>
      <point x="448.0" y="616.5"/>
      <point x="461.5" y="605.5"/>
      <point x="475.0" y="605.5" type="curve" smooth="yes"/>
      <point x="486.0" y="605.5"/>
      <point x="506.5" y="622.5"/>
      <point x="506.5" y="641.0" type="curve" smooth="yes"/>
      <point x="506.5" y="647.5"/>
      <point x="504.0" y="656.5"/>
      <point x="490.5" y="667.5" type="curve" smooth="yes"/>
      <point x="466.0" y="688.5"/>
      <point x="416.0" y="714.0"/>
      <point x="350.5" y="714.0" type="curve" smooth="yes"/>
      <point x="231.0" y="714.0"/>
      <point x="138.0" y="633.0"/>
      <point x="138.0" y="532.5" type="curve" smooth="yes"/>
      <point x="138.0" y="482.5"/>
      <point x="158.0" y="446.0"/>
      <point x="177.5" y="416.0" type="curve" smooth="yes"/>
      <point x="200.0" y="381.5"/>
      <point x="218.5" y="348.5"/>
      <point x="218.5" y="320.5" type="curve" smooth="yes"/>
      <point x="218.5" y="291.0"/>
      <point x="207.0" y="274.0"/>
      <point x="199.5" y="260.0" type="curve" smooth="yes"/>
      <point x="191.5" y="246.0"/>
      <point x="186.0" y="234.5"/>
      <point x="186.0" y="225.5" type="curve" smooth="yes"/>
      <point x="186.0" y="212.5"/>
      <point x="205.0" y="209.5"/>
    </contour>
    <contour>
      <point x="161.0" y="-7.0" type="curve" smooth="yes"/>
      <point x="198.5" y="-7.0"/>
      <point x="229.0" y="23.0"/>
      <point x="229.0" y="54.5" type="curve" smooth="yes"/>
      <point x="229.0" y="79.0"/>
      <point x="211.5" y="100.0"/>
      <point x="179.5" y="100.0" type="curve" smooth="yes"/>
      <point x="141.5" y="100.0"/>
      <point x="111.5" y="68.5"/>
      <point x="111.5" y="36.5" type="curve" smooth="yes"/>
      <point x="111.5" y="11.0"/>
      <point x="130.5" y="-7.0"/>
    </contour>
  </outline>
</glyph>
<glyph name="uni0660" format="2">
  <advance width="314.0"/>
  <unicode hex="0660"/>
  <outline>
    <contour>
      <point x="109.5" y="386.5" type="curve" smooth="yes"/>
      <point x="109.5" y="358.0"/>
      <point x="137.0" y="313.5"/>
      <point x="158.0" y="313.5" type="curve" smooth="yes"/>
      <point x="173.5" y="313.5"/>
      <point x="201.0" y="324.5"/>
      <point x="201.0" y="343.5" type="curve" smooth="yes"/>
      <point x="201.0" y="379.0"/>
      <point x="181.5" y="422.5"/>
      <point x="158.0" y="422.5" type="curve" smooth="yes"/>
      <point x="137.0" y="422.5"/>
      <point x="109.5" y="409.5"/>
    </contour>
  </outline>
</glyph>
<glyph name="uni0661" format="2">
  <advance width="316.0"/>
  <unicode hex="0661"/>
  <outline>
    <contour>
      <point x="174.5" y="140.5" type="curve" smooth="yes"/>
      <point x="188.0" y="140.5"/>
      <point x="196.5" y="148.0"/>
      <point x="202.5" y="161.5" type="curve" smooth="yes"/>
      <point x="209.5" y="176.5"/>
      <point x="216.5" y="231.0"/>
      <point x="216.5" y="286.0" type="curve" smooth="yes"/>
      <point x="216.5" y="362.5"/>
      <point x="208.5" y="444.0"/>
      <point x="189.5" y="531.5" type="curve" smooth="yes"/>
      <point x="174.0" y="602.0"/>
      <point x="152.0" y="664.0"/>
      <point x="132.0" y="692.0" type="curve" smooth="yes"/>
      <point x="122.5" y="706.0"/>
      <point x="112.0" y="709.0"/>
      <point x="100.5" y="709.0" type="curve" smooth="yes"/>
      <point x="83.0" y="709.0"/>
      <point x="63.0" y="695.5"/>
      <point x="63.0" y="677.0" type="curve" smooth="yes"/>
      <point x="63.0" y="666.5"/>
      <point x="66.5" y="656.0"/>
      <point x="74.0" y="643.0" type="curve" smooth="yes"/>
      <point x="99.0" y="598.5"/>
      <point x="113.5" y="556.0"/>
      <point x="131.0" y="485.0" type="curve" smooth="yes"/>
      <point x="148.5" y="414.5"/>
      <point x="160.0" y="335.0"/>
      <point x="160.0" y="275.0" type="curve" smooth="yes"/>
      <point x="160.0" y="242.0"/>
      <point x="159.0" y="219.5"/>
      <point x="157.5" y="202.5" type="curve" smooth="yes"/>
      <point x="156.0" y="185.0"/>
      <point x="154.0" y="169.0"/>
      <point x="154.0" y="161.5" type="curve" smooth="yes"/>
      <point x="154.0" y="148.0"/>
      <point x="162.0" y="140.5"/>
    </contour>
  </outline>
</glyph>
<glyph name="uni0662" format="2">
  <advance width="444.5"/>
  <unicode hex="0662"/>
  <outline>
    <contour>
      <point x="393.5" y="691.5" type="curve" smooth="yes"/>
      <point x="383.0" y="691.5"/>
      <point x="372.5" y="683.5"/>
      <point x="365.0" y="671.0" type="curve" smooth="yes"/>
      <point x="339.0" y="625.0"/>
      <point x="304.0" y="598.0"/>
      <point x="252.5" y="598.0" type="curve" smooth="yes"/>
      <point x="218.0" y="598.0"/>
      <point x="174.5" y="607.0"/>
      <point x="145.5" y="636.0" type="curve"/>
      <point x="133.5" y="661.0"/>
      <point x="120.5" y="682.0"/>
      <point x="107.5" y="696.0" type="curve" smooth="yes"/>
      <point x="100.5" y="704.5"/>
      <point x="91.0" y="708.5"/>
      <point x="82.0" y="708.5" type="curve" smooth="yes"/>
      <point x="63.0" y="708.5"/>
      <point x="45.5" y="695.5"/>
      <point x="45.5" y="678.0" type="curve" smooth="yes"/>
      <point x="45.5" y="667.5"/>
      <point x="48.0" y="659.0"/>
      <point x="54.0" y="650.0" type="curve" smooth="yes"/>
      <point x="121.0" y="555.5"/>
      <point x="171.0" y="396.5"/>
      <point x="171.0" y="275.0" type="curve" smooth="yes"/>
      <point x="171.0" y="240.0"/>
      <point x="170.0" y="219.5"/>
      <point x="169.0" y="202.5" type="curve" smooth="yes"/>
      <point x="168.0" y="185.0"/>
      <point x="166.0" y="169.0"/>
      <point x="166.0" y="161.5" type="curve" smooth="yes"/>
      <point x="166.0" y="148.0"/>
      <point x="175.0" y="140.5"/>
      <point x="187.5" y="140.5" type="curve" smooth="yes"/>
      <point x="201.0" y="140.5"/>
      <point x="208.0" y="148.0"/>
      <point x="214.0" y="161.5" type="curve" smooth="yes"/>
      <point x="221.0" y="176.5"/>
      <point x="228.0" y="231.0"/>
      <point x="228.0" y="284.5" type="curve" smooth="yes"/>
      <point x="228.0" y="369.0"/>
      <point x="204.0" y="485.0"/>
      <point x="170.5" y="575.5" type="curve"/>
      <point x="200.0" y="554.5"/>
      <point x="232.0" y="546.5"/>
      <point x="267.0" y="546.5" type="curve" smooth="yes"/>
      <point x="319.5" y="546.5"/>
      <point x="364.5" y="568.0"/>
      <point x="402.0" y="625.0" type="curve" smooth="yes"/>
      <point x="410.5" y="637.0"/>
      <point x="416.5" y="648.5"/>
      <point x="416.5" y="666.0" type="curve" smooth="yes"/>
      <point x="416.5" y="681.5"/>
      <point x="407.0" y="691.5"/>
    </contour>
  </outline>
</glyph>
<glyph name="uni0663" format="2">
  <advance width="500.0"/>
  <unicode hex="0663"/>
  <outline>
    <contour>
      <point x="196.5" y="140.5" type="curve" smooth="yes"/>
      <point x="209.5" y="140.5"/>
      <point x="217.0" y="148.0"/>
      <point x="222.5" y="161.5" type="curve" smooth="yes"/>
      <point x="229.0" y="176.5"/>
      <point x="236.5" y="231.0"/>
      <point x="236.5" y="289.5" type="curve" smooth="yes"/>
      <point x="236.5" y="369.5"/>
      <point x="214.0" y="466.0"/>
      <point x="185.5" y="545.5" type="curve"/>
      <point x="194.5" y="541.5"/>
      <point x="203.5" y="540.0"/>
      <point x="214.5" y="540.0" type="curve" smooth="yes"/>
      <point x="242.0" y="540.0"/>
      <point x="264.0" y="552.0"/>
      <point x="285.5" y="576.0" type="curve"/>
      <point x="305.5" y="562.0"/>
      <point x="325.5" y="557.0"/>
      <point x="352.0" y="557.0" type="curve" smooth="yes"/>
      <point x="394.5" y="557.0"/>
      <point x="428.5" y="590.0"/>
      <point x="456.5" y="653.0" type="curve" smooth="yes"/>
      <point x="463.0" y="667.5"/>
      <point x="467.5" y="681.0"/>
      <point x="467.5" y="690.5" type="curve" smooth="yes"/>
      <point x="467.5" y="706.5"/>
      <point x="453.5" y="716.0"/>
      <point x="440.5" y="716.0" type="curve" smooth="yes"/>
      <point x="428.0" y="716.0"/>
      <point x="420.5" y="707.0"/>
      <point x="414.0" y="687.0" type="curve" smooth="yes"/>
      <point x="396.5" y="636.5"/>
      <point x="374.0" y="600.0"/>
      <point x="340.0" y="600.0" type="curve" smooth="yes"/>
      <point x="330.0" y="600.0"/>
      <point x="318.5" y="601.0"/>
      <point x="307.5" y="607.0" type="curve"/>
      <point x="314.5" y="617.5"/>
      <point x="322.0" y="632.0"/>
      <point x="329.5" y="649.0" type="curve" smooth="yes"/>
      <point x="334.5" y="660.5"/>
      <point x="338.5" y="671.0"/>
      <point x="338.5" y="684.0" type="curve" smooth="yes"/>
      <point x="338.5" y="698.5"/>
      <point x="325.0" y="708.5"/>
      <point x="310.0" y="708.5" type="curve" smooth="yes"/>
      <point x="298.5" y="708.5"/>
      <point x="288.5" y="701.5"/>
      <point x="283.0" y="685.5" type="curve" smooth="yes"/>
      <point x="264.5" y="628.0"/>
      <point x="241.0" y="588.5"/>
      <point x="202.0" y="588.5" type="curve" smooth="yes"/>
      <point x="190.5" y="588.5"/>
      <point x="177.5" y="590.0"/>
      <point x="165.5" y="598.5" type="curve"/>
      <point x="147.0" y="641.5"/>
      <point x="127.0" y="676.0"/>
      <point x="109.5" y="696.0" type="curve" smooth="yes"/>
      <point x="101.5" y="706.0"/>
      <point x="92.5" y="709.0"/>
      <point x="81.0" y="709.0" type="curve" smooth="yes"/>
      <point x="64.0" y="709.0"/>
      <point x="45.0" y="695.5"/>
      <point x="45.0" y="678.0" type="curve" smooth="yes"/>
      <point x="45.0" y="667.5"/>
      <point x="47.5" y="659.0"/>
      <point x="56.0" y="648.0" type="curve" smooth="yes"/>
      <point x="127.0" y="555.5"/>
      <point x="180.0" y="399.5"/>
      <point x="180.0" y="275.0" type="curve" smooth="yes"/>
      <point x="180.0" y="242.0"/>
      <point x="179.0" y="219.5"/>
      <point x="177.5" y="202.5" type="curve" smooth="yes"/>
      <point x="176.0" y="185.0"/>
      <point x="174.5" y="169.0"/>
      <point x="174.5" y="161.5" type="curve" smooth="yes"/>
      <point x="174.5" y="148.0"/>
      <point x="184.0" y="140.5"/>
    </contour>
  </outline>
</glyph>
<glyph name="uni0664" format="2">
  <advance width="403.5"/>
  <unicode hex="0664"/>
  <outline>
    <contour>
      <point x="303.0" y="135.5" type="curve" smooth="yes"/>
      <point x="357.0" y="135.5"/>
      <point x="378.5" y="147.0"/>
      <point x="378.5" y="171.5" type="curve" smooth="yes"/>
      <point x="378.5" y="193.0"/>
      <point x="371.0" y="202.5"/>
      <point x="356.5" y="202.5" type="curve" smooth="yes"/>
      <point x="338.5" y="202.5"/>
      <point x="323.5" y="198.0"/>
      <point x="296.0" y="198.0" type="curve" smooth="yes"/>
      <point x="224.5" y="198.0"/>
      <point x="143.5" y="219.0"/>
      <point x="143.5" y="273.0" type="curve" smooth="yes"/>
      <point x="143.5" y="318.5"/>
      <point x="184.5" y="372.5"/>
      <point x="256.5" y="424.5" type="curve" smooth="yes"/>
      <point x="273.5" y="437.5"/>
      <point x="288.0" y="444.5"/>
      <point x="288.0" y="458.0" type="curve" smooth="yes"/>
      <point x="288.0" y="472.0"/>
      <point x="281.5" y="480.0"/>
      <point x="254.5" y="491.0" type="curve" smooth="yes"/>
      <point x="224.0" y="503.5"/>
      <point x="153.0" y="535.0"/>
      <point x="118.5" y="564.5" type="curve"/>
      <point x="146.0" y="589.0"/>
      <point x="219.0" y="635.5"/>
      <point x="258.0" y="655.0" type="curve" smooth="yes"/>
      <point x="277.0" y="664.5"/>
      <point x="283.0" y="672.0"/>
      <point x="283.0" y="681.5" type="curve" smooth="yes"/>
      <point x="283.0" y="692.5"/>
      <point x="272.5" y="709.0"/>
      <point x="256.0" y="709.0" type="curve" smooth="yes"/>
      <point x="243.0" y="709.0"/>
      <point x="226.5" y="703.5"/>
      <point x="202.0" y="687.5" type="curve" smooth="yes"/>
      <point x="167.5" y="665.5"/>
      <point x="115.5" y="624.5"/>
      <point x="85.0" y="599.0" type="curve" smooth="yes"/>
      <point x="69.5" y="585.5"/>
      <point x="57.5" y="573.5"/>
      <point x="57.5" y="559.5" type="curve" smooth="yes"/>
      <point x="57.5" y="548.5"/>
      <point x="69.0" y="539.0"/>
      <point x="79.0" y="531.5" type="curve" smooth="yes"/>
      <point x="116.5" y="503.5"/>
      <point x="184.0" y="473.0"/>
      <point x="224.0" y="455.5" type="curve"/>
      <point x="137.5" y="397.0"/>
      <point x="78.5" y="331.0"/>
      <point x="78.5" y="265.5" type="curve" smooth="yes"/>
      <point x="78.5" y="182.0"/>
      <point x="198.0" y="135.5"/>
    </contour>
  </outline>
</glyph>
<glyph name="uni0665" format="2">
  <advance width="450.5"/>
  <unicode hex="0665"/>
  <outline>
    <contour>
      <point x="224.5" y="175.5" type="curve" smooth="yes"/>
      <point x="351.0" y="175.5"/>
      <point x="405.5" y="251.0"/>
      <point x="405.5" y="343.5" type="curve" smooth="yes"/>
      <point x="405.5" y="491.0"/>
      <point x="318.5" y="664.0"/>
      <point x="220.5" y="664.0" type="curve" smooth="yes"/>
      <point x="141.0" y="664.0"/>
      <point x="45.0" y="479.5"/>
      <point x="45.0" y="334.5" type="curve" smooth="yes"/>
      <point x="45.0" y="225.5"/>
      <point x="114.0" y="175.5"/>
    </contour>
    <contour>
      <point x="225.5" y="237.0" type="curve" smooth="yes"/>
      <point x="146.0" y="237.0"/>
      <point x="97.5" y="273.0"/>
      <point x="97.5" y="340.0" type="curve" smooth="yes"/>
      <point x="97.5" y="450.5"/>
      <point x="166.0" y="602.5"/>
      <point x="216.5" y="602.5" type="curve" smooth="yes"/>
      <point x="295.0" y="602.5"/>
      <point x="352.0" y="453.5"/>
      <point x="352.0" y="345.5" type="curve" smooth="yes"/>
      <point x="352.0" y="281.5"/>
      <point x="311.0" y="237.0"/>
    </contour>
  </outline>
</glyph>
<glyph name="uni0666" format="2">
  <advance width="465.0"/>
  <unicode hex="0666"/>
  <outline>
    <contour>
      <point x="392.0" y="140.5" type="curve" smooth="yes"/>
      <point x="410.5" y="140.5"/>
      <point x="430.0" y="153.5"/>
      <point x="430.0" y="171.0" type="curve" smooth="yes"/>
      <point x="430.0" y="181.5"/>
      <point x="427.0" y="193.0"/>
      <point x="416.5" y="210.5" type="curve" smooth="yes"/>
      <point x="399.5" y="238.5"/>
      <point x="381.0" y="282.0"/>
      <point x="364.5" y="342.0" type="curve" smooth="yes"/>
      <point x="342.5" y="419.0"/>
      <point x="329.0" y="507.0"/>
      <point x="329.0" y="574.0" type="curve" smooth="yes"/>
      <point x="329.0" y="607.0"/>
      <point x="330.0" y="629.5"/>
      <point x="331.5" y="646.5" type="curve" smooth="yes"/>
      <point x="333.0" y="664.0"/>
      <point x="334.5" y="680.0"/>
      <point x="334.5" y="687.5" type="curve" smooth="yes"/>
      <point x="334.5" y="701.0"/>
      <point x="325.0" y="708.5"/>
      <point x="312.5" y="708.5" type="curve" smooth="yes"/>
      <point x="300.0" y="708.5"/>
      <point x="292.0" y="701.5"/>
      <point x="286.0" y="688.5" type="curve"/>
      <point x="267.5" y="674.0"/>
      <point x="228.0" y="661.0"/>
      <point x="182.0" y="661.0" type="curve" smooth="yes"/>
      <point x="142.5" y="661.0"/>
      <point x="115.0" y="667.5"/>
      <point x="87.0" y="680.0" type="curve" smooth="yes"/>
      <point x="64.5" y="690.0"/>
      <point x="52.0" y="697.0"/>
      <point x="41.5" y="697.0" type="curve" smooth="yes"/>
      <point x="29.0" y="697.0"/>
      <point x="19.0" y="688.0"/>
      <point x="19.0" y="670.0" type="curve" smooth="yes"/>
      <point x="19.0" y="652.0"/>
      <point x="27.0" y="638.0"/>
      <point x="46.0" y="628.0" type="curve" smooth="yes"/>
      <point x="75.5" y="613.0"/>
      <point x="122.0" y="606.0"/>
      <point x="161.5" y="606.0" type="curve" smooth="yes"/>
      <point x="205.0" y="606.0"/>
      <point x="246.0" y="616.0"/>
      <point x="275.5" y="630.5" type="curve"/>
      <point x="273.5" y="612.5"/>
      <point x="271.5" y="590.5"/>
      <point x="271.5" y="570.5" type="curve" smooth="yes"/>
      <point x="271.5" y="501.5"/>
      <point x="283.0" y="391.0"/>
      <point x="305.0" y="306.5" type="curve" smooth="yes"/>
      <point x="321.5" y="238.5"/>
      <point x="347.0" y="176.0"/>
      <point x="361.0" y="156.5" type="curve" smooth="yes"/>
      <point x="370.0" y="144.0"/>
      <point x="382.5" y="140.5"/>
    </contour>
  </outline>
</glyph>
<glyph name="uni0667" format="2">
  <advance width="449.5"/>
  <unicode hex="0667"/>
  <outline>
    <contour>
      <point x="266.5" y="190.5" type="curve" smooth="yes"/>
      <point x="304.0" y="352.5"/>
      <point x="374.5" y="539.5"/>
      <point x="419.0" y="628.5" type="curve" smooth="yes"/>
      <point x="425.0" y="640.5"/>
      <point x="429.0" y="650.0"/>
      <point x="429.0" y="658.0" type="curve" smooth="yes"/>
      <point x="429.0" y="668.5"/>
      <point x="414.5" y="681.0"/>
      <point x="389.0" y="681.0" type="curve" smooth="yes"/>
      <point x="373.5" y="681.0"/>
      <point x="364.5" y="668.5"/>
      <point x="358.5" y="655.0" type="curve" smooth="yes"/>
      <point x="311.5" y="551.5"/>
      <point x="264.5" y="414.5"/>
      <point x="231.0" y="239.0" type="curve"/>
      <point x="185.5" y="463.0"/>
      <point x="119.0" y="623.0"/>
      <point x="87.5" y="661.0" type="curve" smooth="yes"/>
      <point x="80.5" y="669.0"/>
      <point x="73.5" y="673.5"/>
      <point x="59.0" y="673.5" type="curve" smooth="yes"/>
      <point x="38.5" y="673.5"/>
      <point x="20.5" y="661.5"/>
      <point x="20.5" y="649.5" type="curve" smooth="yes"/>
      <point x="20.5" y="642.5"/>
      <point x="23.0" y="638.0"/>
      <point x="29.0" y="629.0" type="curve" smooth="yes"/>
      <point x="59.5" y="585.5"/>
      <point x="136.0" y="426.5"/>
      <point x="193.0" y="189.5" type="curve" smooth="yes"/>
      <point x="199.5" y="163.5"/>
      <point x="211.0" y="150.0"/>
      <point x="227.0" y="150.0" type="curve" smooth="yes"/>
      <point x="248.0" y="150.0"/>
      <point x="258.5" y="157.0"/>
    </contour>
  </outline>
</glyph>
<glyph name="uni0668" format="2">
  <advance width="449.5"/>
  <unicode hex="0668"/>
  <outline>
    <contour>
      <point x="60.5" y="150.0" type="curve" smooth="yes"/>
      <point x="76.0" y="150.0"/>
      <point x="85.5" y="163.0"/>
      <point x="91.5" y="176.5" type="curve" smooth="yes"/>
      <point x="138.0" y="280.0"/>
      <point x="185.0" y="417.0"/>
      <point x="219.0" y="592.5" type="curve"/>
      <point x="264.0" y="368.5"/>
      <point x="331.0" y="208.5"/>
      <point x="362.5" y="170.0" type="curve" smooth="yes"/>
      <point x="369.5" y="161.5"/>
      <point x="376.0" y="158.0"/>
      <point x="391.0" y="158.0" type="curve" smooth="yes"/>
      <point x="411.5" y="158.0"/>
      <point x="429.0" y="170.0"/>
      <point x="429.0" y="182.0" type="curve" smooth="yes"/>
      <point x="429.0" y="189.0"/>
      <point x="426.5" y="194.0"/>
      <point x="421.0" y="202.5" type="curve" smooth="yes"/>
      <point x="389.5" y="247.0"/>
      <point x="314.5" y="402.5"/>
      <point x="256.5" y="641.5" type="curve" smooth="yes"/>
      <point x="249.5" y="669.5"/>
      <point x="239.0" y="681.0"/>
      <point x="222.5" y="681.0" type="curve" smooth="yes"/>
      <point x="201.0" y="681.0"/>
      <point x="190.5" y="673.0"/>
      <point x="182.0" y="637.5" type="curve" smooth="yes"/>
      <point x="146.0" y="479.0"/>
      <point x="77.5" y="291.0"/>
      <point x="30.5" y="202.5" type="curve" smooth="yes"/>
      <point x="24.0" y="190.5"/>
      <point x="20.5" y="180.5"/>
      <point x="20.5" y="173.5" type="curve" smooth="yes"/>
      <point x="20.5" y="163.0"/>
      <point x="35.0" y="150.0"/>
    </contour>
  </outline>
</glyph>
<glyph name="uni0669" format="2">
  <advance width="454.0"/>
  <unicode hex="0669"/>
  <outline>
    <contour>
      <point x="395.0" y="138.5" type="curve" smooth="yes"/>
      <point x="414.5" y="138.5"/>
      <point x="428.0" y="148.5"/>
      <point x="428.0" y="168.0" type="curve" smooth="yes"/>
      <point x="428.0" y="173.5"/>
      <point x="427.5" y="180.0"/>
      <point x="423.0" y="186.0" type="curve" smooth="yes"/>
      <point x="399.5" y="211.0"/>
      <point x="389.5" y="231.5"/>
      <point x="377.5" y="272.0" type="curve" smooth="yes"/>
      <point x="361.5" y="322.0"/>
      <point x="350.5" y="376.5"/>
      <point x="340.5" y="478.0" type="curve" smooth="yes"/>
      <point x="323.5" y="654.0"/>
      <point x="234.0" y="697.0"/>
      <point x="170.5" y="697.0" type="curve" smooth="yes"/>
      <point x="104.0" y="697.0"/>
      <point x="35.0" y="637.5"/>
      <point x="35.0" y="546.0" type="curve" smooth="yes"/>
      <point x="35.0" y="454.0"/>
      <point x="104.5" y="397.5"/>
      <point x="187.5" y="397.5" type="curve" smooth="yes"/>
      <point x="232.5" y="397.5"/>
      <point x="262.5" y="408.0"/>
      <point x="287.5" y="422.0" type="curve"/>
      <point x="293.0" y="361.5"/>
      <point x="302.0" y="294.0"/>
      <point x="313.0" y="250.0" type="curve" smooth="yes"/>
      <point x="323.0" y="209.0"/>
      <point x="347.5" y="165.5"/>
      <point x="365.5" y="151.5" type="curve" smooth="yes"/>
      <point x="373.0" y="144.5"/>
      <point x="382.5" y="138.5"/>
    </contour>
    <contour>
      <point x="194.0" y="447.5" type="curve" smooth="yes"/>
      <point x="130.0" y="447.5"/>
      <point x="88.0" y="487.0"/>
      <point x="88.0" y="545.0" type="curve" smooth="yes"/>
      <point x="88.0" y="600.5"/>
      <point x="121.5" y="646.5"/>
      <point x="169.0" y="646.5" type="curve" smooth="yes"/>
      <point x="206.0" y="646.5"/>
      <point x="271.5" y="624.0"/>
      <point x="281.0" y="468.0" type="curve"/>
      <point x="266.0" y="458.0"/>
      <point x="230.0" y="447.5"/>
    </contour>
  </outline>
</glyph>
<glyph name="uni066A" format="2">
  <advance width="499.5"/>
  <unicode hex="066A"/>
  <outline>
    <contour>
      <point x="141.0" y="168.5" type="curve" smooth="yes"/>
      <point x="148.5" y="168.5"/>
      <point x="156.5" y="173.5"/>
      <point x="159.5" y="183.5" type="curve" smooth="yes"/>
      <point x="164.0" y="196.5"/>
      <point x="175.0" y="247.5"/>
      <point x="192.0" y="292.0" type="curve" smooth="yes"/>
      <point x="213.5" y="348.0"/>
      <point x="250.5" y="418.5"/>
      <point x="290.5" y="479.5" type="curve" smooth="yes"/>
      <point x="332.0" y="543.0"/>
      <point x="364.5" y="582.5"/>
      <point x="404.5" y="614.5" type="curve" smooth="yes"/>
      <point x="418.0" y="625.5"/>
      <point x="427.5" y="637.0"/>
      <point x="427.5" y="646.0" type="curve" smooth="yes"/>
      <point x="427.5" y="657.0"/>
      <point x="420.5" y="668.0"/>
      <point x="413.0" y="671.0" type="curve" smooth="yes"/>
      <point x="403.0" y="682.5"/>
      <point x="390.5" y="685.5"/>
      <point x="377.5" y="684.0" type="curve" smooth="yes"/>
      <point x="355.5" y="671.5"/>
      <point x="323.5" y="634.5"/>
      <point x="289.5" y="587.5" type="curve" smooth="yes"/>
      <point x="244.5" y="526.5"/>
      <point x="202.5" y="454.0"/>
      <point x="173.5" y="388.0" type="curve" smooth="yes"/>
      <point x="142.5" y="320.0"/>
      <point x="112.0" y="234.5"/>
      <point x="112.0" y="202.5" type="curve" smooth="yes"/>
      <point x="112.0" y="183.5"/>
      <point x="124.0" y="168.5"/>
    </contour>
    <contour>
      <point x="117.5" y="547.5" type="curve" smooth="yes"/>
      <point x="133.5" y="547.5"/>
      <point x="162.5" y="560.0"/>
      <point x="162.5" y="580.5" type="curve" smooth="yes"/>
      <point x="162.5" y="618.5"/>
      <point x="141.0" y="665.5"/>
      <point x="116.0" y="665.5" type="curve" smooth="yes"/>
      <point x="93.0" y="665.5"/>
      <point x="63.5" y="651.5"/>
      <point x="63.5" y="626.5" type="curve" smooth="yes"/>
      <point x="63.5" y="595.5"/>
      <point x="93.5" y="547.5"/>
    </contour>
    <contour>
      <point x="368.5" y="223.0" type="curve" smooth="yes"/>
      <point x="385.0" y="223.0"/>
      <point x="413.5" y="235.5"/>
      <point x="413.5" y="256.0" type="curve" smooth="yes"/>
      <point x="413.5" y="294.0"/>
      <point x="392.5" y="341.0"/>
      <point x="367.0" y="341.0" type="curve" smooth="yes"/>
      <point x="344.5" y="341.0"/>
      <point x="315.0" y="327.0"/>
      <point x="315.0" y="302.0" type="curve" smooth="yes"/>
      <point x="315.0" y="271.0"/>
      <point x="345.0" y="223.0"/>
    </contour>
  </outline>
</glyph>
<glyph name="uni066B" format="2">
  <advance width="262.0"/>
  <unicode hex="066B"/>
  <outline>
    <contour>
      <point x="88.5" y="44.5" type="curve" smooth="yes"/>
      <point x="100.5" y="44.5"/>
      <point x="113.0" y="56.0"/>
      <point x="127.0" y="72.0" type="curve" smooth="yes"/>
      <point x="147.5" y="91.0"/>
      <point x="201.0" y="167.0"/>
      <point x="201.0" y="208.0" type="curve" smooth="yes"/>
      <point x="201.0" y="243.5"/>
      <point x="179.5" y="259.5"/>
      <point x="151.0" y="259.5" type="curve" smooth="yes"/>
      <point x="116.5" y="259.5"/>
      <point x="88.0" y="232.0"/>
      <point x="88.0" y="201.5" type="curve" smooth="yes"/>
      <point x="88.0" y="178.5"/>
      <point x="107.5" y="160.0"/>
      <point x="135.5" y="156.5" type="curve"/>
      <point x="123.0" y="122.0"/>
      <point x="100.0" y="95.0"/>
      <point x="85.0" y="79.0" type="curve" smooth="yes"/>
      <point x="77.0" y="70.0"/>
      <point x="73.0" y="65.5"/>
      <point x="73.0" y="58.0" type="curve" smooth="yes"/>
      <point x="73.0" y="54.5"/>
      <point x="76.0" y="44.5"/>
    </contour>
  </outline>
</glyph>
<glyph name="uni066C" format="2">
  <advance width="262.0"/>
  <unicode hex="066C"/>
  <outline>
    <contour>
      <point x="173.5" y="361.5" type="curve" smooth="yes"/>
      <point x="161.5" y="361.5"/>
      <point x="149.0" y="350.0"/>
      <point x="135.0" y="334.0" type="curve" smooth="yes"/>
      <point x="114.5" y="315.0"/>
      <point x="61.0" y="239.0"/>
      <point x="61.0" y="198.0" type="curve" smooth="yes"/>
      <point x="61.0" y="162.5"/>
      <point x="82.5" y="146.5"/>
      <point x="111.0" y="146.5" type="curve" smooth="yes"/>
      <point x="145.5" y="146.5"/>
      <point x="174.0" y="174.0"/>
      <point x="174.0" y="204.5" type="curve" smooth="yes"/>
      <point x="174.0" y="227.5"/>
      <point x="154.5" y="246.0"/>
      <point x="126.5" y="249.5" type="curve"/>
      <point x="139.0" y="284.0"/>
      <point x="162.0" y="311.0"/>
      <point x="177.0" y="327.0" type="curve" smooth="yes"/>
      <point x="185.0" y="336.0"/>
      <point x="189.0" y="340.5"/>
      <point x="189.0" y="348.0" type="curve" smooth="yes"/>
      <point x="189.0" y="351.5"/>
      <point x="186.0" y="361.5"/>
    </contour>
  </outline>
</glyph>
<glyph name="uni0780" format="2">
  <advance width="529.0"/>
  <unicode hex="0780"/>
  <outline>
    <contour>
      <point x="58.5" y="-8.5" type="curve" smooth="yes"/>
      <point x="80.0" y="-8.5"/>
      <point x="145.5" y="11.5"/>
      <point x="220.0" y="56.5" type="curve" smooth="yes"/>
      <point x="322.0" y="118.0"/>
      <point x="443.5" y="223.0"/>
      <point x="489.5" y="288.5" type="curve" smooth="yes"/>
      <point x="501.5" y="305.5"/>
      <point x="506.0" y="316.0"/>
      <point x="506.0" y="324.5" type="curve" smooth="yes"/>
      <point x="506.0" y="334.5"/>
      <point x="501.5" y="344.5"/>
      <point x="487.0" y="344.5" type="curve" smooth="yes"/>
      <point x="476.0" y="344.5"/>
      <point x="465.0" y="336.0"/>
      <point x="451.0" y="320.0" type="curve" smooth="yes"/>
      <point x="368.0" y="227.0"/>
      <point x="301.5" y="178.5"/>
      <point x="188.5" y="114.5" type="curve" smooth="yes"/>
      <point x="149.0" y="92.0"/>
      <point x="94.0" y="70.0"/>
      <point x="47.5" y="60.0" type="curve" smooth="yes"/>
      <point x="30.0" y="55.5"/>
      <point x="20.5" y="40.0"/>
      <point x="20.5" y="24.0" type="curve" smooth="yes"/>
      <point x="20.5" y="3.5"/>
      <point x="35.5" y="-8.5"/>
    </contour>
  </outline>
</glyph>
<glyph name="uni0781" format="2">
  <advance width="650.5"/>
  <unicode hex="0781"/>
  <outline>
    <contour>
      <point x="-15.0" y="-79.0" type="curve" smooth="yes"/>
      <point x="10.5" y="-79.0"/>
      <point x="85.5" y="-46.0"/>
      <point x="153.5" y="5.0" type="curve" smooth="yes"/>
      <point x="210.0" y="47.5"/>
      <point x="289.0" y="127.0"/>
      <point x="349.0" y="205.5" type="curve"/>
      <point x="357.0" y="204.0"/>
      <point x="365.0" y="204.0"/>
      <point x="373.0" y="204.0" type="curve" smooth="yes"/>
      <point x="466.5" y="204.0"/>
      <point x="553.0" y="246.0"/>
      <point x="604.0" y="288.5" type="curve" smooth="yes"/>
      <point x="625.0" y="306.0"/>
      <point x="636.5" y="323.0"/>
      <point x="636.5" y="339.0" type="curve" smooth="yes"/>
      <point x="636.5" y="347.5"/>
      <point x="630.5" y="360.0"/>
      <point x="613.5" y="360.0" type="curve" smooth="yes"/>
      <point x="599.0" y="360.0"/>
      <point x="579.5" y="337.5"/>
      <point x="565.5" y="327.0" type="curve" smooth="yes"/>
      <point x="515.5" y="289.0"/>
      <point x="466.0" y="265.0"/>
      <point x="401.0" y="265.5" type="curve"/>
      <point x="389.5" y="286.0"/>
      <point x="366.0" y="306.0"/>
      <point x="338.5" y="306.0" type="curve" smooth="yes"/>
      <point x="301.0" y="306.0"/>
      <point x="280.5" y="284.5"/>
      <point x="280.5" y="258.0" type="curve" smooth="yes"/>
      <point x="280.5" y="246.0"/>
      <point x="287.0" y="235.0"/>
      <point x="298.0" y="226.0" type="curve"/>
      <point x="249.5" y="166.0"/>
      <point x="189.0" y="106.0"/>
      <point x="121.5" y="59.0" type="curve" smooth="yes"/>
      <point x="72.0" y="23.0"/>
      <point x="19.0" y="4.0"/>
      <point x="-19.5" y="-8.0" type="curve" smooth="yes"/>
      <point x="-41.5" y="-15.0"/>
      <point x="-51.5" y="-26.0"/>
      <point x="-51.5" y="-43.5" type="curve" smooth="yes"/>
      <point x="-51.5" y="-64.5"/>
      <point x="-39.5" y="-79.0"/>
    </contour>
  </outline>
</glyph>
<glyph name="uni0782" format="2">
  <advance width="809.0"/>
  <unicode hex="0782"/>
  <outline>
    <contour>
      <point x="-15.0" y="-79.0" type="curve" smooth="yes"/>
      <point x="2.0" y="-79.0"/>
      <point x="44.5" y="-65.0"/>
      <point x="99.0" y="-30.0" type="curve" smooth="yes"/>
      <point x="189.0" y="23.5"/>
      <point x="274.5" y="106.5"/>
      <point x="349.0" y="205.0" type="curve"/>
      <point x="357.0" y="204.0"/>
      <point x="364.0" y="204.0"/>
      <point x="371.5" y="204.0" type="curve" smooth="yes"/>
      <point x="427.5" y="204.0"/>
      <point x="468.0" y="220.5"/>
      <point x="503.5" y="239.0" type="curve"/>
      <point x="526.5" y="207.5"/>
      <point x="557.5" y="195.0"/>
      <point x="594.0" y="195.0" type="curve" smooth="yes"/>
      <point x="673.5" y="195.0"/>
      <point x="751.5" y="253.0"/>
      <point x="789.0" y="299.5" type="curve" smooth="yes"/>
      <point x="802.0" y="316.0"/>
      <point x="809.5" y="331.0"/>
      <point x="809.5" y="345.0" type="curve" smooth="yes"/>
      <point x="809.5" y="358.5"/>
      <point x="804.5" y="370.0"/>
      <point x="787.0" y="370.0" type="curve" smooth="yes"/>
      <point x="773.0" y="370.0"/>
      <point x="763.5" y="357.5"/>
      <point x="749.0" y="341.0" type="curve" smooth="yes"/>
      <point x="706.0" y="294.5"/>
      <point x="657.5" y="247.0"/>
      <point x="600.5" y="247.0" type="curve" smooth="yes"/>
      <point x="582.0" y="247.0"/>
      <point x="565.5" y="252.0"/>
      <point x="553.0" y="273.0" type="curve"/>
      <point x="560.5" y="282.5"/>
      <point x="566.5" y="297.0"/>
      <point x="566.5" y="308.5" type="curve" smooth="yes"/>
      <point x="566.5" y="326.0"/>
      <point x="560.5" y="338.5"/>
      <point x="541.5" y="338.5" type="curve" smooth="yes"/>
      <point x="530.0" y="338.5"/>
      <point x="520.0" y="328.5"/>
      <point x="507.0" y="314.0" type="curve" smooth="yes"/>
      <point x="479.0" y="286.5"/>
      <point x="448.5" y="266.5"/>
      <point x="405.0" y="265.0" type="curve"/>
      <point x="392.5" y="287.5"/>
      <point x="365.5" y="306.0"/>
      <point x="339.0" y="306.0" type="curve" smooth="yes"/>
      <point x="302.5" y="306.0"/>
      <point x="280.5" y="284.0"/>
      <point x="280.5" y="257.5" type="curve" smooth="yes"/>
      <point x="280.5" y="245.5"/>
      <point x="287.0" y="234.5"/>
      <point x="298.0" y="226.0" type="curve"/>
      <point x="209.5" y="115.5"/>
      <point x="111.5" y="33.0"/>
      <point x="-19.5" y="-8.0" type="curve" smooth="yes"/>
      <point x="-41.5" y="-14.5"/>
      <point x="-51.5" y="-26.0"/>
      <point x="-51.5" y="-43.5" type="curve" smooth="yes"/>
      <point x="-51.5" y="-64.5"/>
      <point x="-39.5" y="-79.0"/>
    </contour>
  </outline>
</glyph>
<glyph name="uni0783" format="2">
  <advance width="649.0"/>
  <unicode hex="0783"/>
  <outline>
    <contour>
      <point x="-17.0" y="-75.0" type="curve" smooth="yes"/>
      <point x="6.5" y="-75.0"/>
      <point x="76.5" y="-51.5"/>
      <point x="149.0" y="-9.0" type="curve" smooth="yes"/>
      <point x="224.0" y="35.0"/>
      <point x="314.0" y="120.0"/>
      <point x="399.0" y="199.0" type="curve"/>
      <point x="445.5" y="180.5"/>
      <point x="502.0" y="167.0"/>
      <point x="550.5" y="167.0" type="curve" smooth="yes"/>
      <point x="578.0" y="167.0"/>
      <point x="599.0" y="175.5"/>
      <point x="599.0" y="192.5" type="curve" smooth="yes"/>
      <point x="599.0" y="211.5"/>
      <point x="583.0" y="220.0"/>
      <point x="547.5" y="221.5" type="curve" smooth="yes"/>
      <point x="514.0" y="223.5"/>
      <point x="477.5" y="233.0"/>
      <point x="452.5" y="242.0" type="curve"/>
      <point x="502.5" y="285.5"/>
      <point x="547.0" y="318.5"/>
      <point x="592.0" y="339.0" type="curve" smooth="yes"/>
      <point x="612.0" y="349.0"/>
      <point x="629.5" y="360.0"/>
      <point x="629.5" y="372.0" type="curve" smooth="yes"/>
      <point x="629.5" y="387.5"/>
      <point x="616.0" y="390.5"/>
      <point x="606.0" y="390.5" type="curve" smooth="yes"/>
      <point x="570.0" y="390.5"/>
      <point x="488.0" y="349.5"/>
      <point x="404.0" y="274.5" type="curve"/>
      <point x="364.0" y="300.0"/>
      <point x="348.0" y="313.5"/>
      <point x="325.5" y="313.5" type="curve" smooth="yes"/>
      <point x="300.0" y="313.5"/>
      <point x="291.0" y="294.5"/>
      <point x="291.0" y="280.0" type="curve" smooth="yes"/>
      <point x="291.0" y="265.0"/>
      <point x="306.5" y="248.5"/>
      <point x="348.5" y="224.0" type="curve"/>
      <point x="278.5" y="159.0"/>
      <point x="206.5" y="95.0"/>
      <point x="113.0" y="46.0" type="curve" smooth="yes"/>
      <point x="60.5" y="17.5"/>
      <point x="21.0" y="5.5"/>
      <point x="-25.5" y="-5.0" type="curve" smooth="yes"/>
      <point x="-45.0" y="-10.0"/>
      <point x="-56.0" y="-20.5"/>
      <point x="-56.0" y="-39.0" type="curve" smooth="yes"/>
      <point x="-56.0" y="-61.0"/>
      <point x="-41.5" y="-75.0"/>
    </contour>
  </outline>
</glyph>
<glyph name="uni0784" format="2">
  <advance width="712.0"/>
  <unicode hex="0784"/>
  <outline>
    <contour>
      <point x="273.5" y="-10.5" type="curve" smooth="yes"/>
      <point x="495.5" y="-10.5"/>
      <point x="664.0" y="123.5"/>
      <point x="664.0" y="249.5" type="curve" smooth="yes"/>
      <point x="664.0" y="300.0"/>
      <point x="626.5" y="345.0"/>
      <point x="549.5" y="345.0" type="curve" smooth="yes"/>
      <point x="482.5" y="345.0"/>
      <point x="429.5" y="313.5"/>
      <point x="383.5" y="274.0" type="curve"/>
      <point x="351.0" y="296.0"/>
      <point x="311.0" y="311.0"/>
      <point x="260.5" y="311.0" type="curve" smooth="yes"/>
      <point x="142.0" y="311.0"/>
      <point x="64.5" y="236.0"/>
      <point x="64.5" y="141.0" type="curve" smooth="yes"/>
      <point x="64.5" y="49.0"/>
      <point x="152.0" y="-10.5"/>
    </contour>
    <contour>
      <point x="221.0" y="50.0" type="curve"/>
      <point x="174.0" y="58.5"/>
      <point x="125.5" y="90.0"/>
      <point x="125.5" y="145.5" type="curve" smooth="yes"/>
      <point x="125.5" y="204.0"/>
      <point x="179.0" y="256.0"/>
      <point x="256.5" y="256.0" type="curve" smooth="yes"/>
      <point x="285.0" y="256.0"/>
      <point x="317.5" y="249.0"/>
      <point x="341.0" y="234.5" type="curve"/>
      <point x="292.5" y="179.0"/>
      <point x="248.5" y="106.0"/>
    </contour>
    <contour>
      <point x="278.0" y="44.0" type="curve"/>
      <point x="356.5" y="201.5"/>
      <point x="453.0" y="290.5"/>
      <point x="538.5" y="290.5" type="curve" smooth="yes"/>
      <point x="583.0" y="290.5"/>
      <point x="603.0" y="269.0"/>
      <point x="603.0" y="239.5" type="curve" smooth="yes"/>
      <point x="603.0" y="168.0"/>
      <point x="488.5" y="49.0"/>
    </contour>
  </outline>
</glyph>
<glyph name="uni0785" format="2">
  <advance width="545.0"/>
  <unicode hex="0785"/>
  <outline>
    <contour>
      <point x="1.0" y="-72.5" type="curve" smooth="yes"/>
      <point x="56.0" y="-72.5"/>
      <point x="177.0" y="-10.0"/>
      <point x="282.5" y="60.5" type="curve" smooth="yes"/>
      <point x="368.0" y="116.5"/>
      <point x="466.5" y="201.5"/>
      <point x="505.5" y="253.5" type="curve" smooth="yes"/>
      <point x="516.0" y="268.0"/>
      <point x="521.5" y="278.5"/>
      <point x="521.5" y="288.0" type="curve" smooth="yes"/>
      <point x="521.5" y="297.0"/>
      <point x="519.0" y="307.5"/>
      <point x="502.5" y="307.5" type="curve" smooth="yes"/>
      <point x="493.0" y="307.5"/>
      <point x="482.5" y="299.0"/>
      <point x="467.5" y="283.5" type="curve" smooth="yes"/>
      <point x="447.5" y="263.0"/>
      <point x="420.0" y="233.5"/>
      <point x="387.5" y="205.5" type="curve"/>
      <point x="345.5" y="213.0"/>
      <point x="309.0" y="238.0"/>
      <point x="309.0" y="276.5" type="curve" smooth="yes"/>
      <point x="309.0" y="308.5"/>
      <point x="328.0" y="328.0"/>
      <point x="349.0" y="338.5" type="curve" smooth="yes"/>
      <point x="365.5" y="349.0"/>
      <point x="375.0" y="357.0"/>
      <point x="375.0" y="367.5" type="curve" smooth="yes"/>
      <point x="375.0" y="383.5"/>
      <point x="362.0" y="390.0"/>
      <point x="348.5" y="390.0" type="curve" smooth="yes"/>
      <point x="337.0" y="390.0"/>
      <point x="323.5" y="386.0"/>
      <point x="309.0" y="377.0" type="curve" smooth="yes"/>
      <point x="279.5" y="359.0"/>
      <point x="250.5" y="328.0"/>
      <point x="250.5" y="277.5" type="curve" smooth="yes"/>
      <point x="250.5" y="222.0"/>
      <point x="294.0" y="182.5"/>
      <point x="338.0" y="167.0" type="curve"/>
      <point x="292.0" y="132.5"/>
      <point x="243.0" y="99.5"/>
      <point x="192.0" y="71.5" type="curve" smooth="yes"/>
      <point x="119.5" y="31.5"/>
      <point x="61.0" y="9.5"/>
      <point x="-1.5" y="-1.5" type="curve" smooth="yes"/>
      <point x="-21.5" y="-4.5"/>
      <point x="-36.5" y="-17.0"/>
      <point x="-36.5" y="-36.0" type="curve" smooth="yes"/>
      <point x="-36.5" y="-58.5"/>
      <point x="-22.5" y="-72.5"/>
    </contour>
  </outline>
</glyph>
<glyph name="uni0786" format="2">
  <advance width="550.0"/>
  <unicode hex="0786"/>
  <outline>
    <contour>
      <point x="68.5" y="-8.5" type="curve" smooth="yes"/>
      <point x="104.0" y="-8.5"/>
      <point x="192.5" y="22.5"/>
      <point x="273.5" y="75.0" type="curve" smooth="yes"/>
      <point x="351.5" y="124.5"/>
      <point x="456.5" y="212.5"/>
      <point x="509.0" y="281.5" type="curve" smooth="yes"/>
      <point x="520.0" y="296.5"/>
      <point x="526.0" y="309.5"/>
      <point x="526.0" y="320.0" type="curve" smooth="yes"/>
      <point x="526.0" y="335.0"/>
      <point x="518.0" y="344.5"/>
      <point x="503.0" y="344.5" type="curve" smooth="yes"/>
      <point x="487.5" y="344.5"/>
      <point x="476.0" y="333.5"/>
      <point x="462.0" y="314.5" type="curve" smooth="yes"/>
      <point x="413.0" y="256.5"/>
      <point x="333.5" y="172.0"/>
      <point x="240.5" y="117.0" type="curve" smooth="yes"/>
      <point x="194.0" y="90.0"/>
      <point x="163.0" y="78.0"/>
      <point x="130.0" y="70.0" type="curve"/>
      <point x="196.0" y="182.0"/>
      <point x="217.5" y="235.0"/>
      <point x="217.5" y="277.5" type="curve" smooth="yes"/>
      <point x="217.5" y="304.0"/>
      <point x="207.0" y="314.5"/>
      <point x="185.5" y="314.5" type="curve" smooth="yes"/>
      <point x="158.5" y="314.5"/>
      <point x="152.0" y="292.0"/>
      <point x="149.5" y="274.0" type="curve" smooth="yes"/>
      <point x="143.0" y="219.5"/>
      <point x="129.0" y="172.0"/>
      <point x="55.5" y="59.5" type="curve" smooth="yes"/>
      <point x="40.5" y="37.0"/>
      <point x="36.0" y="29.0"/>
      <point x="36.0" y="18.0" type="curve" smooth="yes"/>
      <point x="36.0" y="3.0"/>
      <point x="50.5" y="-8.5"/>
    </contour>
  </outline>
</glyph>
<glyph name="uni0787" format="2">
  <advance width="533.0"/>
  <unicode hex="0787"/>
  <outline>
    <contour>
      <point x="-12.5" y="-8.5" type="curve" smooth="yes"/>
      <point x="17.5" y="-8.5"/>
      <point x="79.0" y="16.5"/>
      <point x="149.0" y="57.5" type="curve" smooth="yes"/>
      <point x="240.0" y="111.0"/>
      <point x="356.0" y="206.5"/>
      <point x="415.0" y="278.0" type="curve"/>
      <point x="408.5" y="205.0"/>
      <point x="387.5" y="141.5"/>
      <point x="345.5" y="71.5" type="curve" smooth="yes"/>
      <point x="329.5" y="45.0"/>
      <point x="322.5" y="35.5"/>
      <point x="322.5" y="24.0" type="curve" smooth="yes"/>
      <point x="322.5" y="8.5"/>
      <point x="334.5" y="-1.0"/>
      <point x="352.0" y="-1.0" type="curve" smooth="yes"/>
      <point x="366.0" y="-1.0"/>
      <point x="380.5" y="10.0"/>
      <point x="395.5" y="36.5" type="curve" smooth="yes"/>
      <point x="435.5" y="96.5"/>
      <point x="472.0" y="204.0"/>
      <point x="472.0" y="295.5" type="curve" smooth="yes"/>
      <point x="472.0" y="326.5"/>
      <point x="462.0" y="349.0"/>
      <point x="433.5" y="349.0" type="curve" smooth="yes"/>
      <point x="407.5" y="349.0"/>
      <point x="377.0" y="316.5"/>
      <point x="360.0" y="298.0" type="curve" smooth="yes"/>
      <point x="285.0" y="219.5"/>
      <point x="213.5" y="162.0"/>
      <point x="121.5" y="114.0" type="curve" smooth="yes"/>
      <point x="61.0" y="82.0"/>
      <point x="27.5" y="72.0"/>
      <point x="-21.0" y="60.0" type="curve" smooth="yes"/>
      <point x="-40.5" y="54.5"/>
      <point x="-51.5" y="43.5"/>
      <point x="-51.5" y="25.0" type="curve" smooth="yes"/>
      <point x="-51.5" y="3.5"/>
      <point x="-37.0" y="-8.5"/>
    </contour>
  </outline>
</glyph>
<glyph name="uni0788" format="2">
  <advance width="538.0"/>
  <unicode hex="0788"/>
  <outline>
    <contour>
      <point x="-14.0" y="-84.5" type="curve" smooth="yes"/>
      <point x="11.5" y="-84.5"/>
      <point x="99.5" y="-51.0"/>
      <point x="183.5" y="0.5" type="curve" smooth="yes"/>
      <point x="268.0" y="52.5"/>
      <point x="384.5" y="151.0"/>
      <point x="435.5" y="209.0" type="curve" smooth="yes"/>
      <point x="470.5" y="249.0"/>
      <point x="487.5" y="286.0"/>
      <point x="487.5" y="322.5" type="curve" smooth="yes"/>
      <point x="487.5" y="372.0"/>
      <point x="447.0" y="391.0"/>
      <point x="394.5" y="391.0" type="curve" smooth="yes"/>
      <point x="288.5" y="391.0"/>
      <point x="189.0" y="308.0"/>
      <point x="189.0" y="228.5" type="curve" smooth="yes"/>
      <point x="189.0" y="188.0"/>
      <point x="223.0" y="156.0"/>
      <point x="282.0" y="143.5" type="curve"/>
      <point x="252.5" y="122.5"/>
      <point x="193.0" y="80.0"/>
      <point x="131.0" y="46.5" type="curve" smooth="yes"/>
      <point x="60.5" y="7.0"/>
      <point x="21.0" y="-5.5"/>
      <point x="-22.5" y="-14.5" type="curve" smooth="yes"/>
      <point x="-42.5" y="-19.0"/>
      <point x="-53.0" y="-31.0"/>
      <point x="-53.0" y="-49.5" type="curve" smooth="yes"/>
      <point x="-53.0" y="-71.0"/>
      <point x="-38.5" y="-84.5"/>
    </contour>
    <contour>
      <point x="334.5" y="182.5" type="curve"/>
      <point x="294.0" y="185.5"/>
      <point x="247.0" y="195.0"/>
      <point x="247.0" y="233.5" type="curve" smooth="yes"/>
      <point x="247.0" y="288.0"/>
      <point x="322.0" y="340.0"/>
      <point x="384.0" y="340.0" type="curve" smooth="yes"/>
      <point x="419.0" y="340.0"/>
      <point x="430.5" y="325.5"/>
      <point x="430.5" y="308.0" type="curve" smooth="yes"/>
      <point x="430.5" y="275.0"/>
      <point x="389.5" y="226.0"/>
    </contour>
  </outline>
</glyph>
<glyph name="uni0789" format="2">
  <advance width="518.0"/>
  <unicode hex="0789"/>
  <outline>
    <contour>
      <point x="15.0" y="-20.0" type="curve" smooth="yes"/>
      <point x="29.0" y="-20.0"/>
      <point x="50.0" y="-15.5"/>
      <point x="79.5" y="-7.0" type="curve" smooth="yes"/>
      <point x="122.0" y="5.0"/>
      <point x="179.5" y="28.0"/>
      <point x="232.5" y="58.5" type="curve" smooth="yes"/>
      <point x="307.5" y="101.5"/>
      <point x="409.5" y="174.0"/>
      <point x="452.0" y="231.5" type="curve" smooth="yes"/>
      <point x="473.5" y="260.0"/>
      <point x="485.0" y="284.5"/>
      <point x="485.0" y="307.0" type="curve" smooth="yes"/>
      <point x="485.0" y="359.5"/>
      <point x="405.0" y="376.0"/>
      <point x="312.0" y="376.0" type="curve" smooth="yes"/>
      <point x="243.5" y="376.0"/>
      <point x="191.5" y="367.0"/>
      <point x="163.0" y="359.5" type="curve" smooth="yes"/>
      <point x="127.5" y="350.0"/>
      <point x="113.5" y="338.0"/>
      <point x="113.5" y="323.0" type="curve" smooth="yes"/>
      <point x="113.5" y="307.0"/>
      <point x="123.5" y="295.0"/>
      <point x="141.5" y="295.0" type="curve" smooth="yes"/>
      <point x="157.5" y="295.0"/>
      <point x="183.5" y="304.0"/>
      <point x="211.5" y="310.5" type="curve" smooth="yes"/>
      <point x="242.0" y="317.5"/>
      <point x="277.0" y="324.0"/>
      <point x="315.5" y="324.0" type="curve" smooth="yes"/>
      <point x="380.5" y="324.0"/>
      <point x="415.5" y="314.5"/>
      <point x="415.5" y="298.0" type="curve" smooth="yes"/>
      <point x="415.5" y="279.0"/>
      <point x="396.0" y="244.5"/>
      <point x="340.0" y="200.0" type="curve" smooth="yes"/>
      <point x="244.0" y="120.5"/>
      <point x="155.5" y="82.5"/>
      <point x="76.5" y="61.0" type="curve" smooth="yes"/>
      <point x="46.5" y="53.0"/>
      <point x="26.5" y="49.5"/>
      <point x="6.0" y="45.0" type="curve" smooth="yes"/>
      <point x="-14.0" y="40.5"/>
      <point x="-23.5" y="28.0"/>
      <point x="-23.5" y="11.0" type="curve" smooth="yes"/>
      <point x="-23.5" y="-9.0"/>
      <point x="-11.0" y="-20.0"/>
    </contour>
  </outline>
</glyph>
<glyph name="uni078B" format="2">
  <advance width="634.0"/>
  <unicode hex="078B"/>
  <outline>
    <contour>
      <point x="-20.0" y="-79.0" type="curve" smooth="yes"/>
      <point x="8.0" y="-79.0"/>
      <point x="95.0" y="-43.0"/>
      <point x="150.0" y="-5.0" type="curve" smooth="yes"/>
      <point x="198.5" y="28.5"/>
      <point x="269.5" y="86.0"/>
      <point x="326.5" y="164.0" type="curve"/>
      <point x="342.0" y="160.5"/>
      <point x="357.0" y="159.0"/>
      <point x="380.5" y="159.0" type="curve" smooth="yes"/>
      <point x="480.5" y="159.0"/>
      <point x="582.0" y="223.0"/>
      <point x="582.0" y="310.5" type="curve" smooth="yes"/>
      <point x="582.0" y="349.0"/>
      <point x="560.0" y="377.0"/>
      <point x="527.0" y="389.5" type="curve"/>
      <point x="567.5" y="401.0"/>
      <point x="609.5" y="421.0"/>
      <point x="609.5" y="440.0" type="curve" smooth="yes"/>
      <point x="609.5" y="455.0"/>
      <point x="600.5" y="465.5"/>
      <point x="583.5" y="465.5" type="curve" smooth="yes"/>
      <point x="569.0" y="465.5"/>
      <point x="552.5" y="446.0"/>
      <point x="522.5" y="435.5" type="curve" smooth="yes"/>
      <point x="488.0" y="423.0"/>
      <point x="445.0" y="419.0"/>
      <point x="445.0" y="392.5" type="curve" smooth="yes"/>
      <point x="445.0" y="380.0"/>
      <point x="453.5" y="375.0"/>
      <point x="465.5" y="369.5" type="curve" smooth="yes"/>
      <point x="497.0" y="356.0"/>
      <point x="522.0" y="344.0"/>
      <point x="522.0" y="308.0" type="curve" smooth="yes"/>
      <point x="522.0" y="257.0"/>
      <point x="455.0" y="214.0"/>
      <point x="394.5" y="214.0" type="curve" smooth="yes"/>
      <point x="376.5" y="214.0"/>
      <point x="360.0" y="216.0"/>
      <point x="350.0" y="219.0" type="curve"/>
      <point x="343.0" y="237.0"/>
      <point x="322.0" y="259.0"/>
      <point x="296.0" y="259.0" type="curve" smooth="yes"/>
      <point x="273.0" y="259.0"/>
      <point x="255.0" y="241.5"/>
      <point x="255.0" y="218.5" type="curve" smooth="yes"/>
      <point x="255.0" y="205.5"/>
      <point x="262.5" y="192.5"/>
      <point x="274.0" y="184.5" type="curve"/>
      <point x="227.5" y="121.5"/>
      <point x="163.5" y="76.5"/>
      <point x="119.5" y="48.5" type="curve" smooth="yes"/>
      <point x="84.0" y="26.0"/>
      <point x="22.0" y="4.0"/>
      <point x="-24.5" y="-8.0" type="curve" smooth="yes"/>
      <point x="-46.0" y="-14.5"/>
      <point x="-56.5" y="-26.0"/>
      <point x="-56.5" y="-43.5" type="curve" smooth="yes"/>
      <point x="-56.5" y="-64.5"/>
      <point x="-44.5" y="-79.0"/>
    </contour>
  </outline>
</glyph>
<glyph name="uni078D" format="2">
  <advance width="576.0"/>
  <unicode hex="078D"/>
  <outline>
    <contour>
      <point x="-12.0" y="-81.5" type="curve" smooth="yes"/>
      <point x="12.5" y="-81.5"/>
      <point x="94.5" y="-37.5"/>
      <point x="170.5" y="10.0" type="curve" smooth="yes"/>
      <point x="266.0" y="68.0"/>
      <point x="407.5" y="200.0"/>
      <point x="484.0" y="282.0" type="curve" smooth="yes"/>
      <point x="508.0" y="307.5"/>
      <point x="520.5" y="323.5"/>
      <point x="520.5" y="336.5" type="curve" smooth="yes"/>
      <point x="520.5" y="352.5"/>
      <point x="510.0" y="360.0"/>
      <point x="492.5" y="360.0" type="curve" smooth="yes"/>
      <point x="463.5" y="359.5"/>
      <point x="430.5" y="356.0"/>
      <point x="397.5" y="353.0" type="curve" smooth="yes"/>
      <point x="359.0" y="349.5"/>
      <point x="320.5" y="346.0"/>
      <point x="286.5" y="345.5" type="curve"/>
      <point x="335.0" y="376.0"/>
      <point x="381.0" y="403.0"/>
      <point x="404.0" y="422.5" type="curve" smooth="yes"/>
      <point x="411.0" y="429.5"/>
      <point x="414.0" y="436.5"/>
      <point x="414.0" y="443.5" type="curve" smooth="yes"/>
      <point x="414.0" y="456.0"/>
      <point x="405.0" y="468.0"/>
      <point x="390.0" y="468.0" type="curve" smooth="yes"/>
      <point x="378.0" y="468.0"/>
      <point x="366.5" y="463.5"/>
      <point x="351.5" y="451.0" type="curve" smooth="yes"/>
      <point x="327.5" y="429.0"/>
      <point x="291.0" y="400.5"/>
      <point x="239.0" y="368.5" type="curve" smooth="yes"/>
      <point x="215.0" y="354.0"/>
      <point x="210.0" y="343.0"/>
      <point x="210.0" y="330.5" type="curve" smooth="yes"/>
      <point x="210.0" y="312.0"/>
      <point x="227.0" y="294.5"/>
      <point x="269.5" y="294.5" type="curve" smooth="yes"/>
      <point x="327.0" y="294.5"/>
      <point x="408.5" y="305.5"/>
      <point x="438.5" y="307.0" type="curve"/>
      <point x="376.5" y="247.5"/>
      <point x="245.5" y="130.0"/>
      <point x="166.5" y="79.0" type="curve" smooth="yes"/>
      <point x="89.5" y="32.0"/>
      <point x="19.0" y="0.0"/>
      <point x="-14.0" y="-9.0" type="curve" smooth="yes"/>
      <point x="-40.5" y="-16.0"/>
      <point x="-53.0" y="-27.5"/>
      <point x="-53.0" y="-46.0" type="curve" smooth="yes"/>
      <point x="-53.0" y="-68.5"/>
      <point x="-39.0" y="-81.5"/>
    </contour>
  </outline>
</glyph>
<glyph name="uni078F" format="2">
  <advance width="722.0"/>
  <unicode hex="078F"/>
  <outline>
    <contour>
      <point x="279.0" y="-163.0" type="curve" smooth="yes"/>
      <point x="348.0" y="-163.0"/>
      <point x="416.5" y="-153.5"/>
      <point x="461.0" y="-142.5" type="curve" smooth="yes"/>
      <point x="481.5" y="-137.0"/>
      <point x="495.0" y="-128.0"/>
      <point x="495.0" y="-113.5" type="curve" smooth="yes"/>
      <point x="495.0" y="-97.0"/>
      <point x="486.0" y="-87.5"/>
      <point x="470.0" y="-87.5" type="curve" smooth="yes"/>
      <point x="455.0" y="-87.5"/>
      <point x="441.0" y="-91.0"/>
      <point x="419.5" y="-95.5" type="curve" smooth="yes"/>
      <point x="391.0" y="-101.5"/>
      <point x="358.0" y="-108.0"/>
      <point x="279.5" y="-108.0" type="curve" smooth="yes"/>
      <point x="160.5" y="-108.0"/>
      <point x="114.0" y="-72.0"/>
      <point x="114.0" y="-12.0" type="curve" smooth="yes"/>
      <point x="114.0" y="72.0"/>
      <point x="220.0" y="156.0"/>
      <point x="298.5" y="199.5" type="curve"/>
      <point x="312.0" y="187.5"/>
      <point x="325.5" y="176.5"/>
      <point x="335.5" y="176.5" type="curve" smooth="yes"/>
      <point x="358.0" y="176.5"/>
      <point x="403.0" y="204.0"/>
      <point x="450.0" y="264.5" type="curve"/>
      <point x="459.5" y="201.0"/>
      <point x="489.0" y="168.5"/>
      <point x="519.5" y="168.5" type="curve" smooth="yes"/>
      <point x="551.0" y="168.5"/>
      <point x="583.0" y="190.0"/>
      <point x="637.5" y="241.5" type="curve" smooth="yes"/>
      <point x="677.5" y="279.0"/>
      <point x="707.5" y="309.5"/>
      <point x="707.5" y="339.0" type="curve" smooth="yes"/>
      <point x="707.5" y="352.5"/>
      <point x="699.5" y="361.0"/>
      <point x="684.0" y="361.0" type="curve" smooth="yes"/>
      <point x="670.5" y="361.0"/>
      <point x="661.0" y="355.5"/>
      <point x="652.0" y="344.0" type="curve" smooth="yes"/>
      <point x="644.5" y="334.5"/>
      <point x="637.0" y="321.0"/>
      <point x="614.5" y="293.0" type="curve" smooth="yes"/>
      <point x="582.5" y="253.5"/>
      <point x="546.5" y="222.0"/>
      <point x="528.5" y="222.0" type="curve" smooth="yes"/>
      <point x="512.0" y="222.0"/>
      <point x="496.0" y="270.0"/>
      <point x="492.0" y="319.0" type="curve" smooth="yes"/>
      <point x="490.0" y="339.0"/>
      <point x="483.0" y="345.0"/>
      <point x="472.5" y="345.0" type="curve" smooth="yes"/>
      <point x="465.5" y="345.0"/>
      <point x="458.5" y="339.0"/>
      <point x="450.5" y="329.5" type="curve" smooth="yes"/>
      <point x="420.5" y="292.0"/>
      <point x="369.0" y="243.0"/>
      <point x="351.0" y="243.0" type="curve" smooth="yes"/>
      <point x="339.0" y="243.0"/>
      <point x="310.0" y="284.0"/>
      <point x="294.5" y="309.5" type="curve" smooth="yes"/>
      <point x="284.5" y="326.0"/>
      <point x="278.5" y="334.0"/>
      <point x="267.0" y="334.0" type="curve" smooth="yes"/>
      <point x="240.5" y="334.0"/>
      <point x="216.5" y="311.5"/>
      <point x="216.5" y="293.5" type="curve" smooth="yes"/>
      <point x="216.5" y="283.5"/>
      <point x="221.5" y="274.0"/>
      <point x="229.5" y="265.5" type="curve" smooth="yes"/>
      <point x="243.0" y="248.5"/>
      <point x="251.5" y="240.5"/>
      <point x="262.0" y="230.0" type="curve"/>
      <point x="178.5" y="182.0"/>
      <point x="56.5" y="84.5"/>
      <point x="56.5" y="-17.5" type="curve" smooth="yes"/>
      <point x="56.5" y="-99.5"/>
      <point x="114.5" y="-163.0"/>
    </contour>
  </outline>
</glyph>
<glyph name="uni0791" format="2">
  <advance width="390.0"/>
  <unicode hex="0791"/>
  <outline>
    <contour>
      <point x="255.5" y="-46.0" type="curve" smooth="yes"/>
      <point x="307.0" y="-46.0"/>
      <point x="322.0" y="-32.5"/>
      <point x="322.0" y="-14.0" type="curve" smooth="yes"/>
      <point x="322.0" y="3.5"/>
      <point x="315.0" y="13.5"/>
      <point x="298.0" y="13.5" type="curve" smooth="yes"/>
      <point x="283.0" y="13.5"/>
      <point x="269.0" y="10.0"/>
      <point x="248.0" y="10.0" type="curve" smooth="yes"/>
      <point x="176.0" y="10.0"/>
      <point x="95.0" y="37.0"/>
      <point x="95.0" y="75.0" type="curve" smooth="yes"/>
      <point x="95.0" y="99.5"/>
      <point x="154.0" y="129.5"/>
      <point x="226.0" y="155.5" type="curve" smooth="yes"/>
      <point x="267.5" y="170.5"/>
      <point x="272.5" y="183.0"/>
      <point x="272.5" y="201.0" type="curve" smooth="yes"/>
      <point x="272.5" y="213.5"/>
      <point x="262.0" y="221.5"/>
      <point x="244.0" y="228.0" type="curve" smooth="yes"/>
      <point x="219.0" y="238.0"/>
      <point x="148.0" y="250.0"/>
      <point x="116.5" y="258.5" type="curve"/>
      <point x="134.5" y="275.5"/>
      <point x="185.5" y="309.5"/>
      <point x="209.0" y="326.5" type="curve" smooth="yes"/>
      <point x="222.5" y="336.5"/>
      <point x="229.0" y="344.5"/>
      <point x="229.0" y="353.0" type="curve" smooth="yes"/>
      <point x="229.0" y="363.5"/>
      <point x="221.5" y="373.5"/>
      <point x="205.5" y="373.5" type="curve" smooth="yes"/>
      <point x="191.5" y="373.5"/>
      <point x="175.0" y="365.0"/>
      <point x="154.0" y="350.0" type="curve" smooth="yes"/>
      <point x="123.0" y="327.5"/>
      <point x="88.0" y="300.0"/>
      <point x="65.5" y="277.0" type="curve" smooth="yes"/>
      <point x="52.0" y="263.5"/>
      <point x="47.0" y="254.0"/>
      <point x="47.0" y="245.0" type="curve" smooth="yes"/>
      <point x="47.0" y="232.5"/>
      <point x="58.0" y="225.0"/>
      <point x="72.5" y="221.0" type="curve" smooth="yes"/>
      <point x="113.0" y="209.5"/>
      <point x="166.0" y="202.5"/>
      <point x="201.0" y="193.5" type="curve"/>
      <point x="135.0" y="167.0"/>
      <point x="32.0" y="135.0"/>
      <point x="32.0" y="67.0" type="curve" smooth="yes"/>
      <point x="32.0" y="-4.5"/>
      <point x="161.0" y="-46.0"/>
    </contour>
  </outline>
</glyph>
<glyph name="uni0792" format="2">
  <advance width="570.0"/>
  <unicode hex="0792"/>
  <outline>
    <contour>
      <point x="232.5" y="-153.0" type="curve" smooth="yes"/>
      <point x="294.5" y="-153.0"/>
      <point x="342.0" y="-144.5"/>
      <point x="370.5" y="-137.0" type="curve" smooth="yes"/>
      <point x="401.0" y="-129.0"/>
      <point x="419.0" y="-118.5"/>
      <point x="419.0" y="-102.5" type="curve" smooth="yes"/>
      <point x="419.0" y="-86.0"/>
      <point x="409.5" y="-79.5"/>
      <point x="395.5" y="-79.5" type="curve" smooth="yes"/>
      <point x="384.0" y="-79.5"/>
      <point x="372.5" y="-82.5"/>
      <point x="349.5" y="-87.0" type="curve" smooth="yes"/>
      <point x="322.5" y="-91.5"/>
      <point x="291.5" y="-98.5"/>
      <point x="236.0" y="-98.5" type="curve" smooth="yes"/>
      <point x="151.5" y="-98.5"/>
      <point x="104.0" y="-73.0"/>
      <point x="104.0" y="-32.0" type="curve" smooth="yes"/>
      <point x="104.0" y="28.5"/>
      <point x="203.5" y="103.5"/>
      <point x="303.5" y="160.0" type="curve"/>
      <point x="320.0" y="147.5"/>
      <point x="340.0" y="134.5"/>
      <point x="358.0" y="126.0" type="curve" smooth="yes"/>
      <point x="377.5" y="116.0"/>
      <point x="389.5" y="114.5"/>
      <point x="402.5" y="114.5" type="curve" smooth="yes"/>
      <point x="422.5" y="114.5"/>
      <point x="431.0" y="126.0"/>
      <point x="431.0" y="140.5" type="curve" smooth="yes"/>
      <point x="431.0" y="154.0"/>
      <point x="420.0" y="165.5"/>
      <point x="403.5" y="171.0" type="curve" smooth="yes"/>
      <point x="387.5" y="178.5"/>
      <point x="372.5" y="187.0"/>
      <point x="359.5" y="195.5" type="curve"/>
      <point x="402.0" y="218.5"/>
      <point x="439.0" y="236.5"/>
      <point x="483.0" y="253.5" type="curve" smooth="yes"/>
      <point x="524.5" y="269.0"/>
      <point x="543.0" y="278.0"/>
      <point x="543.0" y="294.5" type="curve" smooth="yes"/>
      <point x="543.0" y="312.5"/>
      <point x="529.5" y="319.0"/>
      <point x="518.5" y="319.0" type="curve" smooth="yes"/>
      <point x="503.0" y="319.0"/>
      <point x="482.0" y="311.5"/>
      <point x="446.5" y="298.0" type="curve" smooth="yes"/>
      <point x="409.0" y="283.0"/>
      <point x="362.0" y="259.5"/>
      <point x="316.0" y="234.0" type="curve"/>
      <point x="308.0" y="241.5"/>
      <point x="297.5" y="252.0"/>
      <point x="291.5" y="259.5" type="curve" smooth="yes"/>
      <point x="280.0" y="275.0"/>
      <point x="273.5" y="282.0"/>
      <point x="259.0" y="282.0" type="curve" smooth="yes"/>
      <point x="240.0" y="282.0"/>
      <point x="230.5" y="264.0"/>
      <point x="230.5" y="249.0" type="curve" smooth="yes"/>
      <point x="230.5" y="237.5"/>
      <point x="241.0" y="218.5"/>
      <point x="258.0" y="198.5" type="curve"/>
      <point x="154.0" y="138.5"/>
      <point x="45.5" y="55.0"/>
      <point x="45.5" y="-38.5" type="curve" smooth="yes"/>
      <point x="45.5" y="-98.5"/>
      <point x="99.5" y="-153.0"/>
    </contour>
  </outline>
</glyph>
<glyph name="uni0793" format="2">
  <advance width="671.0"/>
  <unicode hex="0793"/>
  <outline>
    <contour>
      <point x="257.0" y="-163.0" type="curve" smooth="yes"/>
      <point x="325.0" y="-163.0"/>
      <point x="396.0" y="-156.0"/>
      <point x="445.5" y="-139.0" type="curve" smooth="yes"/>
      <point x="464.0" y="-132.0"/>
      <point x="475.0" y="-122.5"/>
      <point x="475.0" y="-109.0" type="curve" smooth="yes"/>
      <point x="475.0" y="-94.5"/>
      <point x="466.0" y="-86.0"/>
      <point x="450.0" y="-86.0" type="curve" smooth="yes"/>
      <point x="442.0" y="-86.0"/>
      <point x="433.0" y="-88.5"/>
      <point x="411.0" y="-94.0" type="curve" smooth="yes"/>
      <point x="383.0" y="-101.0"/>
      <point x="343.5" y="-108.0"/>
      <point x="261.0" y="-108.0" type="curve" smooth="yes"/>
      <point x="147.5" y="-108.0"/>
      <point x="109.0" y="-78.0"/>
      <point x="109.0" y="-21.0" type="curve" smooth="yes"/>
      <point x="109.0" y="33.0"/>
      <point x="178.0" y="75.5"/>
      <point x="269.5" y="113.5" type="curve"/>
      <point x="285.5" y="111.5"/>
      <point x="303.0" y="110.5"/>
      <point x="323.0" y="110.5" type="curve" smooth="yes"/>
      <point x="491.0" y="110.5"/>
      <point x="638.5" y="197.0"/>
      <point x="638.5" y="295.0" type="curve" smooth="yes"/>
      <point x="638.5" y="344.0"/>
      <point x="605.0" y="382.0"/>
      <point x="536.5" y="382.0" type="curve" smooth="yes"/>
      <point x="472.5" y="382.0"/>
      <point x="426.5" y="351.0"/>
      <point x="387.5" y="317.0" type="curve"/>
      <point x="354.5" y="344.5"/>
      <point x="311.0" y="357.5"/>
      <point x="276.5" y="357.5" type="curve" smooth="yes"/>
      <point x="174.5" y="357.5"/>
      <point x="117.0" y="293.5"/>
      <point x="117.0" y="234.0" type="curve" smooth="yes"/>
      <point x="117.0" y="188.0"/>
      <point x="147.5" y="150.5"/>
      <point x="203.5" y="131.0" type="curve"/>
      <point x="112.0" y="82.5"/>
      <point x="51.5" y="32.5"/>
      <point x="51.5" y="-32.0" type="curve" smooth="yes"/>
      <point x="51.5" y="-108.0"/>
      <point x="110.5" y="-163.0"/>
    </contour>
    <contour>
      <point x="262.5" y="164.5" type="curve"/>
      <point x="214.5" y="171.5"/>
      <point x="173.5" y="194.5"/>
      <point x="173.5" y="234.0" type="curve" smooth="yes"/>
      <point x="173.5" y="267.5"/>
      <point x="206.5" y="307.5"/>
      <point x="274.0" y="307.5" type="curve" smooth="yes"/>
      <point x="305.0" y="307.5"/>
      <point x="331.0" y="298.5"/>
      <point x="350.5" y="281.0" type="curve"/>
      <point x="319.0" y="246.5"/>
      <point x="286.5" y="202.0"/>
    </contour>
    <contour>
      <point x="325.5" y="160.5" type="curve"/>
      <point x="397.0" y="272.5"/>
      <point x="460.0" y="331.5"/>
      <point x="525.5" y="331.5" type="curve" smooth="yes"/>
      <point x="565.5" y="331.5"/>
      <point x="581.5" y="311.0"/>
      <point x="581.5" y="290.5" type="curve" smooth="yes"/>
      <point x="581.5" y="233.5"/>
      <point x="477.0" y="162.5"/>
    </contour>
  </outline>
</glyph>
<glyph name="uni0794" format="2">
  <advance width="703.0"/>
  <unicode hex="0794"/>
  <outline>
    <contour>
      <point x="-13.0" y="-78.0" type="curve" smooth="yes"/>
      <point x="15.0" y="-78.0"/>
      <point x="90.0" y="-45.5"/>
      <point x="164.0" y="4.0" type="curve" smooth="yes"/>
      <point x="233.0" y="49.5"/>
      <point x="322.0" y="139.5"/>
      <point x="392.5" y="227.0" type="curve"/>
      <point x="473.0" y="229.5"/>
      <point x="521.5" y="251.5"/>
      <point x="580.0" y="288.0" type="curve"/>
      <point x="572.0" y="223.0"/>
      <point x="536.0" y="163.0"/>
      <point x="501.5" y="100.0" type="curve" smooth="yes"/>
      <point x="490.0" y="80.0"/>
      <point x="475.5" y="69.0"/>
      <point x="475.5" y="52.5" type="curve" smooth="yes"/>
      <point x="475.5" y="37.5"/>
      <point x="487.5" y="27.5"/>
      <point x="505.0" y="27.5" type="curve" smooth="yes"/>
      <point x="519.0" y="27.5"/>
      <point x="534.0" y="39.5"/>
      <point x="549.0" y="66.0" type="curve" smooth="yes"/>
      <point x="590.5" y="129.5"/>
      <point x="639.0" y="235.5"/>
      <point x="639.0" y="322.5" type="curve" smooth="yes"/>
      <point x="639.0" y="354.0"/>
      <point x="633.0" y="369.0"/>
      <point x="614.5" y="369.0" type="curve" smooth="yes"/>
      <point x="603.0" y="369.0"/>
      <point x="590.5" y="356.0"/>
      <point x="572.5" y="344.0" type="curve" smooth="yes"/>
      <point x="531.5" y="316.0"/>
      <point x="483.5" y="290.5"/>
      <point x="411.5" y="288.0" type="curve"/>
      <point x="400.5" y="309.0"/>
      <point x="377.0" y="328.0"/>
      <point x="349.5" y="328.0" type="curve" smooth="yes"/>
      <point x="315.0" y="328.0"/>
      <point x="295.5" y="304.0"/>
      <point x="295.5" y="277.5" type="curve" smooth="yes"/>
      <point x="295.5" y="260.0"/>
      <point x="309.5" y="244.5"/>
      <point x="332.5" y="236.0" type="curve"/>
      <point x="279.5" y="169.5"/>
      <point x="210.5" y="106.0"/>
      <point x="134.0" y="59.5" type="curve" smooth="yes"/>
      <point x="81.5" y="25.0"/>
      <point x="27.5" y="5.5"/>
      <point x="-17.0" y="-6.5" type="curve" smooth="yes"/>
      <point x="-40.5" y="-12.5"/>
      <point x="-51.5" y="-24.0"/>
      <point x="-51.5" y="-43.5" type="curve" smooth="yes"/>
      <point x="-51.5" y="-63.5"/>
      <point x="-39.0" y="-78.0"/>
    </contour>
  </outline>
</glyph>
<glyph name="uni0795" format="2">
  <advance width="449.0"/>
  <unicode hex="0795"/>
  <outline>
    <contour>
      <point x="-12.0" y="-81.5" type="curve" smooth="yes"/>
      <point x="8.5" y="-81.5"/>
      <point x="83.5" y="-50.5"/>
      <point x="147.0" y="-17.0" type="curve" smooth="yes"/>
      <point x="219.5" y="20.5"/>
      <point x="366.0" y="114.5"/>
      <point x="366.0" y="171.0" type="curve" smooth="yes"/>
      <point x="366.0" y="190.0"/>
      <point x="347.0" y="202.0"/>
      <point x="297.5" y="215.0" type="curve"/>
      <point x="324.0" y="227.5"/>
      <point x="348.0" y="238.5"/>
      <point x="367.0" y="250.0" type="curve" smooth="yes"/>
      <point x="407.5" y="273.0"/>
      <point x="426.0" y="291.0"/>
      <point x="426.0" y="313.5" type="curve" smooth="yes"/>
      <point x="426.0" y="340.0"/>
      <point x="376.0" y="353.5"/>
      <point x="313.0" y="371.0" type="curve"/>
      <point x="350.5" y="390.5"/>
      <point x="386.5" y="409.0"/>
      <point x="405.5" y="421.5" type="curve" smooth="yes"/>
      <point x="415.5" y="429.0"/>
      <point x="420.0" y="437.0"/>
      <point x="420.0" y="444.0" type="curve" smooth="yes"/>
      <point x="420.0" y="456.5"/>
      <point x="410.0" y="468.0"/>
      <point x="396.0" y="468.0" type="curve" smooth="yes"/>
      <point x="375.5" y="468.0"/>
      <point x="361.0" y="447.5"/>
      <point x="309.0" y="419.5" type="curve" smooth="yes"/>
      <point x="259.5" y="392.0"/>
      <point x="240.0" y="385.5"/>
      <point x="240.0" y="365.5" type="curve" smooth="yes"/>
      <point x="240.0" y="353.0"/>
      <point x="247.0" y="345.5"/>
      <point x="271.5" y="338.0" type="curve" smooth="yes"/>
      <point x="320.0" y="323.0"/>
      <point x="359.5" y="315.5"/>
      <point x="359.5" y="304.5" type="curve" smooth="yes"/>
      <point x="359.5" y="294.5"/>
      <point x="329.0" y="280.5"/>
      <point x="293.5" y="265.0" type="curve" smooth="yes"/>
      <point x="255.0" y="248.0"/>
      <point x="218.0" y="229.5"/>
      <point x="218.0" y="214.0" type="curve" smooth="yes"/>
      <point x="218.0" y="202.0"/>
      <point x="224.0" y="194.5"/>
      <point x="235.0" y="190.0" type="curve" smooth="yes"/>
      <point x="262.5" y="181.5"/>
      <point x="296.5" y="174.0"/>
      <point x="296.5" y="161.0" type="curve" smooth="yes"/>
      <point x="296.5" y="130.5"/>
      <point x="216.0" y="77.5"/>
      <point x="119.0" y="36.5" type="curve" smooth="yes"/>
      <point x="76.0" y="18.5"/>
      <point x="36.0" y="4.0"/>
      <point x="-8.5" y="-7.5" type="curve" smooth="yes"/>
      <point x="-35.0" y="-14.0"/>
      <point x="-53.0" y="-27.0"/>
      <point x="-53.0" y="-46.0" type="curve" smooth="yes"/>
      <point x="-53.0" y="-68.5"/>
      <point x="-39.0" y="-81.5"/>
    </contour>
    <contour>
      <point x="251.0" y="-151.0" type="curve" smooth="yes"/>
      <point x="271.0" y="-151.0"/>
      <point x="290.5" y="-136.0"/>
      <point x="290.5" y="-115.0" type="curve" smooth="yes"/>
      <point x="290.5" y="-97.0"/>
      <point x="276.0" y="-83.5"/>
      <point x="257.5" y="-83.5" type="curve" smooth="yes"/>
      <point x="235.0" y="-83.5"/>
      <point x="217.5" y="-99.5"/>
      <point x="217.5" y="-119.5" type="curve" smooth="yes"/>
      <point x="217.5" y="-137.5"/>
      <point x="230.0" y="-151.0"/>
    </contour>
  </outline>
</glyph>
<glyph name="uni0796" format="2">
  <advance width="583.0"/>
  <unicode hex="0796"/>
  <outline>
    <contour>
      <point x="252.0" y="-163.0" type="curve" smooth="yes"/>
      <point x="317.5" y="-163.0"/>
      <point x="383.0" y="-157.0"/>
      <point x="434.0" y="-141.5" type="curve" smooth="yes"/>
      <point x="455.5" y="-134.5"/>
      <point x="470.0" y="-124.5"/>
      <point x="470.0" y="-109.0" type="curve" smooth="yes"/>
      <point x="470.0" y="-94.5"/>
      <point x="461.0" y="-86.0"/>
      <point x="445.0" y="-86.0" type="curve" smooth="yes"/>
      <point x="438.0" y="-86.0"/>
      <point x="423.5" y="-89.5"/>
      <point x="400.0" y="-95.0" type="curve" smooth="yes"/>
      <point x="372.0" y="-101.5"/>
      <point x="335.5" y="-108.0"/>
      <point x="256.0" y="-108.0" type="curve" smooth="yes"/>
      <point x="142.5" y="-108.0"/>
      <point x="103.5" y="-78.0"/>
      <point x="103.5" y="-21.0" type="curve" smooth="yes"/>
      <point x="103.5" y="27.5"/>
      <point x="160.0" y="67.0"/>
      <point x="230.5" y="100.0" type="curve"/>
      <point x="253.0" y="95.0"/>
      <point x="277.0" y="94.5"/>
      <point x="292.5" y="94.5" type="curve" smooth="yes"/>
      <point x="393.0" y="94.5"/>
      <point x="494.5" y="158.5"/>
      <point x="494.5" y="246.0" type="curve" smooth="yes"/>
      <point x="494.5" y="284.5"/>
      <point x="472.0" y="312.5"/>
      <point x="439.5" y="325.0" type="curve"/>
      <point x="479.5" y="336.5"/>
      <point x="522.0" y="356.5"/>
      <point x="522.0" y="375.5" type="curve" smooth="yes"/>
      <point x="522.0" y="390.5"/>
      <point x="512.5" y="400.5"/>
      <point x="496.0" y="400.5" type="curve" smooth="yes"/>
      <point x="481.0" y="400.5"/>
      <point x="466.0" y="382.5"/>
      <point x="428.0" y="368.5" type="curve" smooth="yes"/>
      <point x="389.5" y="354.0"/>
      <point x="357.0" y="350.0"/>
      <point x="357.0" y="328.0" type="curve" smooth="yes"/>
      <point x="357.0" y="314.5"/>
      <point x="365.5" y="310.0"/>
      <point x="382.0" y="302.0" type="curve" smooth="yes"/>
      <point x="412.0" y="288.0"/>
      <point x="434.5" y="278.5"/>
      <point x="434.5" y="243.5" type="curve" smooth="yes"/>
      <point x="434.5" y="192.5"/>
      <point x="367.5" y="149.5"/>
      <point x="307.0" y="149.5" type="curve" smooth="yes"/>
      <point x="289.5" y="149.5"/>
      <point x="273.0" y="151.5"/>
      <point x="262.0" y="154.5" type="curve"/>
      <point x="255.5" y="172.5"/>
      <point x="236.0" y="194.5"/>
      <point x="214.0" y="194.5" type="curve" smooth="yes"/>
      <point x="193.5" y="194.5"/>
      <point x="167.5" y="184.5"/>
      <point x="167.5" y="151.0" type="curve" smooth="yes"/>
      <point x="167.5" y="139.5"/>
      <point x="173.0" y="129.5"/>
      <point x="182.0" y="122.5" type="curve"/>
      <point x="99.5" y="76.0"/>
      <point x="46.5" y="28.5"/>
      <point x="46.5" y="-32.0" type="curve" smooth="yes"/>
      <point x="46.5" y="-108.0"/>
      <point x="105.5" y="-163.0"/>
    </contour>
  </outline>
</glyph>
<glyph name="uni0797" format="2">
  <advance width="646.0"/>
  <unicode hex="0797"/>
  <outline>
    <contour>
      <point x="-1.5" y="-159.5" type="curve" smooth="yes"/>
      <point x="18.0" y="-159.5"/>
      <point x="76.0" y="-139.5"/>
      <point x="137.5" y="-102.0" type="curve" smooth="yes"/>
      <point x="184.5" y="-73.5"/>
      <point x="219.0" y="-33.5"/>
      <point x="219.0" y="4.0" type="curve" smooth="yes"/>
      <point x="219.0" y="27.5"/>
      <point x="205.5" y="41.5"/>
      <point x="185.0" y="58.0" type="curve" smooth="yes"/>
      <point x="164.5" y="75.5"/>
      <point x="152.5" y="84.0"/>
      <point x="152.5" y="93.0" type="curve" smooth="yes"/>
      <point x="152.5" y="106.5"/>
      <point x="175.0" y="131.0"/>
      <point x="216.5" y="163.5" type="curve"/>
      <point x="248.5" y="93.0"/>
      <point x="304.5" y="63.0"/>
      <point x="373.5" y="63.0" type="curve" smooth="yes"/>
      <point x="437.5" y="63.0"/>
      <point x="514.0" y="107.5"/>
      <point x="514.0" y="180.5" type="curve" smooth="yes"/>
      <point x="514.0" y="239.0"/>
      <point x="465.0" y="283.5"/>
      <point x="377.5" y="287.0" type="curve"/>
      <point x="486.0" y="356.5"/>
      <point x="612.0" y="431.5"/>
      <point x="661.5" y="453.5" type="curve" smooth="yes"/>
      <point x="687.0" y="466.0"/>
      <point x="698.5" y="477.0"/>
      <point x="698.5" y="489.5" type="curve" smooth="yes"/>
      <point x="698.5" y="508.0"/>
      <point x="683.5" y="512.0"/>
      <point x="671.5" y="512.0" type="curve" smooth="yes"/>
      <point x="660.5" y="512.0"/>
      <point x="643.5" y="507.0"/>
      <point x="620.5" y="494.5" type="curve" smooth="yes"/>
      <point x="557.5" y="459.5"/>
      <point x="460.5" y="402.0"/>
      <point x="371.5" y="342.0" type="curve" smooth="yes"/>
      <point x="229.5" y="246.5"/>
      <point x="93.0" y="138.5"/>
      <point x="93.0" y="86.0" type="curve" smooth="yes"/>
      <point x="93.0" y="74.5"/>
      <point x="104.5" y="61.0"/>
      <point x="124.5" y="45.5" type="curve" smooth="yes"/>
      <point x="144.5" y="30.0"/>
      <point x="157.0" y="16.0"/>
      <point x="157.0" y="2.0" type="curve" smooth="yes"/>
      <point x="157.0" y="-35.0"/>
      <point x="76.5" y="-70.5"/>
      <point x="-5.0" y="-92.0" type="curve" smooth="yes"/>
      <point x="-26.5" y="-98.0"/>
      <point x="-39.0" y="-108.0"/>
      <point x="-39.0" y="-127.5" type="curve" smooth="yes"/>
      <point x="-39.0" y="-148.5"/>
      <point x="-27.0" y="-159.5"/>
    </contour>
    <contour>
      <point x="374.5" y="114.5" type="curve" smooth="yes"/>
      <point x="316.0" y="114.5"/>
      <point x="281.5" y="150.0"/>
      <point x="265.0" y="197.5" type="curve"/>
      <point x="294.0" y="225.0"/>
      <point x="330.0" y="243.5"/>
      <point x="351.5" y="243.5" type="curve" smooth="yes"/>
      <point x="424.5" y="243.5"/>
      <point x="457.0" y="216.5"/>
      <point x="457.0" y="182.0" type="curve" smooth="yes"/>
      <point x="457.0" y="140.0"/>
      <point x="417.5" y="114.5"/>
    </contour>
  </outline>
</glyph>
<glyph name="uni0798" format="2">
  <advance width="618.0"/>
  <unicode hex="0798"/>
  <outline>
    <contour>
      <point x="59.0" y="-46.0" type="curve" smooth="yes"/>
      <point x="140.5" y="-46.0"/>
      <point x="260.0" y="-1.5"/>
      <point x="260.0" y="68.5" type="curve" smooth="yes"/>
      <point x="260.0" y="90.5"/>
      <point x="246.5" y="109.0"/>
      <point x="217.0" y="127.0" type="curve" smooth="yes"/>
      <point x="200.0" y="138.5"/>
      <point x="180.0" y="149.5"/>
      <point x="180.0" y="160.5" type="curve" smooth="yes"/>
      <point x="180.0" y="181.5"/>
      <point x="214.0" y="207.0"/>
      <point x="247.5" y="228.5" type="curve"/>
      <point x="294.5" y="183.0"/>
      <point x="358.5" y="161.0"/>
      <point x="405.0" y="161.0" type="curve" smooth="yes"/>
      <point x="480.5" y="161.0"/>
      <point x="564.5" y="211.5"/>
      <point x="564.5" y="297.5" type="curve" smooth="yes"/>
      <point x="564.5" y="346.5"/>
      <point x="539.0" y="376.0"/>
      <point x="477.5" y="376.0" type="curve" smooth="yes"/>
      <point x="353.0" y="376.0"/>
      <point x="119.0" y="234.0"/>
      <point x="119.0" y="148.5" type="curve" smooth="yes"/>
      <point x="119.0" y="134.5"/>
      <point x="132.5" y="122.5"/>
      <point x="158.0" y="109.0" type="curve" smooth="yes"/>
      <point x="183.5" y="95.5"/>
      <point x="199.0" y="85.0"/>
      <point x="199.0" y="68.5" type="curve" smooth="yes"/>
      <point x="199.0" y="27.5"/>
      <point x="120.0" y="9.0"/>
      <point x="63.5" y="9.0" type="curve" smooth="yes"/>
      <point x="46.0" y="9.0"/>
      <point x="24.5" y="12.5"/>
      <point x="11.5" y="16.0" type="curve" smooth="yes"/>
      <point x="-2.0" y="19.5"/>
      <point x="-13.0" y="24.5"/>
      <point x="-25.0" y="24.5" type="curve" smooth="yes"/>
      <point x="-44.0" y="24.5"/>
      <point x="-52.5" y="12.5"/>
      <point x="-52.5" y="-5.5" type="curve" smooth="yes"/>
      <point x="-52.5" y="-18.0"/>
      <point x="-43.5" y="-28.5"/>
      <point x="-27.0" y="-34.5" type="curve" smooth="yes"/>
      <point x="-6.5" y="-42.0"/>
      <point x="23.5" y="-46.0"/>
    </contour>
    <contour>
      <point x="407.5" y="214.0" type="curve" smooth="yes"/>
      <point x="368.0" y="214.0"/>
      <point x="329.0" y="232.5"/>
      <point x="297.0" y="260.0" type="curve"/>
      <point x="364.0" y="299.0"/>
      <point x="436.0" y="324.0"/>
      <point x="466.0" y="324.0" type="curve" smooth="yes"/>
      <point x="491.0" y="324.0"/>
      <point x="506.5" y="318.0"/>
      <point x="506.5" y="294.0" type="curve" smooth="yes"/>
      <point x="506.5" y="251.0"/>
      <point x="466.5" y="214.0"/>
    </contour>
    <contour>
      <point x="461.0" y="537.0" type="curve" smooth="yes"/>
      <point x="481.0" y="537.0"/>
      <point x="500.5" y="552.0"/>
      <point x="500.5" y="573.0" type="curve" smooth="yes"/>
      <point x="500.5" y="591.0"/>
      <point x="486.5" y="604.5"/>
      <point x="467.5" y="604.5" type="curve" smooth="yes"/>
      <point x="445.0" y="604.5"/>
      <point x="427.5" y="588.5"/>
      <point x="427.5" y="568.5" type="curve" smooth="yes"/>
      <point x="427.5" y="550.5"/>
      <point x="440.5" y="537.0"/>
    </contour>
    <contour>
      <point x="359.5" y="415.0" type="curve" smooth="yes"/>
      <point x="379.5" y="415.0"/>
      <point x="399.0" y="430.0"/>
      <point x="399.0" y="451.0" type="curve" smooth="yes"/>
      <point x="399.0" y="469.0"/>
      <point x="385.0" y="482.5"/>
      <point x="366.0" y="482.5" type="curve" smooth="yes"/>
      <point x="344.0" y="482.5"/>
      <point x="326.0" y="466.5"/>
      <point x="326.0" y="446.5" type="curve" smooth="yes"/>
      <point x="326.0" y="428.5"/>
      <point x="339.0" y="415.0"/>
    </contour>
    <contour>
      <point x="539.0" y="415.0" type="curve" smooth="yes"/>
      <point x="559.5" y="415.0"/>
      <point x="579.0" y="430.0"/>
      <point x="579.0" y="451.0" type="curve" smooth="yes"/>
      <point x="579.0" y="469.0"/>
      <point x="564.5" y="482.5"/>
      <point x="546.0" y="482.5" type="curve" smooth="yes"/>
      <point x="523.5" y="482.5"/>
      <point x="506.0" y="466.5"/>
      <point x="506.0" y="446.5" type="curve" smooth="yes"/>
      <point x="506.0" y="428.5"/>
      <point x="518.5" y="415.0"/>
    </contour>
  </outline>
</glyph>
<glyph name="uni0799" format="2">
  <advance width="529.0"/>
  <unicode hex="0799"/>
  <outline>
    <contour>
      <point x="58.5" y="-8.5" type="curve" smooth="yes"/>
      <point x="80.0" y="-8.5"/>
      <point x="145.5" y="11.5"/>
      <point x="220.0" y="56.5" type="curve" smooth="yes"/>
      <point x="322.0" y="118.0"/>
      <point x="443.5" y="223.0"/>
      <point x="489.5" y="288.5" type="curve" smooth="yes"/>
      <point x="501.5" y="305.5"/>
      <point x="506.0" y="316.0"/>
      <point x="506.0" y="324.5" type="curve" smooth="yes"/>
      <point x="506.0" y="334.5"/>
      <point x="501.5" y="344.5"/>
      <point x="487.0" y="344.5" type="curve" smooth="yes"/>
      <point x="476.0" y="344.5"/>
      <point x="465.0" y="336.0"/>
      <point x="451.0" y="320.0" type="curve" smooth="yes"/>
      <point x="368.0" y="227.0"/>
      <point x="301.5" y="178.5"/>
      <point x="188.5" y="114.5" type="curve" smooth="yes"/>
      <point x="149.0" y="92.0"/>
      <point x="94.0" y="70.0"/>
      <point x="47.5" y="60.0" type="curve" smooth="yes"/>
      <point x="30.0" y="55.5"/>
      <point x="20.5" y="40.0"/>
      <point x="20.5" y="24.0" type="curve" smooth="yes"/>
      <point x="20.5" y="3.5"/>
      <point x="35.5" y="-8.5"/>
    </contour>
    <contour>
      <point x="413.0" y="0.0" type="curve" smooth="yes"/>
      <point x="433.0" y="0.0"/>
      <point x="452.5" y="15.0"/>
      <point x="452.5" y="36.0" type="curve" smooth="yes"/>
      <point x="452.5" y="54.0"/>
      <point x="438.0" y="67.5"/>
      <point x="419.5" y="67.5" type="curve" smooth="yes"/>
      <point x="397.0" y="67.5"/>
      <point x="379.5" y="51.5"/>
      <point x="379.5" y="31.5" type="curve" smooth="yes"/>
      <point x="379.5" y="13.5"/>
      <point x="392.0" y="0.0"/>
    </contour>
  </outline>
</glyph>
<glyph name="uni079F" format="2">
  <advance width="1019.0"/>
  <unicode hex="079F"/>
  <outline>
    <contour>
      <point x="56.5" y="48.0" type="curve" smooth="yes"/>
      <point x="70.0" y="48.0"/>
      <point x="88.0" y="53.5"/>
      <point x="107.0" y="63.0" type="curve" smooth="yes"/>
      <point x="164.0" y="90.0"/>
      <point x="218.5" y="137.0"/>
      <point x="243.5" y="194.5" type="curve"/>
      <point x="319.5" y="182.5"/>
      <point x="414.0" y="173.5"/>
      <point x="548.0" y="173.5" type="curve" smooth="yes"/>
      <point x="727.0" y="173.5"/>
      <point x="846.5" y="195.0"/>
      <point x="915.5" y="238.5" type="curve" smooth="yes"/>
      <point x="946.5" y="256.5"/>
      <point x="967.5" y="279.0"/>
      <point x="982.5" y="304.5" type="curve" smooth="yes"/>
      <point x="995.5" y="326.5"/>
      <point x="1003.0" y="346.0"/>
      <point x="1003.0" y="365.5" type="curve" smooth="yes"/>
      <point x="1003.0" y="381.0"/>
      <point x="996.5" y="391.0"/>
      <point x="979.0" y="391.0" type="curve" smooth="yes"/>
      <point x="962.0" y="391.0"/>
      <point x="956.0" y="382.5"/>
      <point x="946.5" y="360.5" type="curve" smooth="yes"/>
      <point x="931.5" y="323.5"/>
      <point x="903.5" y="291.0"/>
      <point x="862.5" y="270.5" type="curve" smooth="yes"/>
      <point x="825.5" y="252.5"/>
      <point x="703.0" y="228.0"/>
      <point x="545.5" y="228.0" type="curve" smooth="yes"/>
      <point x="428.5" y="228.0"/>
      <point x="333.5" y="236.0"/>
      <point x="256.5" y="248.0" type="curve"/>
      <point x="249.5" y="287.0"/>
      <point x="223.5" y="312.0"/>
      <point x="190.5" y="312.0" type="curve" smooth="yes"/>
      <point x="161.5" y="312.0"/>
      <point x="139.5" y="286.5"/>
      <point x="139.5" y="262.5" type="curve" smooth="yes"/>
      <point x="139.5" y="236.5"/>
      <point x="158.5" y="221.0"/>
      <point x="186.5" y="207.5" type="curve"/>
      <point x="165.5" y="157.5"/>
      <point x="119.0" y="123.0"/>
      <point x="59.0" y="105.5" type="curve" smooth="yes"/>
      <point x="36.5" y="98.0"/>
      <point x="24.5" y="90.0"/>
      <point x="24.5" y="75.0" type="curve" smooth="yes"/>
      <point x="24.5" y="59.5"/>
      <point x="35.5" y="48.0"/>
    </contour>
    <contour>
      <point x="575.0" y="357.0" type="curve" smooth="yes"/>
      <point x="595.0" y="357.0"/>
      <point x="614.5" y="372.0"/>
      <point x="614.5" y="392.5" type="curve" smooth="yes"/>
      <point x="614.5" y="410.5"/>
      <point x="600.0" y="424.5"/>
      <point x="581.5" y="424.5" type="curve" smooth="yes"/>
      <point x="559.0" y="424.5"/>
      <point x="541.5" y="408.5"/>
      <point x="541.5" y="388.5" type="curve" smooth="yes"/>
      <point x="541.5" y="370.5"/>
      <point x="554.0" y="357.0"/>
    </contour>
  </outline>
</glyph>
<glyph name="uni07A1" format="2">
  <advance width="649.0"/>
  <unicode hex="07A1"/>
  <outline>
    <contour>
      <point x="91.0" y="-46.0" type="curve" smooth="yes"/>
      <point x="172.5" y="-46.0"/>
      <point x="292.0" y="-1.5"/>
      <point x="292.0" y="68.5" type="curve" smooth="yes"/>
      <point x="292.0" y="90.5"/>
      <point x="278.5" y="109.0"/>
      <point x="249.0" y="127.0" type="curve" smooth="yes"/>
      <point x="232.0" y="138.5"/>
      <point x="212.0" y="149.5"/>
      <point x="212.0" y="160.5" type="curve" smooth="yes"/>
      <point x="212.0" y="181.5"/>
      <point x="246.0" y="207.0"/>
      <point x="279.5" y="228.5" type="curve"/>
      <point x="326.5" y="183.0"/>
      <point x="390.5" y="161.0"/>
      <point x="437.0" y="161.0" type="curve" smooth="yes"/>
      <point x="512.5" y="161.0"/>
      <point x="596.5" y="211.5"/>
      <point x="596.5" y="297.5" type="curve" smooth="yes"/>
      <point x="596.5" y="346.5"/>
      <point x="571.0" y="376.0"/>
      <point x="509.5" y="376.0" type="curve" smooth="yes"/>
      <point x="385.0" y="376.0"/>
      <point x="151.0" y="234.0"/>
      <point x="151.0" y="148.5" type="curve" smooth="yes"/>
      <point x="151.0" y="134.5"/>
      <point x="164.5" y="122.5"/>
      <point x="190.0" y="109.0" type="curve" smooth="yes"/>
      <point x="215.5" y="95.5"/>
      <point x="231.0" y="85.0"/>
      <point x="231.0" y="68.5" type="curve" smooth="yes"/>
      <point x="231.0" y="27.5"/>
      <point x="152.0" y="9.0"/>
      <point x="95.5" y="9.0" type="curve" smooth="yes"/>
      <point x="78.0" y="9.0"/>
      <point x="56.5" y="12.5"/>
      <point x="43.5" y="16.0" type="curve" smooth="yes"/>
      <point x="30.0" y="19.5"/>
      <point x="19.0" y="24.5"/>
      <point x="7.0" y="24.5" type="curve" smooth="yes"/>
      <point x="-12.0" y="24.5"/>
      <point x="-20.5" y="12.5"/>
      <point x="-20.5" y="-5.5" type="curve" smooth="yes"/>
      <point x="-20.5" y="-18.0"/>
      <point x="-11.5" y="-28.5"/>
      <point x="5.0" y="-34.5" type="curve" smooth="yes"/>
      <point x="25.5" y="-42.0"/>
      <point x="55.5" y="-46.0"/>
    </contour>
    <contour>
      <point x="439.5" y="214.0" type="curve" smooth="yes"/>
      <point x="400.0" y="214.0"/>
      <point x="361.0" y="232.5"/>
      <point x="329.0" y="260.0" type="curve"/>
      <point x="396.0" y="299.0"/>
      <point x="468.0" y="324.0"/>
      <point x="498.0" y="324.0" type="curve" smooth="yes"/>
      <point x="523.0" y="324.0"/>
      <point x="538.5" y="318.0"/>
      <point x="538.5" y="294.0" type="curve" smooth="yes"/>
      <point x="538.5" y="251.0"/>
      <point x="498.5" y="214.0"/>
    </contour>
    <contour>
      <point x="490.0" y="454.0" type="curve" smooth="yes"/>
      <point x="510.0" y="454.0"/>
      <point x="529.5" y="469.0"/>
      <point x="529.5" y="489.5" type="curve" smooth="yes"/>
      <point x="529.5" y="507.5"/>
      <point x="515.0" y="521.5"/>
      <point x="496.5" y="521.5" type="curve" smooth="yes"/>
      <point x="474.0" y="521.5"/>
      <point x="456.5" y="505.5"/>
      <point x="456.5" y="485.5" type="curve" smooth="yes"/>
      <point x="456.5" y="467.5"/>
      <point x="469.0" y="454.0"/>
    </contour>
  </outline>
</glyph>
<glyph name="uni07A3" format="2">
  <advance width="538.0"/>
  <unicode hex="07A3"/>
  <outline>
    <contour>
      <point x="-12.5" y="-8.5" type="curve" smooth="yes"/>
      <point x="17.5" y="-8.5"/>
      <point x="79.0" y="16.5"/>
      <point x="149.0" y="57.5" type="curve" smooth="yes"/>
      <point x="240.0" y="111.0"/>
      <point x="356.0" y="206.5"/>
      <point x="415.0" y="278.0" type="curve"/>
      <point x="408.5" y="205.0"/>
      <point x="387.5" y="141.5"/>
      <point x="345.5" y="71.5" type="curve" smooth="yes"/>
      <point x="329.5" y="45.0"/>
      <point x="322.5" y="35.5"/>
      <point x="322.5" y="24.0" type="curve" smooth="yes"/>
      <point x="322.5" y="8.5"/>
      <point x="334.5" y="-1.0"/>
      <point x="352.0" y="-1.0" type="curve" smooth="yes"/>
      <point x="366.0" y="-1.0"/>
      <point x="380.5" y="10.0"/>
      <point x="395.5" y="36.5" type="curve" smooth="yes"/>
      <point x="435.5" y="96.5"/>
      <point x="472.0" y="204.0"/>
      <point x="472.0" y="295.5" type="curve" smooth="yes"/>
      <point x="472.0" y="326.5"/>
      <point x="462.0" y="349.0"/>
      <point x="433.5" y="349.0" type="curve" smooth="yes"/>
      <point x="407.5" y="349.0"/>
      <point x="377.0" y="316.5"/>
      <point x="360.0" y="298.0" type="curve" smooth="yes"/>
      <point x="285.0" y="219.5"/>
      <point x="213.5" y="162.0"/>
      <point x="121.5" y="114.0" type="curve" smooth="yes"/>
      <point x="61.0" y="82.0"/>
      <point x="27.5" y="72.0"/>
      <point x="-21.0" y="60.0" type="curve" smooth="yes"/>
      <point x="-40.5" y="54.5"/>
      <point x="-51.5" y="43.5"/>
      <point x="-51.5" y="25.0" type="curve" smooth="yes"/>
      <point x="-51.5" y="3.5"/>
      <point x="-37.0" y="-8.5"/>
    </contour>
    <contour>
      <point x="419.0" y="454.0" type="curve" smooth="yes"/>
      <point x="439.0" y="454.0"/>
      <point x="458.5" y="469.0"/>
      <point x="458.5" y="489.5" type="curve" smooth="yes"/>
      <point x="458.5" y="507.5"/>
      <point x="444.0" y="521.5"/>
      <point x="425.5" y="521.5" type="curve" smooth="yes"/>
      <point x="403.0" y="521.5"/>
      <point x="385.5" y="505.5"/>
      <point x="385.5" y="485.5" type="curve" smooth="yes"/>
      <point x="385.5" y="467.5"/>
      <point x="398.0" y="454.0"/>
    </contour>
  </outline>
</glyph>
<glyph name="uni07A4" format="2">
  <advance width="500.0"/>
  <unicode hex="07A4"/>
  <outline>
    <contour>
      <point x="76.0" y="-41.0" type="curve" smooth="yes"/>
      <point x="212.0" y="-41.0"/>
      <point x="350.0" y="8.5"/>
      <point x="350.0" y="94.0" type="curve" smooth="yes"/>
      <point x="350.0" y="122.5"/>
      <point x="326.5" y="148.0"/>
      <point x="299.5" y="169.0" type="curve" smooth="yes"/>
      <point x="277.0" y="186.5"/>
      <point x="259.5" y="201.0"/>
      <point x="259.5" y="215.5" type="curve" smooth="yes"/>
      <point x="259.5" y="232.0"/>
      <point x="281.5" y="249.0"/>
      <point x="314.0" y="266.5" type="curve" smooth="yes"/>
      <point x="353.5" y="287.5"/>
      <point x="390.5" y="303.0"/>
      <point x="434.0" y="319.5" type="curve" smooth="yes"/>
      <point x="462.0" y="332.0"/>
      <point x="477.5" y="340.0"/>
      <point x="477.5" y="352.5" type="curve" smooth="yes"/>
      <point x="477.5" y="366.5"/>
      <point x="467.5" y="378.0"/>
      <point x="448.0" y="378.0" type="curve" smooth="yes"/>
      <point x="432.5" y="378.0"/>
      <point x="405.5" y="365.5"/>
      <point x="382.0" y="355.5" type="curve" smooth="yes"/>
      <point x="339.0" y="335.5"/>
      <point x="309.5" y="323.0"/>
      <point x="278.0" y="306.5" type="curve" smooth="yes"/>
      <point x="216.0" y="271.0"/>
      <point x="199.5" y="243.5"/>
      <point x="199.5" y="219.0" type="curve" smooth="yes"/>
      <point x="199.5" y="194.0"/>
      <point x="219.0" y="170.0"/>
      <point x="245.0" y="148.5" type="curve" smooth="yes"/>
      <point x="270.5" y="127.5"/>
      <point x="290.0" y="109.5"/>
      <point x="290.0" y="89.0" type="curve" smooth="yes"/>
      <point x="290.0" y="42.5"/>
      <point x="196.0" y="14.0"/>
      <point x="88.5" y="14.0" type="curve" smooth="yes"/>
      <point x="54.0" y="14.0"/>
      <point x="24.0" y="22.5"/>
      <point x="9.5" y="27.5" type="curve" smooth="yes"/>
      <point x="-3.5" y="32.0"/>
      <point x="-13.5" y="36.5"/>
      <point x="-23.5" y="36.5" type="curve" smooth="yes"/>
      <point x="-40.0" y="36.5"/>
      <point x="-52.5" y="24.0"/>
      <point x="-52.5" y="7.0" type="curve" smooth="yes"/>
      <point x="-52.5" y="-9.5"/>
      <point x="-38.5" y="-20.5"/>
      <point x="-18.5" y="-28.0" type="curve" smooth="yes"/>
      <point x="0.0" y="-35.0"/>
      <point x="36.0" y="-41.0"/>
    </contour>
    <contour>
      <point x="416.0" y="420.0" type="curve" smooth="yes"/>
      <point x="436.0" y="420.0"/>
      <point x="455.5" y="435.0"/>
      <point x="455.5" y="456.0" type="curve" smooth="yes"/>
      <point x="455.5" y="474.0"/>
      <point x="441.0" y="487.5"/>
      <point x="422.5" y="487.5" type="curve" smooth="yes"/>
      <point x="400.0" y="487.5"/>
      <point x="382.5" y="471.5"/>
      <point x="382.5" y="451.5" type="curve" smooth="yes"/>
      <point x="382.5" y="433.5"/>
      <point x="395.0" y="420.0"/>
    </contour>
    <contour>
      <point x="248.0" y="420.0" type="curve" smooth="yes"/>
      <point x="268.0" y="420.0"/>
      <point x="287.5" y="435.0"/>
      <point x="287.5" y="456.0" type="curve" smooth="yes"/>
      <point x="287.5" y="474.0"/>
      <point x="273.0" y="487.5"/>
      <point x="254.5" y="487.5" type="curve" smooth="yes"/>
      <point x="232.0" y="487.5"/>
      <point x="214.5" y="471.5"/>
      <point x="214.5" y="451.5" type="curve" smooth="yes"/>
      <point x="214.5" y="433.5"/>
      <point x="227.0" y="420.0"/>
    </contour>
  </outline>
</glyph>
<glyph name="uni07A5" format="2">
  <advance width="506.0"/>
  <unicode hex="07A5"/>
  <outline>
    <contour>
      <point x="-46.0" y="-84.5" type="curve" smooth="yes"/>
      <point x="-20.5" y="-84.5"/>
      <point x="67.5" y="-51.0"/>
      <point x="151.5" y="0.5" type="curve" smooth="yes"/>
      <point x="236.0" y="52.5"/>
      <point x="352.5" y="151.0"/>
      <point x="403.5" y="209.0" type="curve" smooth="yes"/>
      <point x="438.5" y="249.0"/>
      <point x="455.5" y="286.0"/>
      <point x="455.5" y="322.5" type="curve" smooth="yes"/>
      <point x="455.5" y="372.0"/>
      <point x="415.0" y="391.0"/>
      <point x="362.5" y="391.0" type="curve" smooth="yes"/>
      <point x="256.5" y="391.0"/>
      <point x="157.0" y="308.0"/>
      <point x="157.0" y="228.5" type="curve" smooth="yes"/>
      <point x="157.0" y="188.0"/>
      <point x="191.0" y="156.0"/>
      <point x="250.0" y="143.5" type="curve"/>
      <point x="220.5" y="122.5"/>
      <point x="161.0" y="80.0"/>
      <point x="99.0" y="46.5" type="curve" smooth="yes"/>
      <point x="28.5" y="7.0"/>
      <point x="-11.0" y="-5.5"/>
      <point x="-54.5" y="-14.5" type="curve" smooth="yes"/>
      <point x="-74.5" y="-19.0"/>
      <point x="-85.0" y="-31.0"/>
      <point x="-85.0" y="-49.5" type="curve" smooth="yes"/>
      <point x="-85.0" y="-71.0"/>
      <point x="-70.5" y="-84.5"/>
    </contour>
    <contour>
      <point x="302.5" y="182.5" type="curve"/>
      <point x="262.0" y="185.5"/>
      <point x="215.0" y="195.0"/>
      <point x="215.0" y="233.5" type="curve" smooth="yes"/>
      <point x="215.0" y="288.0"/>
      <point x="290.0" y="340.0"/>
      <point x="352.0" y="340.0" type="curve" smooth="yes"/>
      <point x="387.0" y="340.0"/>
      <point x="398.5" y="325.5"/>
      <point x="398.5" y="308.0" type="curve" smooth="yes"/>
      <point x="398.5" y="275.0"/>
      <point x="357.5" y="226.0"/>
    </contour>
    <contour>
      <point x="354.0" y="454.0" type="curve" smooth="yes"/>
      <point x="374.0" y="454.0"/>
      <point x="393.5" y="469.0"/>
      <point x="393.5" y="489.5" type="curve" smooth="yes"/>
      <point x="393.5" y="507.5"/>
      <point x="379.0" y="521.5"/>
      <point x="360.5" y="521.5" type="curve" smooth="yes"/>
      <point x="338.0" y="521.5"/>
      <point x="320.5" y="505.5"/>
      <point x="320.5" y="485.5" type="curve" smooth="yes"/>
      <point x="320.5" y="467.5"/>
      <point x="333.0" y="454.0"/>
    </contour>
  </outline>
</glyph>
<glyph name="uni07A6" format="2">
  <unicode hex="07A6"/>
  <outline>
    <contour>
      <point x="34.5" y="448.5" type="curve" smooth="yes"/>
      <point x="45.5" y="448.5"/>
      <point x="60.5" y="452.0"/>
      <point x="77.0" y="457.5" type="curve" smooth="yes"/>
      <point x="148.0" y="480.5"/>
      <point x="286.5" y="555.0"/>
      <point x="330.5" y="595.5" type="curve" smooth="yes"/>
      <point x="343.0" y="607.5"/>
      <point x="348.5" y="616.0"/>
      <point x="348.5" y="628.0" type="curve" smooth="yes"/>
      <point x="348.5" y="639.0"/>
      <point x="342.5" y="649.0"/>
      <point x="326.0" y="649.0" type="curve" smooth="yes"/>
      <point x="315.5" y="649.0"/>
      <point x="306.5" y="644.5"/>
      <point x="288.5" y="630.0" type="curve" smooth="yes"/>
      <point x="206.0" y="564.0"/>
      <point x="104.5" y="518.0"/>
      <point x="41.5" y="501.0" type="curve" smooth="yes"/>
      <point x="21.5" y="495.5"/>
      <point x="7.0" y="489.0"/>
      <point x="7.0" y="471.0" type="curve" smooth="yes"/>
      <point x="7.0" y="455.0"/>
      <point x="20.5" y="448.5"/>
    </contour>
  </outline>
</glyph>
<glyph name="uni07A7" format="2">
  <unicode hex="07A7"/>
  <outline>
    <contour>
      <point x="34.0" y="578.5" type="curve" smooth="yes"/>
      <point x="45.0" y="578.5"/>
      <point x="60.0" y="581.5"/>
      <point x="76.5" y="587.5" type="curve" smooth="yes"/>
      <point x="140.5" y="611.5"/>
      <point x="267.0" y="685.5"/>
      <point x="310.0" y="725.5" type="curve" smooth="yes"/>
      <point x="322.5" y="737.5"/>
      <point x="328.0" y="746.0"/>
      <point x="328.0" y="758.0" type="curve" smooth="yes"/>
      <point x="328.0" y="769.0"/>
      <point x="322.0" y="779.0"/>
      <point x="305.5" y="779.0" type="curve" smooth="yes"/>
      <point x="295.0" y="779.0"/>
      <point x="286.0" y="774.5"/>
      <point x="268.0" y="760.0" type="curve" smooth="yes"/>
      <point x="189.5" y="697.5"/>
      <point x="99.0" y="648.0"/>
      <point x="41.0" y="631.0" type="curve" smooth="yes"/>
      <point x="21.0" y="625.0"/>
      <point x="6.5" y="619.0"/>
      <point x="6.5" y="601.0" type="curve" smooth="yes"/>
      <point x="6.5" y="585.0"/>
      <point x="20.0" y="578.5"/>
    </contour>
    <contour>
      <point x="93.5" y="448.5" type="curve" smooth="yes"/>
      <point x="104.5" y="448.5"/>
      <point x="119.5" y="451.5"/>
      <point x="136.0" y="457.5" type="curve" smooth="yes"/>
      <point x="199.5" y="483.0"/>
      <point x="327.5" y="554.5"/>
      <point x="369.5" y="595.5" type="curve" smooth="yes"/>
      <point x="382.0" y="607.5"/>
      <point x="387.5" y="616.0"/>
      <point x="387.5" y="628.0" type="curve" smooth="yes"/>
      <point x="387.5" y="639.0"/>
      <point x="381.5" y="649.0"/>
      <point x="365.0" y="649.0" type="curve" smooth="yes"/>
      <point x="354.5" y="649.0"/>
      <point x="345.0" y="645.0"/>
      <point x="327.5" y="630.0" type="curve" smooth="yes"/>
      <point x="251.5" y="564.5"/>
      <point x="158.5" y="519.0"/>
      <point x="100.5" y="501.0" type="curve" smooth="yes"/>
      <point x="80.5" y="495.0"/>
      <point x="66.0" y="489.0"/>
      <point x="66.0" y="471.0" type="curve" smooth="yes"/>
      <point x="66.0" y="455.0"/>
      <point x="79.5" y="448.5"/>
    </contour>
  </outline>
</glyph>
<glyph name="uni07A8" format="2">
  <unicode hex="07A8"/>
  <outline>
    <contour>
      <point x="-27.5" y="-296.5" type="curve" smooth="yes"/>
      <point x="-16.5" y="-296.5"/>
      <point x="-1.5" y="-293.5"/>
      <point x="15.0" y="-287.5" type="curve" smooth="yes"/>
      <point x="84.5" y="-261.5"/>
      <point x="225.5" y="-189.5"/>
      <point x="268.5" y="-149.5" type="curve" smooth="yes"/>
      <point x="281.0" y="-137.5"/>
      <point x="286.5" y="-129.0"/>
      <point x="286.5" y="-117.0" type="curve" smooth="yes"/>
      <point x="286.5" y="-106.0"/>
      <point x="280.5" y="-96.0"/>
      <point x="264.0" y="-96.0" type="curve" smooth="yes"/>
      <point x="253.5" y="-96.0"/>
      <point x="244.5" y="-100.5"/>
      <point x="226.5" y="-115.0" type="curve" smooth="yes"/>
      <point x="144.0" y="-180.5"/>
      <point x="42.5" y="-226.0"/>
      <point x="-20.5" y="-244.0" type="curve" smooth="yes"/>
      <point x="-40.5" y="-249.5"/>
      <point x="-55.0" y="-256.0"/>
      <point x="-55.0" y="-274.0" type="curve" smooth="yes"/>
      <point x="-55.0" y="-290.0"/>
      <point x="-41.5" y="-296.5"/>
    </contour>
  </outline>
</glyph>
<glyph name="uni07A9" format="2">
  <unicode hex="07A9"/>
  <outline>
    <contour>
      <point x="34.0" y="-283.5" type="curve" smooth="yes"/>
      <point x="45.0" y="-283.5"/>
      <point x="60.0" y="-280.5"/>
      <point x="76.5" y="-274.5" type="curve" smooth="yes"/>
      <point x="140.5" y="-250.5"/>
      <point x="267.0" y="-176.5"/>
      <point x="310.0" y="-136.5" type="curve" smooth="yes"/>
      <point x="322.5" y="-124.5"/>
      <point x="328.0" y="-116.0"/>
      <point x="328.0" y="-104.0" type="curve" smooth="yes"/>
      <point x="328.0" y="-93.0"/>
      <point x="322.0" y="-83.0"/>
      <point x="305.5" y="-83.0" type="curve" smooth="yes"/>
      <point x="295.0" y="-83.0"/>
      <point x="286.0" y="-87.5"/>
      <point x="268.0" y="-102.0" type="curve" smooth="yes"/>
      <point x="189.5" y="-164.5"/>
      <point x="99.0" y="-214.0"/>
      <point x="41.0" y="-231.0" type="curve" smooth="yes"/>
      <point x="21.0" y="-237.0"/>
      <point x="6.5" y="-243.0"/>
      <point x="6.5" y="-261.0" type="curve" smooth="yes"/>
      <point x="6.5" y="-277.0"/>
      <point x="20.0" y="-283.5"/>
    </contour>
    <contour>
      <point x="93.5" y="-413.5" type="curve" smooth="yes"/>
      <point x="104.5" y="-413.5"/>
      <point x="119.5" y="-410.5"/>
      <point x="136.0" y="-404.5" type="curve" smooth="yes"/>
      <point x="200.0" y="-380.5"/>
      <point x="326.5" y="-306.5"/>
      <point x="369.5" y="-266.5" type="curve" smooth="yes"/>
      <point x="382.0" y="-254.5"/>
      <point x="387.5" y="-246.0"/>
      <point x="387.5" y="-234.0" type="curve" smooth="yes"/>
      <point x="387.5" y="-223.0"/>
      <point x="381.5" y="-213.0"/>
      <point x="365.0" y="-213.0" type="curve" smooth="yes"/>
      <point x="354.5" y="-213.0"/>
      <point x="345.5" y="-217.5"/>
      <point x="327.5" y="-232.0" type="curve" smooth="yes"/>
      <point x="249.0" y="-294.5"/>
      <point x="158.5" y="-344.0"/>
      <point x="100.5" y="-361.0" type="curve" smooth="yes"/>
      <point x="80.5" y="-367.0"/>
      <point x="66.0" y="-373.0"/>
      <point x="66.0" y="-391.0" type="curve" smooth="yes"/>
      <point x="66.0" y="-407.0"/>
      <point x="79.5" y="-413.5"/>
    </contour>
  </outline>
</glyph>
<glyph name="uni07AA" format="2">
  <unicode hex="07AA"/>
  <outline>
    <contour>
      <point x="43.0" y="440.5" type="curve" smooth="yes"/>
      <point x="73.0" y="440.5"/>
      <point x="135.5" y="466.5"/>
      <point x="205.0" y="511.0" type="curve" smooth="yes"/>
      <point x="275.0" y="556.0"/>
      <point x="296.5" y="585.0"/>
      <point x="296.5" y="615.0" type="curve" smooth="yes"/>
      <point x="296.5" y="649.5"/>
      <point x="213.0" y="674.5"/>
      <point x="130.0" y="674.5" type="curve" smooth="yes"/>
      <point x="77.5" y="674.5"/>
      <point x="49.5" y="665.5"/>
      <point x="49.5" y="644.0" type="curve" smooth="yes"/>
      <point x="49.5" y="629.5"/>
      <point x="57.5" y="620.0"/>
      <point x="86.0" y="620.0" type="curve" smooth="yes"/>
      <point x="103.0" y="620.0"/>
      <point x="121.5" y="622.5"/>
      <point x="144.0" y="622.5" type="curve" smooth="yes"/>
      <point x="180.0" y="622.5"/>
      <point x="227.0" y="613.5"/>
      <point x="242.0" y="600.5" type="curve"/>
      <point x="218.0" y="574.5"/>
      <point x="150.0" y="531.5"/>
      <point x="51.0" y="500.5" type="curve" smooth="yes"/>
      <point x="21.5" y="491.0"/>
      <point x="9.5" y="483.0"/>
      <point x="9.5" y="465.5" type="curve" smooth="yes"/>
      <point x="9.5" y="448.5"/>
      <point x="20.5" y="440.5"/>
    </contour>
  </outline>
</glyph>
<glyph name="uni07AB" format="2">
  <unicode hex="07AB"/>
  <outline>
    <contour>
      <point x="334.5" y="440.5" type="curve" smooth="yes"/>
      <point x="364.5" y="440.5"/>
      <point x="427.0" y="466.5"/>
      <point x="496.5" y="511.0" type="curve" smooth="yes"/>
      <point x="567.0" y="556.0"/>
      <point x="588.0" y="585.0"/>
      <point x="588.0" y="615.0" type="curve" smooth="yes"/>
      <point x="588.0" y="649.5"/>
      <point x="504.5" y="674.5"/>
      <point x="421.5" y="674.5" type="curve" smooth="yes"/>
      <point x="369.0" y="674.5"/>
      <point x="341.0" y="665.5"/>
      <point x="341.0" y="644.0" type="curve" smooth="yes"/>
      <point x="341.0" y="629.5"/>
      <point x="349.0" y="620.0"/>
      <point x="377.5" y="620.0" type="curve" smooth="yes"/>
      <point x="394.5" y="620.0"/>
      <point x="412.5" y="622.5"/>
      <point x="435.5" y="622.5" type="curve" smooth="yes"/>
      <point x="471.0" y="622.5"/>
      <point x="518.5" y="613.5"/>
      <point x="533.5" y="600.5" type="curve"/>
      <point x="509.5" y="574.5"/>
      <point x="441.5" y="531.5"/>
      <point x="342.5" y="500.5" type="curve" smooth="yes"/>
      <point x="313.0" y="491.0"/>
      <point x="301.0" y="483.0"/>
      <point x="301.0" y="465.5" type="curve" smooth="yes"/>
      <point x="301.0" y="448.5"/>
      <point x="312.0" y="440.5"/>
    </contour>
    <contour>
      <point x="43.0" y="440.5" type="curve" smooth="yes"/>
      <point x="73.0" y="440.5"/>
      <point x="135.5" y="467.0"/>
      <point x="205.0" y="511.0" type="curve" smooth="yes"/>
      <point x="275.5" y="556.0"/>
      <point x="296.5" y="585.0"/>
      <point x="296.5" y="615.0" type="curve" smooth="yes"/>
      <point x="296.5" y="649.5"/>
      <point x="213.0" y="674.5"/>
      <point x="130.0" y="674.5" type="curve" smooth="yes"/>
      <point x="77.5" y="674.5"/>
      <point x="49.5" y="665.5"/>
      <point x="49.5" y="644.0" type="curve" smooth="yes"/>
      <point x="49.5" y="629.5"/>
      <point x="57.5" y="620.0"/>
      <point x="86.0" y="620.0" type="curve" smooth="yes"/>
      <point x="103.0" y="620.0"/>
      <point x="121.5" y="622.5"/>
      <point x="144.0" y="622.5" type="curve" smooth="yes"/>
      <point x="180.0" y="622.5"/>
      <point x="227.0" y="613.5"/>
      <point x="242.0" y="600.5" type="curve"/>
      <point x="218.0" y="574.5"/>
      <point x="150.0" y="531.5"/>
      <point x="51.0" y="500.5" type="curve" smooth="yes"/>
      <point x="21.5" y="491.0"/>
      <point x="9.5" y="483.0"/>
      <point x="9.5" y="465.5" type="curve" smooth="yes"/>
      <point x="9.5" y="448.5"/>
      <point x="20.5" y="440.5"/>
    </contour>
  </outline>
</glyph>
<glyph name="uni07AC" format="2">
  <unicode hex="07AC"/>
  <outline>
    <contour>
      <point x="159.0" y="455.0" type="curve" smooth="yes"/>
      <point x="218.0" y="455.0"/>
      <point x="253.0" y="463.5"/>
      <point x="253.0" y="487.5" type="curve" smooth="yes"/>
      <point x="253.0" y="502.0"/>
      <point x="249.0" y="514.5"/>
      <point x="224.0" y="514.5" type="curve" smooth="yes"/>
      <point x="208.5" y="514.5"/>
      <point x="187.0" y="510.0"/>
      <point x="167.0" y="510.0" type="curve" smooth="yes"/>
      <point x="124.0" y="510.0"/>
      <point x="84.5" y="521.0"/>
      <point x="68.5" y="535.5" type="curve"/>
      <point x="82.5" y="558.5"/>
      <point x="144.5" y="605.5"/>
      <point x="226.0" y="641.5" type="curve" smooth="yes"/>
      <point x="242.5" y="648.0"/>
      <point x="254.0" y="654.0"/>
      <point x="254.0" y="668.5" type="curve" smooth="yes"/>
      <point x="254.0" y="684.5"/>
      <point x="243.5" y="692.0"/>
      <point x="227.5" y="692.0" type="curve" smooth="yes"/>
      <point x="199.0" y="692.0"/>
      <point x="147.0" y="667.5"/>
      <point x="90.5" y="626.0" type="curve" smooth="yes"/>
      <point x="28.0" y="579.5"/>
      <point x="8.5" y="558.0"/>
      <point x="8.5" y="532.0" type="curve" smooth="yes"/>
      <point x="8.5" y="494.5"/>
      <point x="75.0" y="455.0"/>
    </contour>
  </outline>
</glyph>
<glyph name="uni07AD" format="2">
  <unicode hex="07AD"/>
  <outline>
    <contour>
      <point x="444.0" y="455.0" type="curve" smooth="yes"/>
      <point x="503.0" y="455.0"/>
      <point x="538.5" y="463.5"/>
      <point x="538.5" y="487.5" type="curve" smooth="yes"/>
      <point x="538.5" y="502.0"/>
      <point x="534.0" y="514.5"/>
      <point x="509.0" y="514.5" type="curve" smooth="yes"/>
      <point x="493.5" y="514.5"/>
      <point x="472.0" y="510.0"/>
      <point x="452.0" y="510.0" type="curve" smooth="yes"/>
      <point x="409.0" y="510.0"/>
      <point x="369.5" y="521.0"/>
      <point x="353.5" y="535.5" type="curve"/>
      <point x="367.5" y="558.5"/>
      <point x="429.5" y="605.5"/>
      <point x="511.0" y="641.5" type="curve" smooth="yes"/>
      <point x="527.5" y="648.0"/>
      <point x="539.0" y="654.0"/>
      <point x="539.0" y="668.5" type="curve" smooth="yes"/>
      <point x="539.0" y="684.5"/>
      <point x="528.5" y="692.0"/>
      <point x="512.5" y="692.0" type="curve" smooth="yes"/>
      <point x="484.0" y="692.0"/>
      <point x="432.0" y="667.0"/>
      <point x="375.5" y="626.0" type="curve" smooth="yes"/>
      <point x="313.5" y="580.0"/>
      <point x="293.5" y="558.0"/>
      <point x="293.5" y="532.0" type="curve" smooth="yes"/>
      <point x="293.5" y="494.5"/>
      <point x="360.0" y="455.0"/>
    </contour>
    <contour>
      <point x="159.0" y="455.0" type="curve" smooth="yes"/>
      <point x="218.0" y="455.0"/>
      <point x="253.0" y="463.5"/>
      <point x="253.0" y="487.5" type="curve" smooth="yes"/>
      <point x="253.0" y="502.0"/>
      <point x="249.0" y="514.5"/>
      <point x="224.0" y="514.5" type="curve" smooth="yes"/>
      <point x="208.5" y="514.5"/>
      <point x="187.0" y="510.0"/>
      <point x="167.0" y="510.0" type="curve" smooth="yes"/>
      <point x="124.0" y="510.0"/>
      <point x="84.5" y="521.0"/>
      <point x="68.5" y="535.5" type="curve"/>
      <point x="82.5" y="558.5"/>
      <point x="144.5" y="605.5"/>
      <point x="226.0" y="641.5" type="curve" smooth="yes"/>
      <point x="242.5" y="648.0"/>
      <point x="254.0" y="654.0"/>
      <point x="254.0" y="668.5" type="curve" smooth="yes"/>
      <point x="254.0" y="684.5"/>
      <point x="243.5" y="692.0"/>
      <point x="227.5" y="692.0" type="curve" smooth="yes"/>
      <point x="199.0" y="692.0"/>
      <point x="147.0" y="667.5"/>
      <point x="90.5" y="626.0" type="curve" smooth="yes"/>
      <point x="28.5" y="580.0"/>
      <point x="8.5" y="558.0"/>
      <point x="8.5" y="532.0" type="curve" smooth="yes"/>
      <point x="8.5" y="494.5"/>
      <point x="75.0" y="455.0"/>
    </contour>
  </outline>
</glyph>
<glyph name="uni07AE" format="2">
  <unicode hex="07AE"/>
  <outline>
    <contour>
      <point x="43.0" y="440.5" type="curve" smooth="yes"/>
      <point x="73.5" y="440.5"/>
      <point x="137.5" y="468.0"/>
      <point x="204.0" y="510.0" type="curve"/>
      <point x="219.0" y="479.5"/>
      <point x="279.0" y="455.0"/>
      <point x="347.5" y="455.0" type="curve" smooth="yes"/>
      <point x="407.0" y="455.0"/>
      <point x="442.0" y="463.5"/>
      <point x="442.0" y="487.5" type="curve" smooth="yes"/>
      <point x="442.0" y="502.0"/>
      <point x="437.5" y="514.5"/>
      <point x="412.5" y="514.5" type="curve" smooth="yes"/>
      <point x="397.0" y="514.5"/>
      <point x="375.5" y="510.0"/>
      <point x="356.0" y="510.0" type="curve" smooth="yes"/>
      <point x="312.5" y="510.0"/>
      <point x="273.5" y="521.0"/>
      <point x="257.0" y="535.5" type="curve"/>
      <point x="282.5" y="570.5"/>
      <point x="347.0" y="610.0"/>
      <point x="414.5" y="641.5" type="curve" smooth="yes"/>
      <point x="431.5" y="648.5"/>
      <point x="442.5" y="654.5"/>
      <point x="442.5" y="668.5" type="curve" smooth="yes"/>
      <point x="442.5" y="684.5"/>
      <point x="432.5" y="692.0"/>
      <point x="416.5" y="692.0" type="curve" smooth="yes"/>
      <point x="389.5" y="692.0"/>
      <point x="340.5" y="670.0"/>
      <point x="287.5" y="633.0" type="curve"/>
      <point x="267.0" y="657.0"/>
      <point x="199.5" y="674.5"/>
      <point x="130.0" y="674.5" type="curve" smooth="yes"/>
      <point x="77.5" y="674.5"/>
      <point x="49.5" y="665.5"/>
      <point x="49.5" y="644.0" type="curve" smooth="yes"/>
      <point x="49.5" y="629.5"/>
      <point x="57.5" y="620.0"/>
      <point x="86.0" y="620.0" type="curve" smooth="yes"/>
      <point x="103.0" y="620.0"/>
      <point x="121.5" y="622.5"/>
      <point x="144.0" y="622.5" type="curve" smooth="yes"/>
      <point x="180.0" y="622.5"/>
      <point x="227.0" y="613.5"/>
      <point x="242.0" y="600.5" type="curve"/>
      <point x="214.0" y="567.0"/>
      <point x="126.5" y="524.5"/>
      <point x="51.0" y="500.5" type="curve" smooth="yes"/>
      <point x="21.0" y="491.0"/>
      <point x="9.5" y="483.0"/>
      <point x="9.5" y="465.5" type="curve" smooth="yes"/>
      <point x="9.5" y="448.5"/>
      <point x="20.5" y="440.5"/>
    </contour>
  </outline>
</glyph>
<glyph name="uni07AF" format="2">
  <unicode hex="07AF"/>
  <outline>
    <contour>
      <point x="139.5" y="443.0" type="curve" smooth="yes"/>
      <point x="242.5" y="443.0"/>
      <point x="298.5" y="490.0"/>
      <point x="298.5" y="515.5" type="curve" smooth="yes"/>
      <point x="298.5" y="529.0"/>
      <point x="290.5" y="536.0"/>
      <point x="278.0" y="536.0" type="curve" smooth="yes"/>
      <point x="259.0" y="536.0"/>
      <point x="225.5" y="495.0"/>
      <point x="143.5" y="495.0" type="curve" smooth="yes"/>
      <point x="103.0" y="495.0"/>
      <point x="61.5" y="508.5"/>
      <point x="61.5" y="561.0" type="curve" smooth="yes"/>
      <point x="61.5" y="651.5"/>
      <point x="224.0" y="789.0"/>
      <point x="334.5" y="789.0" type="curve" smooth="yes"/>
      <point x="370.5" y="789.0"/>
      <point x="377.5" y="772.0"/>
      <point x="377.5" y="755.5" type="curve" smooth="yes"/>
      <point x="377.5" y="721.0"/>
      <point x="350.0" y="701.0"/>
      <point x="332.0" y="685.0" type="curve" smooth="yes"/>
      <point x="310.5" y="667.5"/>
      <point x="300.0" y="657.5"/>
      <point x="300.0" y="643.0" type="curve" smooth="yes"/>
      <point x="300.0" y="628.5"/>
      <point x="311.5" y="616.5"/>
      <point x="327.0" y="616.5" type="curve" smooth="yes"/>
      <point x="338.5" y="616.5"/>
      <point x="358.5" y="631.0"/>
      <point x="372.5" y="643.5" type="curve" smooth="yes"/>
      <point x="397.0" y="665.0"/>
      <point x="434.0" y="704.0"/>
      <point x="434.0" y="766.0" type="curve" smooth="yes"/>
      <point x="434.0" y="813.0"/>
      <point x="398.5" y="841.0"/>
      <point x="337.0" y="841.0" type="curve" smooth="yes"/>
      <point x="206.5" y="841.0"/>
      <point x="6.0" y="696.0"/>
      <point x="6.0" y="551.5" type="curve" smooth="yes"/>
      <point x="6.0" y="470.0"/>
      <point x="77.5" y="443.0"/>
    </contour>
  </outline>
</glyph>
<glyph name="uni07B0" format="2">
  <unicode hex="07B0"/>
  <outline>
    <contour>
      <point x="124.5" y="442.0" type="curve" smooth="yes"/>
      <point x="219.0" y="442.0"/>
      <point x="313.0" y="524.0"/>
      <point x="313.0" y="627.5" type="curve" smooth="yes"/>
      <point x="313.0" y="682.5"/>
      <point x="279.0" y="717.0"/>
      <point x="206.5" y="717.0" type="curve" smooth="yes"/>
      <point x="95.5" y="717.0"/>
      <point x="7.5" y="631.0"/>
      <point x="7.5" y="549.5" type="curve" smooth="yes"/>
      <point x="7.5" y="487.5"/>
      <point x="51.0" y="442.0"/>
    </contour>
    <contour>
      <point x="131.0" y="492.0" type="curve" smooth="yes"/>
      <point x="80.0" y="492.0"/>
      <point x="62.5" y="519.0"/>
      <point x="62.5" y="551.5" type="curve" smooth="yes"/>
      <point x="62.5" y="611.0"/>
      <point x="118.5" y="668.0"/>
      <point x="196.0" y="668.0" type="curve" smooth="yes"/>
      <point x="236.0" y="668.0"/>
      <point x="258.5" y="647.5"/>
      <point x="258.5" y="616.5" type="curve" smooth="yes"/>
      <point x="258.5" y="548.5"/>
      <point x="192.5" y="492.0"/>
    </contour>
  </outline>
</glyph>
<glyph name="uni07B1" format="2">
  <advance width="473.0"/>
  <unicode hex="07B1"/>
  <outline>
    <contour>
      <point x="219.5" y="-184.0" type="curve" smooth="yes"/>
      <point x="281.5" y="-184.0"/>
      <point x="334.0" y="-170.5"/>
      <point x="373.0" y="-149.0" type="curve" smooth="yes"/>
      <point x="401.0" y="-133.5"/>
      <point x="420.0" y="-117.0"/>
      <point x="420.0" y="-100.0" type="curve" smooth="yes"/>
      <point x="420.0" y="-86.0"/>
      <point x="411.0" y="-77.5"/>
      <point x="396.5" y="-77.5" type="curve" smooth="yes"/>
      <point x="388.5" y="-77.5"/>
      <point x="379.5" y="-82.5"/>
      <point x="363.5" y="-92.0" type="curve" smooth="yes"/>
      <point x="309.5" y="-123.5"/>
      <point x="275.5" y="-133.0"/>
      <point x="222.0" y="-133.0" type="curve" smooth="yes"/>
      <point x="148.5" y="-133.0"/>
      <point x="92.5" y="-115.5"/>
      <point x="92.5" y="-66.5" type="curve" smooth="yes"/>
      <point x="92.5" y="-26.5"/>
      <point x="150.0" y="7.5"/>
      <point x="250.0" y="64.0" type="curve" smooth="yes"/>
      <point x="358.0" y="125.5"/>
      <point x="447.0" y="186.0"/>
      <point x="447.0" y="272.5" type="curve" smooth="yes"/>
      <point x="447.0" y="341.0"/>
      <point x="377.0" y="376.0"/>
      <point x="307.5" y="376.0" type="curve" smooth="yes"/>
      <point x="224.5" y="376.0"/>
      <point x="128.0" y="325.0"/>
      <point x="128.0" y="248.0" type="curve" smooth="yes"/>
      <point x="128.0" y="184.0"/>
      <point x="200.0" y="154.0"/>
      <point x="281.5" y="137.0" type="curve"/>
      <point x="259.0" y="123.0"/>
      <point x="201.5" y="89.5"/>
      <point x="171.0" y="71.5" type="curve" smooth="yes"/>
      <point x="106.0" y="33.5"/>
      <point x="38.0" y="-11.5"/>
      <point x="38.0" y="-69.0" type="curve" smooth="yes"/>
      <point x="38.0" y="-151.0"/>
      <point x="128.0" y="-184.0"/>
    </contour>
    <contour>
      <point x="336.5" y="177.0" type="curve"/>
      <point x="268.5" y="187.0"/>
      <point x="184.5" y="205.5"/>
      <point x="184.5" y="247.5" type="curve" smooth="yes"/>
      <point x="184.5" y="292.5"/>
      <point x="251.0" y="325.0"/>
      <point x="303.0" y="325.0" type="curve" smooth="yes"/>
      <point x="364.0" y="325.0"/>
      <point x="391.0" y="298.0"/>
      <point x="391.0" y="268.5" type="curve" smooth="yes"/>
      <point x="391.0" y="230.0"/>
      <point x="368.0" y="203.0"/>
    </contour>
  </outline>
</glyph>
<glyph name="quoteleft" format="2">
  <advance width="342.0"/>
  <unicode hex="2018"/>
  <outline>
    <contour>
      <point x="127.5" y="561.0" type="curve" smooth="yes"/>
      <point x="161.5" y="561.0"/>
      <point x="190.0" y="589.0"/>
      <point x="190.0" y="619.0" type="curve" smooth="yes"/>
      <point x="190.0" y="642.5"/>
      <point x="171.0" y="661.0"/>
      <point x="142.5" y="664.5" type="curve"/>
      <point x="155.5" y="699.0"/>
      <point x="178.0" y="726.5"/>
      <point x="193.0" y="742.0" type="curve" smooth="yes"/>
      <point x="201.0" y="751.0"/>
      <point x="205.5" y="755.5"/>
      <point x="205.5" y="763.0" type="curve" smooth="yes"/>
      <point x="205.5" y="766.5"/>
      <point x="202.0" y="776.5"/>
      <point x="189.5" y="776.5" type="curve" smooth="yes"/>
      <point x="177.5" y="776.5"/>
      <point x="165.5" y="765.0"/>
      <point x="151.5" y="748.5" type="curve" smooth="yes"/>
      <point x="129.5" y="727.0"/>
      <point x="77.0" y="654.0"/>
      <point x="77.0" y="612.5" type="curve" smooth="yes"/>
      <point x="77.0" y="577.0"/>
      <point x="98.5" y="561.0"/>
    </contour>
  </outline>
</glyph>
<glyph name="quoteright" format="2">
  <advance width="342.0"/>
  <unicode hex="2019"/>
  <outline>
    <contour>
      <point x="189.0" y="561.5" type="curve" smooth="yes"/>
      <point x="202.5" y="561.5"/>
      <point x="213.0" y="573.5"/>
      <point x="227.0" y="589.5" type="curve" smooth="yes"/>
      <point x="247.5" y="609.5"/>
      <point x="301.5" y="684.0"/>
      <point x="301.5" y="725.5" type="curve" smooth="yes"/>
      <point x="301.5" y="761.0"/>
      <point x="279.5" y="777.0"/>
      <point x="251.0" y="777.0" type="curve" smooth="yes"/>
      <point x="217.0" y="777.0"/>
      <point x="188.5" y="749.0"/>
      <point x="188.5" y="719.0" type="curve" smooth="yes"/>
      <point x="188.5" y="696.0"/>
      <point x="207.5" y="677.0"/>
      <point x="235.5" y="673.5" type="curve"/>
      <point x="223.0" y="639.5"/>
      <point x="200.0" y="612.0"/>
      <point x="185.5" y="596.5" type="curve" smooth="yes"/>
      <point x="177.0" y="587.0"/>
      <point x="173.0" y="582.5"/>
      <point x="173.0" y="575.5" type="curve" smooth="yes"/>
      <point x="173.0" y="571.0"/>
      <point x="176.5" y="561.5"/>
    </contour>
  </outline>
</glyph>
<glyph name="quotedblleft" format="2">
  <advance width="562.0"/>
  <unicode hex="201C"/>
  <outline>
    <contour>
      <point x="338.0" y="561.0" type="curve" smooth="yes"/>
      <point x="372.5" y="561.0"/>
      <point x="401.0" y="589.0"/>
      <point x="401.0" y="619.0" type="curve" smooth="yes"/>
      <point x="401.0" y="642.5"/>
      <point x="381.5" y="661.0"/>
      <point x="353.5" y="664.5" type="curve"/>
      <point x="366.0" y="699.0"/>
      <point x="389.0" y="726.5"/>
      <point x="404.0" y="742.0" type="curve" smooth="yes"/>
      <point x="412.0" y="751.0"/>
      <point x="416.0" y="755.5"/>
      <point x="416.0" y="763.0" type="curve" smooth="yes"/>
      <point x="416.0" y="766.5"/>
      <point x="413.0" y="776.5"/>
      <point x="400.5" y="776.5" type="curve" smooth="yes"/>
      <point x="388.5" y="776.5"/>
      <point x="376.0" y="765.0"/>
      <point x="362.0" y="748.5" type="curve" smooth="yes"/>
      <point x="342.0" y="729.0"/>
      <point x="288.0" y="654.0"/>
      <point x="288.0" y="612.5" type="curve" smooth="yes"/>
      <point x="288.0" y="577.0"/>
      <point x="309.5" y="561.0"/>
    </contour>
    <contour>
      <point x="142.5" y="561.0" type="curve" smooth="yes"/>
      <point x="176.5" y="561.0"/>
      <point x="205.0" y="589.0"/>
      <point x="205.0" y="619.0" type="curve" smooth="yes"/>
      <point x="205.0" y="642.5"/>
      <point x="186.0" y="661.0"/>
      <point x="157.5" y="664.5" type="curve"/>
      <point x="170.5" y="699.0"/>
      <point x="193.0" y="726.5"/>
      <point x="208.0" y="742.0" type="curve" smooth="yes"/>
      <point x="216.0" y="751.0"/>
      <point x="220.5" y="755.5"/>
      <point x="220.5" y="763.0" type="curve" smooth="yes"/>
      <point x="220.5" y="766.5"/>
      <point x="217.0" y="776.5"/>
      <point x="204.5" y="776.5" type="curve" smooth="yes"/>
      <point x="192.5" y="776.5"/>
      <point x="180.5" y="765.0"/>
      <point x="166.5" y="748.5" type="curve" smooth="yes"/>
      <point x="146.0" y="729.0"/>
      <point x="92.0" y="654.0"/>
      <point x="92.0" y="612.5" type="curve" smooth="yes"/>
      <point x="92.0" y="577.0"/>
      <point x="113.5" y="561.0"/>
    </contour>
  </outline>
</glyph>
<glyph name="quotedblright" format="2">
  <advance width="562.0"/>
  <unicode hex="201D"/>
  <outline>
    <contour>
      <point x="365.0" y="561.5" type="curve" smooth="yes"/>
      <point x="377.0" y="561.5"/>
      <point x="390.0" y="573.0"/>
      <point x="403.5" y="589.5" type="curve" smooth="yes"/>
      <point x="424.0" y="609.5"/>
      <point x="477.5" y="684.0"/>
      <point x="477.5" y="725.5" type="curve" smooth="yes"/>
      <point x="477.5" y="761.0"/>
      <point x="456.0" y="777.0"/>
      <point x="427.5" y="777.0" type="curve" smooth="yes"/>
      <point x="393.0" y="777.0"/>
      <point x="364.5" y="749.0"/>
      <point x="364.5" y="719.0" type="curve" smooth="yes"/>
      <point x="364.5" y="696.0"/>
      <point x="384.0" y="677.0"/>
      <point x="412.0" y="673.5" type="curve"/>
      <point x="399.5" y="639.5"/>
      <point x="376.5" y="612.0"/>
      <point x="362.0" y="596.5" type="curve" smooth="yes"/>
      <point x="353.5" y="587.0"/>
      <point x="349.5" y="582.5"/>
      <point x="349.5" y="575.5" type="curve" smooth="yes"/>
      <point x="349.5" y="571.0"/>
      <point x="352.5" y="561.5"/>
    </contour>
    <contour>
      <point x="169.5" y="561.5" type="curve" smooth="yes"/>
      <point x="181.5" y="561.5"/>
      <point x="193.5" y="573.0"/>
      <point x="207.5" y="589.5" type="curve" smooth="yes"/>
      <point x="228.0" y="609.5"/>
      <point x="282.0" y="684.0"/>
      <point x="282.0" y="725.5" type="curve" smooth="yes"/>
      <point x="282.0" y="761.0"/>
      <point x="260.0" y="777.0"/>
      <point x="231.5" y="777.0" type="curve" smooth="yes"/>
      <point x="197.5" y="777.0"/>
      <point x="169.0" y="749.0"/>
      <point x="169.0" y="719.0" type="curve" smooth="yes"/>
      <point x="169.0" y="696.0"/>
      <point x="188.0" y="677.0"/>
      <point x="216.0" y="673.5" type="curve"/>
      <point x="203.5" y="639.5"/>
      <point x="180.5" y="612.0"/>
      <point x="166.0" y="596.5" type="curve" smooth="yes"/>
      <point x="157.5" y="587.0"/>
      <point x="153.5" y="582.5"/>
      <point x="153.5" y="575.5" type="curve" smooth="yes"/>
      <point x="153.5" y="571.0"/>
      <point x="157.0" y="561.5"/>
    </contour>
  </outline>
</glyph>
<glyph name="uniFDF2" format="2">
  <advance width="977.0"/>
  <unicode hex="FDF2"/>
  <outline>
    <contour>
      <point x="416.0" y="0.0" type="curve" smooth="yes"/>
      <point x="463.0" y="0.0"/>
      <point x="486.5" y="6.0"/>
      <point x="527.0" y="30.0" type="curve"/>
      <point x="548.5" y="10.5"/>
      <point x="579.0" y="2.0"/>
      <point x="616.5" y="2.0" type="curve" smooth="yes"/>
      <point x="683.5" y="2.0"/>
      <point x="723.0" y="26.5"/>
      <point x="737.0" y="50.5" type="curve" smooth="yes"/>
      <point x="754.5" y="81.0"/>
      <point x="760.0" y="103.5"/>
      <point x="760.0" y="122.5" type="curve"/>
      <point x="758.0" y="204.5"/>
      <point x="754.0" y="283.5"/>
      <point x="741.0" y="565.0" type="curve"/>
      <point x="722.0" y="551.5"/>
      <point x="708.5" y="538.5"/>
      <point x="694.5" y="521.5" type="curve"/>
      <point x="708.0" y="371.5"/>
      <point x="720.0" y="227.5"/>
      <point x="729.0" y="88.0" type="curve"/>
      <point x="692.0" y="61.0"/>
      <point x="659.5" y="49.0"/>
      <point x="618.0" y="49.0" type="curve" smooth="yes"/>
      <point x="588.5" y="49.0"/>
      <point x="565.5" y="56.5"/>
      <point x="541.0" y="70.0" type="curve"/>
      <point x="529.0" y="483.0" type="line"/>
      <point x="507.0" y="469.0"/>
      <point x="495.0" y="459.5"/>
      <point x="481.0" y="445.0" type="curve"/>
      <point x="510.5" y="71.5" type="line"/>
      <point x="477.5" y="55.5"/>
      <point x="448.0" y="48.0"/>
      <point x="414.0" y="48.0" type="curve" smooth="yes"/>
      <point x="380.0" y="48.0"/>
      <point x="351.0" y="55.0"/>
      <point x="320.5" y="70.0" type="curve"/>
      <point x="300.5" y="387.0" type="line"/>
      <point x="279.5" y="374.5"/>
      <point x="264.0" y="363.5"/>
      <point x="251.0" y="352.0" type="curve"/>
      <point x="256.0" y="317.0" type="line"/>
      <point x="184.0" y="287.0"/>
      <point x="114.5" y="240.5"/>
      <point x="87.5" y="186.5" type="curve" smooth="yes"/>
      <point x="76.5" y="164.5"/>
      <point x="68.0" y="144.0"/>
      <point x="68.0" y="131.0" type="curve" smooth="yes"/>
      <point x="68.0" y="94.0"/>
      <point x="171.5" y="59.0"/>
      <point x="257.0" y="54.0" type="curve"/>
      <point x="267.0" y="66.5"/>
      <point x="277.5" y="77.5"/>
      <point x="286.0" y="90.5" type="curve"/>
      <point x="301.0" y="22.5"/>
      <point x="329.0" y="0.0"/>
    </contour>
    <contour>
      <point x="284.0" y="103.5" type="curve"/>
      <point x="210.5" y="104.5"/>
      <point x="149.5" y="115.5"/>
      <point x="100.0" y="152.0" type="curve"/>
      <point x="130.5" y="214.0"/>
      <point x="193.0" y="250.5"/>
      <point x="261.5" y="277.0" type="curve"/>
      <point x="268.0" y="219.5"/>
      <point x="277.5" y="161.0"/>
    </contour>
    <contour>
      <point x="443.0" y="526.0" type="curve" smooth="yes"/>
      <point x="464.5" y="526.0"/>
      <point x="486.0" y="542.0"/>
      <point x="495.0" y="568.0" type="curve"/>
      <point x="505.0" y="554.0"/>
      <point x="521.5" y="548.5"/>
      <point x="533.5" y="548.5" type="curve" smooth="yes"/>
      <point x="566.5" y="548.5"/>
      <point x="591.0" y="559.5"/>
      <point x="591.0" y="593.0" type="curve" smooth="yes"/>
      <point x="591.0" y="611.0"/>
      <point x="585.0" y="657.0"/>
      <point x="570.0" y="686.0" type="curve"/>
      <point x="556.5" y="683.0"/>
      <point x="548.0" y="672.0"/>
      <point x="548.0" y="658.0" type="curve"/>
      <point x="548.5" y="648.5" type="line"/>
      <point x="558.0" y="626.0"/>
      <point x="563.0" y="610.5"/>
      <point x="565.0" y="602.5" type="curve"/>
      <point x="562.5" y="595.0"/>
      <point x="552.5" y="582.5"/>
      <point x="541.0" y="582.5" type="curve" smooth="yes"/>
      <point x="510.0" y="582.5"/>
      <point x="502.0" y="608.5"/>
      <point x="498.0" y="651.0" type="curve"/>
      <point x="475.0" y="636.0" type="line"/>
      <point x="476.0" y="582.5"/>
      <point x="472.5" y="559.5"/>
      <point x="446.5" y="559.5" type="curve" smooth="yes"/>
      <point x="431.0" y="559.5"/>
      <point x="421.5" y="568.5"/>
      <point x="421.5" y="588.5" type="curve" smooth="yes"/>
      <point x="421.5" y="599.0"/>
      <point x="423.5" y="610.0"/>
      <point x="425.5" y="621.0" type="curve"/>
      <point x="408.0" y="626.0" type="line"/>
      <point x="399.0" y="609.0"/>
      <point x="396.0" y="595.0"/>
      <point x="396.0" y="578.0" type="curve" smooth="yes"/>
      <point x="396.0" y="546.0"/>
      <point x="414.0" y="526.0"/>
    </contour>
    <contour>
      <point x="486.5" y="681.0" type="line"/>
      <point x="493.5" y="699.5"/>
      <point x="498.0" y="722.0"/>
      <point x="498.0" y="749.0" type="curve" smooth="yes"/>
      <point x="498.0" y="777.0"/>
      <point x="496.0" y="803.5"/>
      <point x="489.5" y="829.5" type="curve"/>
      <point x="475.0" y="826.0"/>
      <point x="465.0" y="818.5"/>
      <point x="465.0" y="799.0" type="curve"/>
      <point x="465.0" y="772.0"/>
      <point x="478.0" y="701.5"/>
      <point x="478.0" y="683.5" type="curve"/>
    </contour>
    <contour>
      <point x="868.0" y="26.0" type="curve"/>
      <point x="898.0" y="34.0" type="line"/>
      <point x="899.5" y="160.5"/>
      <point x="897.0" y="458.0"/>
      <point x="897.0" y="516.0" type="curve"/>
      <point x="923.0" y="535.0" type="line"/>
      <point x="913.5" y="558.5"/>
      <point x="904.5" y="581.5"/>
      <point x="895.0" y="605.0" type="curve"/>
      <point x="860.0" y="597.0"/>
      <point x="845.0" y="576.0"/>
      <point x="845.0" y="527.0" type="curve" smooth="yes"/>
      <point x="845.0" y="478.0"/>
      <point x="864.0" y="226.0"/>
    </contour>
  </outline>
</glyph>
<glyph name="uniFDFD" format="2">
  <advance width="1942.0"/>
  <unicode hex="FDFD"/>
  <outline>
    <contour>
      <point x="163.0" y="249.0" type="curve"/>
      <point x="184.0" y="266.0"/>
      <point x="193.0" y="282.0"/>
      <point x="199.0" y="290.0" type="curve"/>
      <point x="186.0" y="301.0"/>
      <point x="175.0" y="311.0"/>
      <point x="162.0" y="326.0" type="curve"/>
      <point x="151.0" y="315.0"/>
      <point x="136.0" y="298.0"/>
      <point x="122.0" y="285.0" type="curve"/>
      <point x="138.0" y="269.0"/>
      <point x="150.0" y="258.0"/>
    </contour>
    <contour>
      <point x="596.0" y="-43.0" type="curve"/>
      <point x="574.0" y="-42.0"/>
      <point x="553.0" y="-38.0"/>
      <point x="534.0" y="-32.0" type="curve" smooth="yes"/>
      <point x="515.0" y="-26.0"/>
      <point x="499.0" y="-18.0"/>
      <point x="485.0" y="-6.0" type="curve"/>
      <point x="497.0" y="21.0"/>
      <point x="540.0" y="56.0"/>
      <point x="561.0" y="65.0" type="curve"/>
      <point x="563.0" y="35.0"/>
      <point x="575.0" y="-13.0"/>
    </contour>
    <contour>
      <point x="718.0" y="-179.0" type="curve"/>
      <point x="736.0" y="-163.0"/>
      <point x="747.0" y="-152.0"/>
      <point x="752.0" y="-141.0" type="curve"/>
      <point x="742.0" y="-129.0"/>
      <point x="731.0" y="-120.0"/>
      <point x="718.0" y="-107.0" type="curve"/>
      <point x="708.0" y="-118.0"/>
      <point x="694.0" y="-132.0"/>
      <point x="681.0" y="-144.0" type="curve"/>
      <point x="692.0" y="-158.0"/>
      <point x="706.0" y="-169.0"/>
    </contour>
    <contour>
      <point x="804.0" y="-171.0" type="curve"/>
      <point x="820.0" y="-155.0"/>
      <point x="831.0" y="-144.0"/>
      <point x="837.0" y="-132.0" type="curve"/>
      <point x="828.0" y="-122.0"/>
      <point x="814.0" y="-112.0"/>
      <point x="802.0" y="-98.0" type="curve"/>
      <point x="792.0" y="-110.0"/>
      <point x="779.0" y="-125.0"/>
      <point x="766.0" y="-136.0" type="curve"/>
      <point x="777.0" y="-150.0"/>
      <point x="791.0" y="-161.0"/>
    </contour>
    <contour>
      <point x="512.0" y="205.0" type="curve"/>
      <point x="490.0" y="206.0"/>
      <point x="469.0" y="210.0"/>
      <point x="450.0" y="217.0" type="curve" smooth="yes"/>
      <point x="431.0" y="224.0"/>
      <point x="414.0" y="232.0"/>
      <point x="401.0" y="242.0" type="curve"/>
      <point x="411.0" y="266.0"/>
      <point x="447.0" y="299.0"/>
      <point x="478.0" y="313.0" type="curve"/>
      <point x="481.0" y="282.0"/>
      <point x="490.0" y="237.0"/>
    </contour>
    <contour>
      <point x="441.0" y="454.0" type="curve"/>
      <point x="418.0" y="456.0"/>
      <point x="399.0" y="459.0"/>
      <point x="379.0" y="466.0" type="curve" smooth="yes"/>
      <point x="359.0" y="473.0"/>
      <point x="343.0" y="480.0"/>
      <point x="330.0" y="492.0" type="curve"/>
      <point x="341.0" y="520.0"/>
      <point x="384.0" y="552.0"/>
      <point x="406.0" y="563.0" type="curve"/>
      <point x="410.0" y="529.0"/>
      <point x="420.0" y="483.0"/>
    </contour>
    <contour>
      <point x="674.0" y="578.0" type="curve"/>
      <point x="651.0" y="579.0"/>
      <point x="630.0" y="580.0"/>
      <point x="608.0" y="586.0" type="curve" smooth="yes"/>
      <point x="591.0" y="591.0"/>
      <point x="575.0" y="602.0"/>
      <point x="564.0" y="610.0" type="curve"/>
      <point x="587.0" y="638.0"/>
      <point x="624.0" y="657.0"/>
      <point x="659.0" y="668.0" type="curve"/>
      <point x="664.0" y="635.0"/>
      <point x="669.0" y="604.0"/>
    </contour>
    <contour>
      <point x="1204.0" y="-174.0" type="curve" smooth="yes"/>
      <point x="1275.0" y="-174.0"/>
      <point x="1317.0" y="-112.0"/>
      <point x="1328.0" y="-45.0" type="curve"/>
      <point x="1340.0" y="-55.0"/>
      <point x="1355.0" y="-60.0"/>
      <point x="1374.0" y="-60.0" type="curve" smooth="yes"/>
      <point x="1376.0" y="-60.0"/>
      <point x="1378.0" y="-59.0"/>
      <point x="1378.0" y="-57.0" type="curve"/>
      <point x="1379.0" y="-59.0"/>
      <point x="1380.0" y="-60.0"/>
      <point x="1383.0" y="-60.0" type="curve" smooth="yes"/>
      <point x="1453.0" y="-60.0"/>
      <point x="1454.0" y="-36.0"/>
      <point x="1463.0" y="-11.0" type="curve" smooth="yes"/>
      <point x="1467.0" y="0.0"/>
      <point x="1469.0" y="9.0"/>
      <point x="1469.0" y="17.0" type="curve" smooth="yes"/>
      <point x="1469.0" y="65.0"/>
      <point x="1466.0" y="109.0"/>
      <point x="1463.0" y="159.0" type="curve"/>
      <point x="1460.0" y="208.0"/>
      <point x="1457.0" y="260.0"/>
      <point x="1455.0" y="319.0" type="curve"/>
      <point x="1440.0" y="309.0"/>
      <point x="1430.0" y="302.0"/>
      <point x="1417.0" y="287.0" type="curve"/>
      <point x="1428.0" y="189.0"/>
      <point x="1438.0" y="92.0"/>
      <point x="1445.0" y="-2.0" type="curve"/>
      <point x="1428.0" y="-11.0"/>
      <point x="1407.0" y="-17.0"/>
      <point x="1383.0" y="-17.0" type="curve" smooth="yes"/>
      <point x="1380.0" y="-17.0"/>
      <point x="1379.0" y="-18.0"/>
      <point x="1378.0" y="-20.0" type="curve"/>
      <point x="1377.0" y="-15.0"/>
      <point x="1360.0" y="-16.0"/>
      <point x="1352.0" y="-15.0" type="curve" smooth="yes"/>
      <point x="1346.0" y="-14.0"/>
      <point x="1337.0" y="-10.0"/>
      <point x="1330.0" y="-6.0" type="curve"/>
      <point x="1326.0" y="38.0"/>
      <point x="1296.0" y="93.0"/>
      <point x="1287.0" y="132.0" type="curve"/>
      <point x="1266.0" y="122.0"/>
      <point x="1254.0" y="112.0"/>
      <point x="1254.0" y="93.0" type="curve" smooth="yes"/>
      <point x="1254.0" y="66.0"/>
      <point x="1276.0" y="31.0"/>
      <point x="1282.0" y="20.0" type="curve" smooth="yes"/>
      <point x="1292.0" y="3.0"/>
      <point x="1299.0" y="-8.0"/>
      <point x="1309.0" y="-32.0" type="curve"/>
      <point x="1291.0" y="-88.0"/>
      <point x="1255.0" y="-130.0"/>
      <point x="1191.0" y="-130.0" type="curve" smooth="yes"/>
      <point x="1173.0" y="-130.0"/>
      <point x="1164.0" y="-130.0"/>
      <point x="1138.0" y="-125.0" type="curve"/>
      <point x="1130.0" y="-143.0" type="line"/>
      <point x="1152.0" y="-162.0"/>
      <point x="1188.0" y="-174.0"/>
    </contour>
    <contour>
      <point x="756.0" y="499.0" type="curve" smooth="yes"/>
      <point x="792.0" y="499.0"/>
      <point x="806.0" y="503.0"/>
      <point x="836.0" y="519.0" type="curve"/>
      <point x="851.0" y="504.0"/>
      <point x="877.0" y="499.0"/>
      <point x="900.0" y="499.0" type="curve" smooth="yes"/>
      <point x="938.0" y="499.0"/>
      <point x="959.0" y="505.0"/>
      <point x="967.0" y="519.0" type="curve" smooth="yes"/>
      <point x="977.0" y="537.0"/>
      <point x="987.0" y="560.0"/>
      <point x="987.0" y="575.0" type="curve"/>
      <point x="985.0" y="671.0"/>
      <point x="977.0" y="760.0"/>
      <point x="973.0" y="877.0" type="curve"/>
      <point x="958.0" y="867.0"/>
      <point x="948.0" y="859.0"/>
      <point x="935.0" y="845.0" type="curve"/>
      <point x="946.0" y="748.0"/>
      <point x="955.0" y="650.0"/>
      <point x="962.0" y="557.0" type="curve"/>
      <point x="945.0" y="547.0"/>
      <point x="924.0" y="542.0"/>
      <point x="900.0" y="542.0" type="curve" smooth="yes"/>
      <point x="899.0" y="542.0" type="line" smooth="yes"/>
      <point x="876.0" y="542.0"/>
      <point x="857.0" y="547.0"/>
      <point x="842.0" y="557.0" type="curve"/>
      <point x="839.0" y="641.0"/>
      <point x="839.0" y="695.0"/>
      <point x="835.0" y="808.0" type="curve"/>
      <point x="822.0" y="800.0"/>
      <point x="811.0" y="792.0"/>
      <point x="797.0" y="776.0" type="curve"/>
      <point x="801.0" y="707.0"/>
      <point x="809.0" y="643.0"/>
      <point x="819.0" y="557.0" type="curve"/>
      <point x="794.0" y="544.0"/>
      <point x="773.0" y="542.0"/>
      <point x="758.0" y="542.0" type="curve" smooth="yes"/>
      <point x="732.0" y="542.0"/>
      <point x="714.0" y="547.0"/>
      <point x="699.0" y="557.0" type="curve"/>
      <point x="699.0" y="568.0"/>
      <point x="698.0" y="580.0"/>
      <point x="698.0" y="592.0" type="curve" smooth="yes"/>
      <point x="697.0" y="632.0"/>
      <point x="696.0" y="679.0"/>
      <point x="693.0" y="761.0" type="curve"/>
      <point x="678.0" y="751.0"/>
      <point x="666.0" y="743.0"/>
      <point x="651.0" y="729.0" type="curve"/>
      <point x="653.0" y="706.0" type="line"/>
      <point x="613.0" y="688.0"/>
      <point x="574.0" y="664.0"/>
      <point x="557.0" y="636.0" type="curve" smooth="yes"/>
      <point x="551.0" y="627.0"/>
      <point x="537.0" y="594.0"/>
      <point x="537.0" y="584.0" type="curve" smooth="yes"/>
      <point x="537.0" y="575.0"/>
      <point x="549.0" y="566.0"/>
      <point x="562.0" y="559.0" type="curve" smooth="yes"/>
      <point x="592.0" y="542.0"/>
      <point x="609.0" y="533.0"/>
      <point x="655.0" y="532.0" type="curve"/>
      <point x="675.0" y="568.0" type="line"/>
      <point x="678.0" y="548.0" type="line" smooth="yes"/>
      <point x="684.0" y="513.0"/>
      <point x="719.0" y="499.0"/>
    </contour>
    <contour>
      <point x="780.0" y="828.0" type="curve" smooth="yes"/>
      <point x="793.0" y="828.0"/>
      <point x="804.0" y="837.0"/>
      <point x="812.0" y="853.0" type="curve"/>
      <point x="817.0" y="845.0"/>
      <point x="826.0" y="842.0"/>
      <point x="834.0" y="842.0" type="curve" smooth="yes"/>
      <point x="854.0" y="842.0"/>
      <point x="868.0" y="864.0"/>
      <point x="868.0" y="882.0" type="curve" smooth="yes"/>
      <point x="868.0" y="888.0"/>
      <point x="866.0" y="909.0"/>
      <point x="856.0" y="924.0" type="curve"/>
      <point x="851.0" y="923.0"/>
      <point x="839.0" y="916.0"/>
      <point x="839.0" y="906.0" type="curve" smooth="yes"/>
      <point x="839.0" y="904.0"/>
      <point x="840.0" y="901.0"/>
      <point x="841.0" y="899.0" type="curve" smooth="yes"/>
      <point x="846.0" y="887.0"/>
      <point x="850.0" y="878.0"/>
      <point x="851.0" y="874.0" type="curve"/>
      <point x="849.0" y="870.0"/>
      <point x="844.0" y="866.0"/>
      <point x="838.0" y="866.0" type="curve" smooth="yes"/>
      <point x="819.0" y="866.0"/>
      <point x="814.0" y="881.0"/>
      <point x="812.0" y="903.0" type="curve"/>
      <point x="797.0" y="893.0" type="line"/>
      <point x="797.0" y="886.0"/>
      <point x="798.0" y="878.0"/>
      <point x="798.0" y="871.0" type="curve" smooth="yes"/>
      <point x="798.0" y="861.0"/>
      <point x="791.0" y="852.0"/>
      <point x="782.0" y="852.0" type="curve" smooth="yes"/>
      <point x="772.0" y="852.0"/>
      <point x="766.0" y="856.0"/>
      <point x="766.0" y="870.0" type="curve" smooth="yes"/>
      <point x="766.0" y="875.0"/>
      <point x="766.0" y="876.0"/>
      <point x="768.0" y="886.0" type="curve"/>
      <point x="759.0" y="888.0" type="line"/>
      <point x="754.0" y="879.0"/>
      <point x="751.0" y="867.0"/>
      <point x="751.0" y="859.0" type="curve" smooth="yes"/>
      <point x="751.0" y="840.0"/>
      <point x="763.0" y="828.0"/>
    </contour>
    <contour>
      <point x="1547.0" y="-60.0" type="curve"/>
      <point x="1573.0" y="-55.0" type="line"/>
      <point x="1576.0" y="9.0"/>
      <point x="1577.0" y="54.0"/>
      <point x="1577.0" y="91.0" type="curve" smooth="yes"/>
      <point x="1577.0" y="127.0" type="line" smooth="yes"/>
      <point x="1577.0" y="137.0"/>
      <point x="1575.0" y="227.0"/>
      <point x="1574.0" y="238.0" type="curve"/>
      <point x="1589.0" y="251.0" type="line"/>
      <point x="1581.0" y="277.0"/>
      <point x="1575.0" y="286.0"/>
      <point x="1569.0" y="319.0" type="curve"/>
      <point x="1549.0" y="315.0"/>
      <point x="1532.0" y="305.0"/>
      <point x="1532.0" y="274.0" type="curve" smooth="yes"/>
      <point x="1532.0" y="234.0"/>
      <point x="1540.0" y="161.0"/>
      <point x="1542.0" y="124.0" type="curve" smooth="yes"/>
      <point x="1545.0" y="64.0"/>
      <point x="1547.0" y="25.0"/>
    </contour>
    <contour>
      <point x="1070.0" y="499.0" type="curve"/>
      <point x="1096.0" y="504.0" type="line"/>
      <point x="1099.0" y="569.0"/>
      <point x="1100.0" y="614.0"/>
      <point x="1100.0" y="651.0" type="curve" smooth="yes"/>
      <point x="1100.0" y="687.0" type="line" smooth="yes"/>
      <point x="1100.0" y="703.0"/>
      <point x="1097.0" y="760.0"/>
      <point x="1097.0" y="797.0" type="curve"/>
      <point x="1112.0" y="810.0" type="line"/>
      <point x="1104.0" y="833.0"/>
      <point x="1099.0" y="845.0"/>
      <point x="1091.0" y="877.0" type="curve"/>
      <point x="1074.0" y="875.0"/>
      <point x="1054.0" y="864.0"/>
      <point x="1054.0" y="833.0" type="curve" smooth="yes"/>
      <point x="1054.0" y="831.0"/>
      <point x="1055.0" y="829.0"/>
      <point x="1055.0" y="827.0" type="curve" smooth="yes"/>
      <point x="1058.0" y="797.0"/>
      <point x="1061.0" y="754.0"/>
      <point x="1062.0" y="716.0" type="curve" smooth="yes"/>
      <point x="1064.0" y="645.0"/>
      <point x="1068.0" y="599.0"/>
    </contour>
    <contour>
      <point x="796.0" y="915.0" type="line"/>
      <point x="808.0" y="931.0"/>
      <point x="812.0" y="948.0"/>
      <point x="812.0" y="967.0" type="curve" smooth="yes"/>
      <point x="812.0" y="1006.0"/>
      <point x="809.0" y="1024.0"/>
      <point x="803.0" y="1058.0" type="curve"/>
      <point x="789.0" y="1052.0"/>
      <point x="781.0" y="1039.0"/>
      <point x="781.0" y="1023.0" type="curve" smooth="yes"/>
      <point x="781.0" y="1008.0"/>
      <point x="793.0" y="985.0"/>
      <point x="793.0" y="916.0" type="curve"/>
    </contour>
    <contour>
      <point x="1834.0" y="297.0" type="curve"/>
      <point x="1853.0" y="316.0"/>
      <point x="1862.0" y="327.0"/>
      <point x="1870.0" y="338.0" type="curve"/>
      <point x="1858.0" y="349.0"/>
      <point x="1846.0" y="361.0"/>
      <point x="1833.0" y="375.0" type="curve"/>
      <point x="1822.0" y="362.0"/>
      <point x="1806.0" y="346.0"/>
      <point x="1793.0" y="334.0" type="curve"/>
      <point x="1805.0" y="321.0"/>
      <point x="1820.0" y="308.0"/>
    </contour>
    <contour>
      <point x="412.0" y="-273.0" type="curve"/>
      <point x="425.0" y="-264.0"/>
      <point x="436.0" y="-256.0"/>
      <point x="449.0" y="-241.0" type="curve"/>
      <point x="440.0" y="-146.0"/>
      <point x="427.0" y="-95.0"/>
      <point x="418.0" y="-12.0" type="curve"/>
      <point x="432.0" y="-2.0"/>
      <point x="447.0" y="10.0"/>
      <point x="465.0" y="21.0" type="curve"/>
      <point x="458.0" y="7.0"/>
      <point x="455.0" y="-6.0"/>
      <point x="455.0" y="-17.0" type="curve" smooth="yes"/>
      <point x="455.0" y="-66.0"/>
      <point x="545.0" y="-83.0"/>
      <point x="600.0" y="-83.0" type="curve"/>
      <point x="607.0" y="-59.0" type="line"/>
      <point x="621.0" y="-74.0"/>
      <point x="638.0" y="-83.0"/>
      <point x="658.0" y="-83.0" type="curve" smooth="yes"/>
      <point x="707.0" y="-83.0"/>
      <point x="755.0" y="-59.0"/>
      <point x="770.0" y="-35.0" type="curve"/>
      <point x="795.0" y="-58.0"/>
      <point x="823.0" y="-68.0"/>
      <point x="858.0" y="-68.0" type="curve" smooth="yes"/>
      <point x="964.0" y="-68.0"/>
      <point x="985.0" y="-57.0"/>
      <point x="1034.0" y="-32.0" type="curve" smooth="yes"/>
      <point x="1082.0" y="-7.0"/>
      <point x="1095.0" y="-1.0"/>
      <point x="1137.0" y="-1.0" type="curve" smooth="yes"/>
      <point x="1146.0" y="-1.0"/>
      <point x="1153.0" y="-2.0"/>
      <point x="1171.0" y="-5.0" type="curve"/>
      <point x="1193.0" y="37.0" type="line"/>
      <point x="1148.0" y="37.0"/>
      <point x="1111.0" y="42.0"/>
      <point x="1079.0" y="63.0" type="curve" smooth="yes"/>
      <point x="1068.0" y="70.0"/>
      <point x="1058.0" y="77.0"/>
      <point x="1048.0" y="83.0" type="curve" smooth="yes"/>
      <point x="1044.0" y="86.0" type="line"/>
      <point x="1051.0" y="92.0"/>
      <point x="1056.0" y="99.0"/>
      <point x="1061.0" y="107.0" type="curve" smooth="yes"/>
      <point x="1075.0" y="128.0"/>
      <point x="1083.0" y="152.0"/>
      <point x="1087.0" y="179.0" type="curve"/>
      <point x="1100.0" y="168.0"/>
      <point x="1144.0" y="166.0"/>
      <point x="1162.0" y="166.0" type="curve" smooth="yes"/>
      <point x="1197.0" y="166.0"/>
      <point x="1239.0" y="173.0"/>
      <point x="1245.0" y="185.0" type="curve" smooth="yes"/>
      <point x="1254.0" y="203.0"/>
      <point x="1264.0" y="226.0"/>
      <point x="1264.0" y="241.0" type="curve" smooth="yes"/>
      <point x="1264.0" y="290.0"/>
      <point x="1261.0" y="337.0"/>
      <point x="1258.0" y="384.0" type="curve" smooth="yes"/>
      <point x="1256.0" y="415.0" type="line"/>
      <point x="1319.0" y="415.0" type="line"/>
      <point x="1322.0" y="348.0" type="line" smooth="yes"/>
      <point x="1326.0" y="261.0"/>
      <point x="1330.0" y="210.0"/>
      <point x="1331.0" y="166.0" type="curve"/>
      <point x="1355.0" y="170.0" type="line"/>
      <point x="1359.0" y="260.0"/>
      <point x="1358.0" y="284.0"/>
      <point x="1358.0" y="330.0" type="curve" smooth="yes"/>
      <point x="1358.0" y="351.0"/>
      <point x="1358.0" y="384.0"/>
      <point x="1357.0" y="410.0" type="curve" smooth="yes"/>
      <point x="1357.0" y="415.0" type="line"/>
      <point x="1398.0" y="415.0" type="line" smooth="yes"/>
      <point x="1429.0" y="415.0"/>
      <point x="1444.0" y="424.0"/>
      <point x="1452.0" y="431.0" type="curve"/>
      <point x="1472.0" y="419.0"/>
      <point x="1503.0" y="415.0"/>
      <point x="1521.0" y="415.0" type="curve" smooth="yes"/>
      <point x="1555.0" y="415.0"/>
      <point x="1581.0" y="419.0"/>
      <point x="1588.0" y="429.0" type="curve"/>
      <point x="1602.0" y="419.0"/>
      <point x="1614.0" y="415.0"/>
      <point x="1634.0" y="415.0" type="curve" smooth="yes"/>
      <point x="1655.0" y="415.0"/>
      <point x="1679.0" y="421.0"/>
      <point x="1684.0" y="430.0" type="curve"/>
      <point x="1692.0" y="445.0" type="line"/>
      <point x="1709.0" y="427.0"/>
      <point x="1742.0" y="415.0"/>
      <point x="1773.0" y="415.0" type="curve"/>
      <point x="1797.0" y="415.0"/>
      <point x="1832.0" y="420.0"/>
      <point x="1874.0" y="445.0" type="curve"/>
      <point x="1881.0" y="464.0"/>
      <point x="1894.0" y="484.0"/>
      <point x="1894.0" y="503.0" type="curve" smooth="yes"/>
      <point x="1894.0" y="511.0"/>
      <point x="1892.0" y="522.0"/>
      <point x="1891.0" y="530.0" type="curve" smooth="yes"/>
      <point x="1886.0" y="563.0"/>
      <point x="1876.0" y="593.0"/>
      <point x="1873.0" y="625.0" type="curve"/>
      <point x="1855.0" y="615.0"/>
      <point x="1835.0" y="599.0"/>
      <point x="1835.0" y="577.0" type="curve" smooth="yes"/>
      <point x="1835.0" y="562.0"/>
      <point x="1853.0" y="530.0"/>
      <point x="1866.0" y="478.0" type="curve"/>
      <point x="1824.0" y="458.0"/>
      <point x="1775.0" y="458.0"/>
      <point x="1770.0" y="458.0" type="curve" smooth="yes"/>
      <point x="1740.0" y="458.0"/>
      <point x="1723.0" y="465.0"/>
      <point x="1704.0" y="477.0" type="curve"/>
      <point x="1713.0" y="504.0"/>
      <point x="1724.0" y="535.0"/>
      <point x="1733.0" y="557.0" type="curve"/>
      <point x="1729.0" y="561.0"/>
      <point x="1722.0" y="561.0"/>
      <point x="1716.0" y="561.0" type="curve" smooth="yes"/>
      <point x="1697.0" y="561.0"/>
      <point x="1686.0" y="514.0"/>
      <point x="1674.0" y="481.0" type="curve" smooth="yes"/>
      <point x="1671.0" y="474.0"/>
      <point x="1668.0" y="468.0"/>
      <point x="1666.0" y="464.0" type="curve"/>
      <point x="1651.0" y="459.0"/>
      <point x="1642.0" y="459.0"/>
      <point x="1635.0" y="459.0" type="curve" smooth="yes"/>
      <point x="1623.0" y="459.0"/>
      <point x="1616.0" y="460.0"/>
      <point x="1604.0" y="466.0" type="curve"/>
      <point x="1614.0" y="493.0"/>
      <point x="1624.0" y="527.0"/>
      <point x="1634.0" y="552.0" type="curve"/>
      <point x="1630.0" y="555.0"/>
      <point x="1626.0" y="556.0"/>
      <point x="1621.0" y="556.0" type="curve" smooth="yes"/>
      <point x="1598.0" y="556.0"/>
      <point x="1591.0" y="524.0"/>
      <point x="1585.0" y="502.0" type="curve" smooth="yes"/>
      <point x="1581.0" y="489.0"/>
      <point x="1576.0" y="470.0"/>
      <point x="1571.0" y="463.0" type="curve"/>
      <point x="1558.0" y="458.0"/>
      <point x="1546.0" y="458.0"/>
      <point x="1527.0" y="458.0" type="curve" smooth="yes"/>
      <point x="1510.0" y="458.0"/>
      <point x="1491.0" y="458.0"/>
      <point x="1478.0" y="464.0" type="curve"/>
      <point x="1486.0" y="480.0"/>
      <point x="1491.0" y="494.0"/>
      <point x="1500.0" y="516.0" type="curve"/>
      <point x="1497.0" y="518.0"/>
      <point x="1490.0" y="520.0"/>
      <point x="1487.0" y="520.0" type="curve" smooth="yes"/>
      <point x="1471.0" y="520.0"/>
      <point x="1464.0" y="503.0"/>
      <point x="1460.0" y="496.0" type="curve" smooth="yes"/>
      <point x="1449.0" y="476.0"/>
      <point x="1432.0" y="458.0"/>
      <point x="1394.0" y="458.0" type="curve" smooth="yes"/>
      <point x="1356.0" y="458.0" type="line"/>
      <point x="1356.0" y="465.0"/>
      <point x="1356.0" y="473.0"/>
      <point x="1356.0" y="481.0" type="curve" smooth="yes"/>
      <point x="1354.0" y="531.0"/>
      <point x="1352.0" y="604.0"/>
      <point x="1352.0" y="609.0" type="curve"/>
      <point x="1367.0" y="622.0" type="line"/>
      <point x="1359.0" y="646.0"/>
      <point x="1355.0" y="659.0"/>
      <point x="1348.0" y="688.0" type="curve"/>
      <point x="1320.0" y="686.0"/>
      <point x="1310.0" y="665.0"/>
      <point x="1310.0" y="646.0" type="curve" smooth="yes"/>
      <point x="1310.0" y="642.0" type="line" smooth="yes"/>
      <point x="1310.0" y="641.0"/>
      <point x="1310.0" y="640.0"/>
      <point x="1311.0" y="638.0" type="curve"/>
      <point x="1311.0" y="628.0"/>
      <point x="1317.0" y="471.0"/>
      <point x="1317.0" y="459.0" type="curve" smooth="yes"/>
      <point x="1317.0" y="458.0" type="line"/>
      <point x="1253.0" y="458.0" type="line"/>
      <point x="1252.0" y="470.0" type="line" smooth="yes"/>
      <point x="1251.0" y="483.0"/>
      <point x="1240.0" y="642.0"/>
      <point x="1240.0" y="671.0" type="curve"/>
      <point x="1227.0" y="663.0"/>
      <point x="1218.0" y="655.0"/>
      <point x="1203.0" y="639.0" type="curve"/>
      <point x="1206.0" y="607.0"/>
      <point x="1210.0" y="559.0"/>
      <point x="1215.0" y="502.0" type="curve" smooth="yes"/>
      <point x="1219.0" y="458.0" type="line"/>
      <point x="503.0" y="458.0" type="line" smooth="yes"/>
      <point x="471.0" y="458.0"/>
      <point x="448.0" y="538.0"/>
      <point x="437.0" y="566.0" type="curve" smooth="yes"/>
      <point x="429.0" y="587.0"/>
      <point x="417.0" y="606.0"/>
      <point x="405.0" y="606.0" type="curve" smooth="yes"/>
      <point x="364.0" y="606.0"/>
      <point x="281.0" y="542.0"/>
      <point x="268.0" y="531.0" type="curve" smooth="yes"/>
      <point x="248.0" y="514.0"/>
      <point x="239.0" y="478.0"/>
      <point x="239.0" y="467.0" type="curve" smooth="yes"/>
      <point x="239.0" y="416.0"/>
      <point x="242.0" y="375.0"/>
      <point x="250.0" y="305.0" type="curve" smooth="yes"/>
      <point x="258.0" y="233.0"/>
      <point x="268.0" y="177.0"/>
      <point x="291.0" y="124.0" type="curve"/>
      <point x="269.0" y="79.0"/>
      <point x="199.0" y="54.0"/>
      <point x="152.0" y="54.0" type="curve" smooth="yes"/>
      <point x="107.0" y="54.0"/>
      <point x="74.0" y="81.0"/>
      <point x="74.0" y="141.0" type="curve" smooth="yes"/>
      <point x="74.0" y="152.0"/>
      <point x="77.0" y="167.0"/>
      <point x="81.0" y="181.0" type="curve"/>
      <point x="60.0" y="186.0" type="line"/>
      <point x="51.0" y="147.0"/>
      <point x="49.0" y="137.0"/>
      <point x="49.0" y="113.0" type="curve" smooth="yes"/>
      <point x="49.0" y="53.0"/>
      <point x="81.0" y="7.0"/>
      <point x="151.0" y="7.0" type="curve" smooth="yes"/>
      <point x="229.0" y="7.0"/>
      <point x="312.0" y="70.0"/>
      <point x="312.0" y="145.0" type="curve" smooth="yes"/>
      <point x="312.0" y="155.0"/>
      <point x="311.0" y="165.0"/>
      <point x="310.0" y="173.0" type="curve"/>
      <point x="322.0" y="167.0"/>
      <point x="333.0" y="166.0"/>
      <point x="346.0" y="166.0" type="curve" smooth="yes"/>
      <point x="373.0" y="166.0"/>
      <point x="396.0" y="174.0"/>
      <point x="418.0" y="182.0" type="curve"/>
      <point x="447.0" y="170.0"/>
      <point x="483.0" y="166.0"/>
      <point x="516.0" y="166.0" type="curve"/>
      <point x="523.0" y="190.0" type="line"/>
      <point x="537.0" y="175.0"/>
      <point x="553.0" y="166.0"/>
      <point x="571.0" y="166.0" type="curve" smooth="yes"/>
      <point x="632.0" y="166.0" type="line" smooth="yes"/>
      <point x="720.0" y="166.0"/>
      <point x="747.0" y="170.0"/>
      <point x="808.0" y="202.0" type="curve" smooth="yes"/>
      <point x="838.0" y="218.0"/>
      <point x="865.0" y="232.0"/>
      <point x="908.0" y="232.0" type="curve" smooth="yes"/>
      <point x="915.0" y="232.0"/>
      <point x="925.0" y="231.0"/>
      <point x="944.0" y="229.0" type="curve"/>
      <point x="966.0" y="271.0" type="line"/>
      <point x="938.0" y="271.0"/>
      <point x="921.0" y="271.0"/>
      <point x="900.0" y="276.0" type="curve" smooth="yes"/>
      <point x="830.0" y="293.0"/>
      <point x="792.0" y="356.0"/>
      <point x="734.0" y="356.0" type="curve" smooth="yes"/>
      <point x="699.0" y="356.0"/>
      <point x="666.0" y="341.0"/>
      <point x="666.0" y="310.0" type="curve" smooth="yes"/>
      <point x="666.0" y="300.0"/>
      <point x="669.0" y="292.0"/>
      <point x="674.0" y="287.0" type="curve"/>
      <point x="692.0" y="301.0"/>
      <point x="710.0" y="310.0"/>
      <point x="736.0" y="310.0" type="curve" smooth="yes"/>
      <point x="767.0" y="310.0"/>
      <point x="793.0" y="285.0"/>
      <point x="813.0" y="269.0" type="curve" smooth="yes"/>
      <point x="823.0" y="261.0"/>
      <point x="833.0" y="256.0"/>
      <point x="845.0" y="250.0" type="curve"/>
      <point x="785.0" y="238.0"/>
      <point x="763.0" y="208.0"/>
      <point x="627.0" y="208.0" type="curve" smooth="yes"/>
      <point x="575.0" y="208.0" type="line" smooth="yes"/>
      <point x="542.0" y="208.0"/>
      <point x="518.0" y="293.0"/>
      <point x="508.0" y="318.0" type="curve" smooth="yes"/>
      <point x="500.0" y="339.0"/>
      <point x="490.0" y="357.0"/>
      <point x="477.0" y="357.0" type="curve" smooth="yes"/>
      <point x="429.0" y="357.0"/>
      <point x="371.0" y="281.0"/>
      <point x="371.0" y="231.0" type="curve" smooth="yes"/>
      <point x="371.0" y="224.0"/>
      <point x="372.0" y="219.0"/>
      <point x="375.0" y="214.0" type="curve"/>
      <point x="366.0" y="211.0"/>
      <point x="354.0" y="208.0"/>
      <point x="342.0" y="208.0" type="curve" smooth="yes"/>
      <point x="328.0" y="208.0"/>
      <point x="315.0" y="211.0"/>
      <point x="302.0" y="219.0" type="curve"/>
      <point x="296.0" y="250.0" type="line"/>
      <point x="285.0" y="323.0" type="line" smooth="yes"/>
      <point x="276.0" y="382.0"/>
      <point x="267.0" y="425.0"/>
      <point x="263.0" y="485.0" type="curve"/>
      <point x="277.0" y="496.0"/>
      <point x="294.0" y="508.0"/>
      <point x="310.0" y="519.0" type="curve"/>
      <point x="303.0" y="505.0"/>
      <point x="300.0" y="492.0"/>
      <point x="300.0" y="480.0" type="curve" smooth="yes"/>
      <point x="300.0" y="431.0"/>
      <point x="391.0" y="415.0"/>
      <point x="445.0" y="415.0" type="curve"/>
      <point x="452.0" y="439.0" type="line"/>
      <point x="463.0" y="425.0"/>
      <point x="481.0" y="415.0"/>
      <point x="499.0" y="415.0" type="curve" smooth="yes"/>
      <point x="1223.0" y="415.0" type="line"/>
      <point x="1224.0" y="400.0" type="line"/>
      <point x="1227.0" y="366.0" type="line" smooth="yes"/>
      <point x="1232.0" y="317.0"/>
      <point x="1236.0" y="270.0"/>
      <point x="1240.0" y="223.0" type="curve"/>
      <point x="1221.0" y="212.0"/>
      <point x="1193.0" y="208.0"/>
      <point x="1158.0" y="208.0" type="curve" smooth="yes"/>
      <point x="1127.0" y="208.0"/>
      <point x="1107.0" y="209.0"/>
      <point x="1089.0" y="219.0" type="curve"/>
      <point x="1085.0" y="264.0"/>
      <point x="1055.0" y="321.0"/>
      <point x="1047.0" y="357.0" type="curve"/>
      <point x="1027.0" y="346.0"/>
      <point x="1014.0" y="337.0"/>
      <point x="1014.0" y="318.0" type="curve" smooth="yes"/>
      <point x="1014.0" y="288.0"/>
      <point x="1035.0" y="256.0"/>
      <point x="1042.0" y="244.0" type="curve" smooth="yes"/>
      <point x="1052.0" y="226.0"/>
      <point x="1059.0" y="217.0"/>
      <point x="1069.0" y="193.0" type="curve"/>
      <point x="1062.0" y="171.0"/>
      <point x="1052.0" y="152.0"/>
      <point x="1040.0" y="137.0" type="curve" smooth="yes"/>
      <point x="1031.0" y="125.0"/>
      <point x="1020.0" y="117.0"/>
      <point x="1007.0" y="109.0" type="curve"/>
      <point x="1002.0" y="112.0"/>
      <point x="996.0" y="115.0"/>
      <point x="990.0" y="117.0" type="curve" smooth="yes"/>
      <point x="980.0" y="121.0"/>
      <point x="971.0" y="123.0"/>
      <point x="960.0" y="123.0" type="curve" smooth="yes"/>
      <point x="923.0" y="123.0"/>
      <point x="893.0" y="106.0"/>
      <point x="893.0" y="76.0" type="curve" smooth="yes"/>
      <point x="893.0" y="66.0"/>
      <point x="896.0" y="59.0"/>
      <point x="901.0" y="54.0" type="curve"/>
      <point x="920.0" y="67.0"/>
      <point x="936.0" y="76.0"/>
      <point x="962.0" y="76.0" type="curve" smooth="yes"/>
      <point x="1002.0" y="76.0"/>
      <point x="1021.0" y="40.0"/>
      <point x="1072.0" y="17.0" type="curve"/>
      <point x="1018.0" y="6.0"/>
      <point x="988.0" y="-25.0"/>
      <point x="858.0" y="-25.0" type="curve" smooth="yes"/>
      <point x="829.0" y="-25.0"/>
      <point x="807.0" y="-17.0"/>
      <point x="789.0" y="-5.0" type="curve"/>
      <point x="802.0" y="25.0" type="line" smooth="yes"/>
      <point x="807.0" y="36.0"/>
      <point x="811.0" y="46.0"/>
      <point x="815.0" y="56.0" type="curve"/>
      <point x="811.0" y="58.0"/>
      <point x="807.0" y="60.0"/>
      <point x="800.0" y="60.0" type="curve" smooth="yes"/>
      <point x="784.0" y="59.0"/>
      <point x="772.0" y="31.0"/>
      <point x="764.0" y="15.0" type="curve" smooth="yes"/>
      <point x="758.0" y="3.0"/>
      <point x="753.0" y="-8.0"/>
      <point x="745.0" y="-12.0" type="curve" smooth="yes"/>
      <point x="708.0" y="-32.0"/>
      <point x="679.0" y="-40.0"/>
      <point x="658.0" y="-40.0" type="curve" smooth="yes"/>
      <point x="620.0" y="-40.0"/>
      <point x="607.0" y="54.0"/>
      <point x="577.0" y="97.0" type="curve" smooth="yes"/>
      <point x="572.0" y="104.0"/>
      <point x="566.0" y="108.0"/>
      <point x="560.0" y="108.0" type="curve" smooth="yes"/>
      <point x="529.0" y="108.0"/>
      <point x="469.0" y="68.0"/>
      <point x="444.0" y="50.0" type="curve" smooth="yes"/>
      <point x="427.0" y="38.0"/>
      <point x="416.0" y="28.0"/>
      <point x="414.0" y="25.0" type="curve" smooth="yes"/>
      <point x="405.0" y="8.0"/>
      <point x="395.0" y="-18.0"/>
      <point x="395.0" y="-31.0" type="curve" smooth="yes"/>
      <point x="395.0" y="-105.0"/>
      <point x="408.0" y="-156.0"/>
    </contour>
  </outline>
</glyph>
